<svg xmlns="http://www.w3.org/2000/svg" xml:space="preserve" id="svg257" x="0px" y="0px" version="1.1" viewBox="0 0 510.94423 190.78764"><g id="Layer_2" transform="matrix(0.2459954,-0.04456751,0.04456751,0.2459954,-13.816546,-26.767527)"><g id="g87"><path id="path61" fill="#3a6ea3" d="m 1955.8,975.4 c -0.1,1.7 0,3.4 -0.3,5.1 -0.1,0.8 -0.2,1.7 -0.4,2.5 -0.2,0.8 -0.4,1.6 -0.6,2.4 -0.1,0.4 -0.2,0.8 -0.3,1.2 l -0.4,1.2 c -0.3,0.8 -0.6,1.5 -0.8,2.3 -1.4,2.9 -2.9,5.7 -4.8,8.1 -1.5,1.9 -3,3.7 -4.7,5.3 -1.1,1.1 -2.1,2.1 -3.3,3 0.1,-0.1 0.3,-0.1 0.4,-0.2 -0.1,0.1 -0.3,0.1 -0.4,0.2 -1.5,1.3 -3,2.5 -4.6,3.6 -8.9,6.4 -17.9,10.5 -25.7,14.1 -4.6,2 -8.9,3.8 -12.7,5.4 -1.5,0.8 -3.1,1.6 -4.7,2.4 -2.5,1.2 -5,2.5 -7.7,3.8 -2.6,1.3 -5.4,2.7 -8.2,4.1 -2.8,1.4 -5.8,2.8 -8.8,4.2 -3,1.4 -6.1,2.9 -9.3,4.4 -3.2,1.4 -6.5,2.9 -9.9,4.4 -6.7,3.1 -13.9,6 -21.3,9.2 -3.7,1.6 -7.6,3.1 -11.5,4.6 -3.9,1.5 -7.9,3.1 -12.1,4.7 -4.1,1.5 -8.3,3 -12.6,4.5 -0.7,0.2 -1.3,0.5 -2,0.7 -1.5,0.5 -3,1.1 -4.5,1.6 -2.2,0.7 -4.4,1.4 -6.7,2.2 -4.5,1.5 -9.1,3 -13.7,4.5 -4.7,1.4 -9.5,2.8 -14.3,4.2 -4.8,1.5 -9.8,2.8 -14.8,4.1 -2.5,0.7 -5.1,1.3 -7.6,2 -2.5,0.7 -5.1,1.4 -7.7,1.9 -5.2,1.2 -10.5,2.5 -15.9,3.7 -1.3,0.3 -2.7,0.6 -4,0.9 -1.4,0.3 -2.7,0.6 -4.1,0.8 -2.7,0.6 -5.5,1.1 -8.3,1.7 -11.1,2.4 -22.6,4.3 -34.3,6.4 -2.9,0.5 -5.9,0.9 -8.9,1.4 -3,0.5 -6,0.9 -9,1.4 -6,0.9 -12.1,1.9 -18.3,2.5 -6.2,0.8 -12.5,1.5 -18.8,2.3 -3.2,0.4 -6.3,0.8 -9.5,1.2 -3.2,0.4 -6.4,0.6 -9.7,0.9 -6.5,0.6 -13,1.1 -19.6,1.7 -3.3,0.3 -6.6,0.6 -10,0.9 -3.3,0.2 -6.7,0.4 -10.1,0.6 -6.8,0.4 -13.6,0.8 -20.4,1.2 -1.7,0.1 -3.4,0.2 -5.2,0.3 -1.7,0.1 -3.5,0.1 -5.2,0.2 -3.5,0.1 -7,0.2 -10.5,0.3 -7,0.2 -14.1,0.4 -21.2,0.6 -7.1,0 -14.3,0 -21.5,0 -3.6,0 -7.3,0 -10.9,0 -1.8,0 -3.7,0 -5.5,0 -1.8,-0.1 -3.7,-0.1 -5.5,-0.2 -7.3,-0.2 -14.8,-0.4 -22.2,-0.7 -3.7,-0.1 -7.5,-0.2 -11.2,-0.4 -3.8,-0.2 -7.5,-0.4 -11.3,-0.6 -7.6,-0.4 -15.2,-0.9 -22.8,-1.3 -7.6,-0.6 -15.3,-1.3 -23.1,-1.9 -3.9,-0.3 -7.8,-0.6 -11.7,-1 -2,-0.2 -3.9,-0.3 -5.9,-0.6 -1.9,-0.2 -3.9,-0.4 -5.9,-0.6 -7.8,-0.8 -15.7,-1.7 -23.6,-2.6 -4,-0.4 -7.9,-0.9 -11.9,-1.5 -4,-0.5 -8,-1.1 -12,-1.6 -4,-0.5 -8,-1.1 -12,-1.6 -2,-0.3 -4,-0.5 -6,-0.8 -2,-0.3 -4,-0.6 -6,-1 -8.1,-1.3 -16.2,-2.5 -24.3,-3.8 -32.5,-5.5 -65.6,-11.8 -99,-19.5 -4.2,-0.9 -8.4,-1.9 -12.6,-2.8 -4.2,-1 -8.4,-2.1 -12.6,-3.1 -8.4,-2.1 -16.8,-4.2 -25.3,-6.3 -16.8,-4.6 -33.9,-8.9 -50.8,-14 -4.3,-1.2 -8.5,-2.5 -12.8,-3.7 -2.1,-0.6 -4.3,-1.3 -6.4,-1.9 -2.1,-0.7 -4.3,-1.3 -6.4,-2 -8.5,-2.7 -17.1,-5.3 -25.6,-8 -8.5,-2.8 -17.1,-5.7 -25.6,-8.5 -4.3,-1.5 -8.6,-2.8 -12.9,-4.3 -4.3,-1.5 -8.6,-3 -12.8,-4.5 -4.3,-1.5 -8.6,-3 -12.8,-4.5 -2.1,-0.8 -4.3,-1.5 -6.4,-2.3 -2.1,-0.8 -4.2,-1.6 -6.3,-2.4 -8.4,-3.2 -16.9,-6.3 -25.2,-9.4 -16.6,-6.6 -33.2,-12.9 -49.3,-19.8 -16.3,-6.6 -32.2,-13.7 -48,-20.6 -7.8,-3.6 -15.6,-7.1 -23.4,-10.7 -1.9,-0.9 -3.9,-1.8 -5.8,-2.7 -1.9,-0.9 -3.8,-1.8 -5.8,-2.7 -3.8,-1.8 -7.7,-3.6 -11.5,-5.5 -3.8,-1.8 -7.6,-3.6 -11.4,-5.4 -3.8,-1.8 -7.5,-3.7 -11.3,-5.6 -7.5,-3.8 -14.9,-7.4 -22.3,-11.2 -7.3,-3.8 -14.6,-7.6 -21.9,-11.4 -3.6,-1.9 -7.2,-3.8 -10.8,-5.7 -3.6,-1.9 -7.1,-3.9 -10.7,-5.8 -28.4,-15.5 -55.8,-31.1 -81.9,-47.4 -52.4,-32.1 -99.7,-66.5 -140.7,-102.3 -41,-35.8 -75.6,-73.2 -103.6,-110.4 -28,-37 -49.2,-73.8 -65.1,-107.8 -2.1,-4.2 -3.9,-8.5 -5.7,-12.6 -1.8,-4.2 -3.6,-8.2 -5.3,-12.3 -1.6,-4.1 -3.2,-8.1 -4.7,-12 -0.8,-2 -1.5,-3.9 -2.3,-5.9 -0.7,-2 -1.4,-3.9 -2.1,-5.8 -1.4,-3.9 -2.7,-7.6 -4,-11.3 -0.3,-0.9 -0.6,-1.9 -1,-2.8 -0.3,-0.9 -0.6,-1.9 -0.9,-2.8 -0.6,-1.8 -1.1,-3.6 -1.7,-5.4 -1.1,-3.6 -2.2,-7.1 -3.3,-10.6 -1,-3.5 -1.9,-6.9 -2.8,-10.2 -5.8,-21.3 -9.7,-39.6 -12.3,-54.5 -0.7,-3.8 -1.2,-7.3 -1.7,-10.6 -0.4,-2.8 -0.8,-5.4 -1.2,-7.8 -0.2,-1 -0.3,-2 -0.5,-2.9 0,-0.2 -0.1,-0.4 -0.1,-0.6 -0.4,-3.4 -0.8,-6.5 -1.1,-9.2 -0.6,-5.4 -1.1,-9.4 -1.4,-11.8 0,-0.2 -0.1,-0.4 -0.1,-0.6 -1.8,-1.5 -3.7,-3.1 -5.8,-4.7 -1.4,-1.1 -2.9,-2.3 -4.5,-3.4 0,0 -0.1,-0.1 -0.1,-0.1 -6.6,-4.9 -14.3,-10 -22.8,-15.1 -10.6,-6.4 -22.5,-12.9 -35.4,-19.9 -12.8,-7 -26.6,-14.5 -40.4,-23.6 C 79,273 72.2,268 65.6,262.4 59,256.8 52.7,250.5 47.2,243.3 c -2.8,-3.6 -5.3,-7.4 -7.7,-11.3 -1.2,-2 -2.2,-4 -3.3,-6.1 -1,-2.1 -2,-4.2 -2.8,-6.4 -1.8,-4.3 -3.3,-8.8 -4.4,-13.4 -1.1,-4.6 -2,-9.2 -2.5,-13.9 -0.3,-2.4 -0.4,-4.7 -0.6,-7 0,-1.2 -0.1,-2.3 -0.1,-3.5 v -1 -0.7 -1.8 c 0,-1.2 0,-2.3 0,-3.5 0.1,-1.5 0.1,-3.1 0.2,-4.6 l 0.2,-3.4 v -0.8 c 0,-0.1 0,-0.3 0,-0.4 l 0.4,0.1 1.6,0.4 c 1.9,0.4 3.8,0.9 5.7,1.4 4.5,1.3 8.9,3.1 13,5.3 4,2.3 7.8,4.9 11.2,7.7 3.5,2.8 6.7,5.7 9.9,8.5 3.2,2.7 6.4,5.4 9.7,7.6 0.8,0.6 1.7,1.1 2.5,1.6 l 1.3,0.8 1.3,0.7 c 0.9,0.5 1.7,1 2.6,1.4 0.9,0.4 1.8,0.7 2.7,1.1 3.7,1.4 7.5,2.5 11.3,3.5 7.6,1.8 15.3,2.8 22.8,3.7 7.5,0.8 14.8,1.5 21.9,2.5 14.1,2 27.3,4 39.1,7.4 11.8,3.3 22,8.3 29.4,14.6 3.7,3.2 6.7,6.6 9.1,10.1 2.3,3.5 4,6.9 5.3,10 1.5,4 2.5,7.5 3.1,10.5 0.1,-3 0.4,-6.2 0.8,-9.8 0.5,-3.5 1.2,-7.3 2.3,-11.2 1.1,-3.9 2.6,-8 4.6,-12.2 0.5,-1 1,-2.1 1.7,-3.1 0.6,-1 1.2,-2.1 2,-3.1 0.4,-0.5 0.8,-1 1.1,-1.5 0.4,-0.5 0.9,-0.9 1.3,-1.4 0.8,-1 1.8,-1.8 2.8,-2.6 3.9,-3.4 8.7,-5.8 13.7,-7.9 5,-2 10.3,-3.6 15.7,-5.3 5.4,-1.7 10.8,-3.4 15.9,-5.8 2.5,-1.3 5,-2.7 7.1,-4.4 2.1,-1.8 4,-3.8 5.4,-6.2 L 305,189 c 0.2,-0.3 0.4,-0.6 0.5,-0.9 l 0.8,-1.9 c 0.4,-1.4 0.9,-2.7 1.1,-4.1 0.1,-0.7 0.3,-1.4 0.3,-2.1 l 0.2,-2.2 c 0.1,-0.7 0,-1.5 0.1,-2.2 v -2.1 -0.3 -0.6 c -0.1,-1.6 -0.2,-3.1 -0.3,-4.7 l -0.2,-2.4 v -0.6 c 0,-0.2 -0.1,-0.5 0.2,-0.3 l 1.1,0.5 c 1.4,0.7 2.9,1.4 4.3,2 l 2.1,1 1.6,0.8 c 2.9,1.4 5.9,2.9 8.8,4.5 3,1.6 6,3.3 9,5.2 2.8,1.7 5.5,3.5 8.2,5.4 2.1,1.5 4.1,3 6,4.6 3.3,2.7 6.5,5.6 9.4,8.6 2.3,2.5 4.5,5.1 6.3,7.8 1.9,2.8 3.5,5.7 4.9,8.8 0.3,0.8 0.6,1.5 1,2.3 0.3,0.8 0.5,1.6 0.8,2.4 l 0.4,1.2 0.3,1.2 c 0.2,0.8 0.4,1.6 0.6,2.4 0.2,1.6 0.6,3.2 0.6,4.9 0,0.8 0.1,1.6 0.1,2.4 l -0.1,2.4 c -0.2,6.4 -2,12.5 -4.4,18 -1.2,2.8 -2.6,5.4 -4.1,7.9 -0.8,1.2 -1.5,2.4 -2.3,3.6 -0.8,1.2 -1.6,2.4 -2.5,3.5 -3.5,4.5 -7.4,8.3 -11.3,11.8 -7.9,6.9 -15.7,12.4 -22.2,18.1 -3.3,2.9 -6.2,5.7 -8.7,8.7 -1.2,1.4 -2.3,2.8 -3.2,4.2 -1.1,1.6 -2,3.2 -2.8,4.8 -1.5,3 -2.5,6.1 -3,8.9 -0.1,0.3 -0.1,0.7 -0.2,1.1 0,0.4 -0.1,0.7 -0.1,1.1 -0.1,0.7 -0.2,1.4 -0.2,2 0,1.3 -0.1,2.6 -0.1,3.8 0.1,1.2 0.1,2.4 0.2,3.4 0.1,1.1 0.3,2.1 0.4,3 0,0.2 0.1,0.4 0.1,0.6 0.3,1.4 0.5,2.6 0.8,3.6 v 0 c 1.8,2.2 3.5,4.5 5.4,6.9 1.8,2.3 3.6,4.7 5.5,7 0.8,0.9 1.5,1.8 2.3,2.8 1.2,1.5 2.4,2.9 3.6,4.5 2,2.5 4.1,5 6.2,7.5 1.9,2.2 3.9,4.4 5.8,6.7 0.3,0.3 0.5,0.6 0.8,0.9 18.1,20.8 40.2,43.6 67.7,65.5 1.7,1.4 3.4,2.8 5.1,4.2 1.8,1.4 3.5,2.7 5.3,4.1 3.6,2.7 7.2,5.5 10.9,8.3 1.8,1.4 3.7,2.7 5.6,4.1 1.9,1.3 3.8,2.7 5.8,4 1.9,1.4 3.9,2.7 5.8,4 1,0.7 2,1.4 2.9,2 1,0.6 2,1.3 3,1.9 4.1,2.5 8.2,5.1 12.3,7.7 1,0.7 2.1,1.3 3.1,1.9 1.1,0.6 2.1,1.2 3.2,1.8 2.2,1.2 4.3,2.4 6.5,3.6 2.2,1.2 4.4,2.4 6.6,3.7 l 1.6,0.9 c 0.6,0.3 1.1,0.6 1.7,0.8 1.1,0.6 2.3,1.1 3.4,1.7 4.6,2.3 9.1,4.5 13.8,6.8 18.8,8.6 38.9,16.1 60,22.2 5.3,1.4 10.6,2.9 16,4.3 5.5,1.2 10.9,2.5 16.4,3.7 1.4,0.3 2.8,0.7 4.2,0.9 1.4,0.3 2.8,0.5 4.2,0.8 2.8,0.5 5.6,1 8.4,1.5 0.8,0.2 1.7,0.3 2.5,0.5 -0.1,-0.6 -0.1,-1.2 -0.2,-1.7 -0.1,-1.1 -0.2,-2.2 -0.2,-3.3 -0.1,-2.3 -0.3,-4.7 -0.4,-7.2 -0.2,-2.5 -0.2,-5.1 -0.3,-7.9 0,-0.8 0,-1.6 -0.1,-2.4 0,-1.2 0,-2.3 -0.1,-3.5 v -0.4 -0.1 c 0,0 0.1,0 0.1,0 h 0.2 0.9 c 0.6,0 1.2,0 1.8,0 1,0 2,0 2.9,0 h 4.5 c 1.5,0 3.1,0 4.7,0.1 3.2,0.2 6.4,0.3 9.8,0.6 13.4,1.1 27.9,3.8 42.8,7.9 14.9,4.2 28.4,9.2 40.4,14.2 11.6,4.8 21.8,9.5 30.4,13.6 1.1,0 2.3,0 3.4,0.1 3.1,0 6.2,0.1 9.4,0.1 3.1,0.1 6.3,0.2 9.4,0.2 50.2,1.1 101.9,3.1 154.2,7.3 52.4,4.1 103.3,10.5 152.1,18.3 48.9,7.8 95.7,17 140.2,26.5 11.1,2.4 22.1,4.8 32.9,7.1 5.4,1.1 10.8,2.5 16.1,3.7 2.7,0.6 5.3,1.3 8,1.9 1.3,0.3 2.6,0.6 4,0.9 1.3,0.3 2.6,0.7 3.9,1 5.2,1.3 10.4,2.7 15.5,4 1.3,0.3 2.6,0.7 3.8,1 1.3,0.4 2.5,0.7 3.8,1.1 2.5,0.7 5.1,1.4 7.6,2.1 2.5,0.7 5,1.4 7.5,2.1 2.5,0.7 5,1.4 7.4,2.2 4.9,1.5 9.8,3 14.6,4.5 38.7,11.9 74,25.2 105.8,38.4 31.8,13.3 59.8,26.8 84,39.4 3,1.6 6,3.1 8.9,4.7 1.5,0.8 2.9,1.5 4.3,2.3 1.4,0.8 2.8,1.6 4.2,2.3 1.6,0.9 3.2,1.8 4.8,2.7 7.2,2.4 26.4,9 53.2,18.1 18.6,6.4 40.9,13.9 65.4,22.7 24.5,8.8 51.1,18.7 78,30.4 6.4,2.8 12.7,5.6 18.8,8.4 1.2,0.6 2.5,1.1 3.7,1.7 3.7,1.7 7.3,3.5 10.9,5.2 3.6,1.8 7.1,3.5 10.6,5.3 2.3,1.2 4.6,2.4 6.9,3.6 1.1,0.6 2.3,1.2 3.4,1.8 1.1,0.6 2.2,1.2 3.3,1.8 1.4,0.8 2.8,1.5 4.2,2.3 4.2,2.3 8.2,4.7 12.2,7.1 1.4,0.8 2.7,1.6 4.1,2.4 1.3,0.8 2.6,1.7 3.9,2.5 2.6,1.7 5.2,3.4 7.7,5 1.3,0.8 2.5,1.6 3.8,2.4 1.3,0.8 2.4,1.7 3.6,2.5 2.4,1.7 4.7,3.4 7,5 1.1,0.8 2.3,1.7 3.4,2.5 0.6,0.4 1.1,0.8 1.7,1.2 0.1,0 0.2,0.2 0.3,0.3 l 0.2,0.2 0.4,0.4 0.8,0.7 c 2,1.8 4,3.6 5.9,5.3 2.2,2 4.4,4 6.5,5.9 1.6,1.4 3.1,2.9 4.6,4.3 5,4.7 9.5,9.3 13.4,13.7 1.6,1.8 3.1,3.5 4.5,5.2 4.9,5.9 8.6,11.4 11.2,16.1 0.7,1.2 1.2,2.3 1.8,3.4 0.5,1.1 1.1,2 1.4,3 0.4,1 0.8,1.8 1.1,2.7 0.3,0.8 0.6,1.5 0.8,2.2 0.3,1 0.6,1.8 0.8,2.4 1.8,-0.5 2.8,-0.8 3.1,-0.9 -0.3,0.1 -1.3,0.5 -3,1.1 0.2,0.7 0.4,1.2 0.4,1.4 -0.1,-0.2 -0.3,-0.7 -0.5,-1.4 -0.3,0.1 -0.5,0.2 -0.8,0.3 -1.3,0.5 -3,1 -4.9,1.7 -1,0.3 -2,0.7 -3.2,1 -1.1,0.3 -2.4,0.7 -3.6,1.1 -5.1,1.5 -11.5,3.2 -18.9,4.8 -7.5,1.5 -16.1,2.9 -25.7,3.7 -9.6,0.8 -20.2,0.9 -31.5,-0.1 -11.3,-1 -23.3,-3.1 -35.6,-6.4 -6.2,-1.7 -12.4,-3.6 -18.7,-5.6 -6.3,-2.1 -12.7,-4.4 -19.2,-6.8 -12.9,-4.8 -26.1,-10 -39.9,-14.2 -13.8,-4.2 -27.4,-7.1 -40.7,-7.5 -6.6,-0.2 -13.1,0.2 -19.3,1.1 -6.3,1 -12.2,2.5 -18,4.3 -1.4,0.5 -2.8,1 -4.2,1.5 -0.7,0.3 -1.4,0.5 -2.1,0.8 -0.7,0.3 -1.4,0.6 -2,0.9 -1.3,0.5 -2.5,1.1 -3.8,1.6 -1.5,0.6 -2.9,1.2 -4.3,1.9 -2.2,0.9 -4.4,1.8 -6.6,2.7 1,-0.1 2.2,-0.2 3.3,-0.3 2.9,-0.3 6.2,-0.4 9.9,-0.6 1.8,-0.1 3.7,-0.1 5.8,-0.1 2,0 4.1,-0.1 6.3,0 0.2,0 0.5,0 0.7,0 8.5,0.2 18.3,1 29,2.6 11,1.7 23,4.3 35.6,7.8 12.6,3.5 25.9,7.9 39.7,12.8 3.4,1.2 6.9,2.4 10.4,3.7 24.7,8.7 51,18.2 79,24 2,0.4 4,0.8 6,1.2 2,0.4 4,0.8 6,1.1 2,0.3 4,0.6 5.9,1 2,0.3 3.9,0.5 5.9,0.8 1,0.1 2,0.3 2.9,0.4 1,0.1 2,0.1 3,0.2 2,0.1 3.9,0.3 5.9,0.4 3.9,0.3 7.8,0.5 11.6,0.8 1.9,0.2 3.8,0.2 5.8,0.3 1.9,0.1 3.8,0.2 5.7,0.2 3.8,0.1 7.6,0.3 11.3,0.5 7.4,0.3 14.7,0.3 21.9,0.5 7.1,0.2 14.1,0.2 20.8,0.3 2.1,0 4.2,0.1 6.3,0.1 h 1.1 c 0,0 0.1,0 0.1,0 v 0.1 0.3 l 0.1,0.5 0.4,2.1 c 0.2,1 0.4,2 0.6,2.9 0.1,0.9 0.2,1.7 0.2,2.6 0,0.7 0.1,1.6 0,2.4 z"/><path id="path63" fill="#4080b5" d="M 1878.3,867.1 C 1769.9,853.2 1666.4,785 1556.5,759.9 1493.4,745.5 1428.1,745.4 1363.8,738.7 1189.9,720.6 1024.7,654.2 852.6,623.7 798.6,614.1 743.9,608.1 690.7,594.9 637,581.6 585.5,561.2 534.5,540 454.9,507 372.6,469.4 320.5,400.8 305.3,380.8 251,313 269.3,288.2 c -3.3,4.5 44.3,59 50.9,66.8 0.8,0.9 1.5,1.8 2.3,2.8 2.9,6.6 9.4,11.7 15.7,18.7 0.3,0.3 0.5,0.6 0.8,0.9 18.1,20.8 40.2,43.6 67.7,65.5 1.7,1.4 3.4,2.8 5.1,4.2 1.8,1.4 3.5,2.7 5.3,4.1 3.6,2.7 7.2,5.5 10.9,8.3 1.8,1.4 3.7,2.7 5.6,4.1 1.9,1.3 3.8,2.7 5.8,4 1.9,1.4 3.9,2.7 5.8,4 1,0.7 2,1.4 2.9,2 1,0.6 2,1.3 3,1.9 4.1,2.5 8.2,5.1 12.3,7.7 1,0.7 2.1,1.3 3.1,1.9 1.1,0.6 2.1,1.2 3.2,1.8 2.2,1.2 4.3,2.4 6.5,3.6 2.2,1.2 4.4,2.4 6.6,3.7 l 1.6,0.9 c 0.6,0.3 1.1,0.6 1.7,0.8 1.1,0.6 2.3,1.1 3.4,1.7 4.6,2.3 9.1,4.5 13.8,6.8 18.8,8.6 38.9,16.1 60,22.2 5.3,1.4 10.6,2.9 16,4.3 5.5,1.2 10.9,2.5 16.4,3.7 1.4,0.3 2.8,0.7 4.2,0.9 1.4,0.3 2.8,0.5 4.2,0.8 2.8,0.5 5.6,1 8.4,1.5 0.8,0.2 1.7,0.3 2.5,0.5 -0.1,-0.6 -0.1,-1.2 -0.2,-1.7 -0.1,-1.1 -0.2,-2.2 -0.2,-3.3 -0.1,-2.3 -0.3,-4.7 -0.4,-7.2 -0.2,-2.5 -0.2,-5.1 -0.3,-7.9 0,-0.8 0,-1.6 -0.1,-2.4 0,-1.2 0,-2.3 -0.1,-3.5 v -0.4 -0.1 c 0,0 0.1,0 0.1,0 h 0.2 0.9 c 0.6,0 1.2,0 1.8,0 1,0 2,0 2.9,0 h 4.5 c 1.5,0 3.1,0 4.7,0.1 3.2,0.2 6.4,0.3 9.8,0.6 13.4,1.1 27.9,3.8 42.8,7.9 14.9,4.2 28.4,9.2 40.4,14.2 11.6,4.8 21.8,9.5 30.4,13.6 1.1,0 2.3,0 3.4,0.1 3.1,0 6.2,0.1 9.4,0.1 3.1,0.1 6.3,0.2 9.4,0.2 50.2,1.1 101.9,3.1 154.2,7.3 52.4,4.1 103.3,10.5 152.1,18.3 48.9,7.8 95.7,17 140.2,26.5 11.1,2.4 22.1,4.8 32.9,7.1 5.4,1.1 10.8,2.5 16.1,3.7 2.7,0.6 5.3,1.3 8,1.9 1.3,0.3 2.6,0.6 4,0.9 1.3,0.3 2.6,0.7 3.9,1 5.2,1.3 10.4,2.7 15.5,4 1.3,0.3 2.6,0.7 3.8,1 1.3,0.4 2.5,0.7 3.8,1.1 2.5,0.7 5.1,1.4 7.6,2.1 2.5,0.7 5,1.4 7.5,2.1 2.5,0.7 5,1.4 7.4,2.2 4.9,1.5 9.8,3 14.6,4.5 38.7,11.9 74,25.2 105.8,38.4 31.8,13.3 59.8,26.8 84,39.4 3,1.6 6,3.1 8.9,4.7 1.5,0.8 2.9,1.5 4.3,2.3 1.4,0.8 2.8,1.6 4.2,2.3 1.6,0.9 3.2,1.8 4.8,2.7 7.2,2.4 26.4,9 53.2,18.1 18.6,6.4 40.9,13.9 65.4,22.7 24.5,8.8 51.1,18.7 78,30.4 6.4,2.8 12.7,5.6 18.8,8.4 1.2,0.6 2.5,1.1 3.7,1.7 3.7,1.7 7.3,3.5 10.9,5.2 3.6,1.7 7.1,3.5 10.6,5.3 2.3,1.2 4.6,2.4 6.9,3.6 1.1,0.6 2.3,1.2 3.4,1.8 1.1,0.6 2.2,1.2 3.3,1.8 1.4,0.8 2.8,1.5 4.2,2.3 4.2,2.3 8.2,4.7 12.2,7.1 1.4,0.8 2.7,1.6 4.1,2.4 1.3,0.8 2.6,1.7 3.9,2.5 2.6,1.7 5.2,3.4 7.7,5 1.3,0.8 2.5,1.6 3.8,2.4 1.3,0.8 2.4,1.7 3.6,2.5 2.4,1.7 4.7,3.4 7,5 1.1,0.8 2.3,1.7 3.4,2.5 0.6,0.4 1.1,0.8 1.7,1.2 0.1,0 0.2,0.2 0.3,0.3 l 0.2,0.2 0.4,0.4 0.8,0.7 c 2,1.8 4,3.6 5.9,5.3 2.6,2.3 4.7,4.3 6.9,6.2 z"/><path id="path65" fill="#3a68a3" d="m 1955.8,975.4 c -0.1,1.7 0,3.4 -0.3,5.1 -0.1,0.8 -0.2,1.7 -0.4,2.5 -0.2,0.8 -0.4,1.6 -0.6,2.4 -0.1,0.4 -0.2,0.8 -0.3,1.2 l -0.4,1.2 c -0.3,0.8 -0.6,1.5 -0.8,2.3 -1.4,2.9 -2.9,5.7 -4.8,8.1 -1.5,1.9 -3,3.7 -4.7,5.3 -1.1,1.1 -2.1,2.1 -3.3,3 0.1,-0.1 0.3,-0.1 0.4,-0.2 -0.1,0.1 -0.3,0.1 -0.4,0.2 -1.5,1.3 -3,2.5 -4.6,3.6 -8.9,6.4 -17.9,10.5 -25.7,14.1 -4.6,2 -8.9,3.8 -12.7,5.4 -1.5,0.8 -3.1,1.6 -4.7,2.4 -2.5,1.2 -5,2.5 -7.7,3.8 -2.6,1.3 -5.4,2.7 -8.2,4.1 -2.8,1.4 -5.8,2.8 -8.8,4.2 -3,1.4 -6.1,2.9 -9.3,4.4 -3.2,1.4 -6.5,2.9 -9.9,4.4 -6.7,3.1 -13.9,6 -21.3,9.2 -3.7,1.6 -7.6,3.1 -11.5,4.6 -3.9,1.5 -7.9,3.1 -12.1,4.7 -4.1,1.5 -8.3,3 -12.6,4.5 -0.7,0.2 -1.3,0.5 -2,0.7 -1.5,0.5 -3,1.1 -4.5,1.6 -2.2,0.7 -4.4,1.4 -6.7,2.2 -4.5,1.5 -9.1,3 -13.7,4.5 -4.7,1.4 -9.5,2.8 -14.3,4.2 -4.8,1.5 -9.8,2.8 -14.8,4.1 -2.5,0.7 -5.1,1.3 -7.6,2 -2.5,0.7 -5.1,1.4 -7.7,1.9 -5.2,1.2 -10.5,2.5 -15.9,3.7 -1.3,0.3 -2.7,0.6 -4,0.9 -1.4,0.3 -2.7,0.6 -4.1,0.8 -2.7,0.6 -5.5,1.1 -8.3,1.7 -11.1,2.4 -22.6,4.3 -34.3,6.4 -2.9,0.5 -5.9,0.9 -8.9,1.4 -3,0.5 -6,0.9 -9,1.4 -6,0.9 -12.1,1.9 -18.3,2.5 -6.2,0.8 -12.5,1.5 -18.8,2.3 -3.2,0.4 -6.3,0.8 -9.5,1.2 -3.2,0.4 -6.4,0.6 -9.7,0.9 -6.5,0.6 -13,1.1 -19.6,1.7 -3.3,0.3 -6.6,0.6 -10,0.9 -3.3,0.2 -6.7,0.4 -10.1,0.6 -6.8,0.4 -13.6,0.8 -20.4,1.2 -1.7,0.1 -3.4,0.2 -5.2,0.3 -1.7,0.1 -3.5,0.1 -5.2,0.2 -3.5,0.1 -7,0.2 -10.5,0.3 -7,0.2 -14.1,0.4 -21.2,0.6 -7.1,0 -14.3,0 -21.5,0 -3.6,0 -7.3,0 -10.9,0 -1.8,0 -3.7,0 -5.5,0 -1.8,-0.1 -3.7,-0.1 -5.5,-0.2 -7.3,-0.2 -14.8,-0.4 -22.2,-0.7 -3.7,-0.1 -7.5,-0.2 -11.2,-0.4 -3.8,-0.2 -7.5,-0.4 -11.3,-0.6 -7.6,-0.4 -15.2,-0.9 -22.8,-1.3 -7.6,-0.6 -15.3,-1.3 -23.1,-1.9 -3.9,-0.3 -7.8,-0.6 -11.7,-1 -2,-0.2 -3.9,-0.3 -5.9,-0.6 -1.9,-0.2 -3.9,-0.4 -5.9,-0.6 -7.8,-0.8 -15.7,-1.7 -23.6,-2.6 -4,-0.4 -7.9,-0.9 -11.9,-1.5 -4,-0.5 -8,-1.1 -12,-1.6 -4,-0.5 -8,-1.1 -12,-1.6 -2,-0.3 -4,-0.5 -6,-0.8 -2,-0.3 -4,-0.6 -6,-1 -8.1,-1.3 -16.2,-2.5 -24.3,-3.8 -32.5,-5.5 -65.6,-11.8 -99,-19.5 -4.2,-0.9 -8.4,-1.9 -12.6,-2.8 -4.2,-1 -8.4,-2.1 -12.6,-3.1 -8.4,-2.1 -16.8,-4.2 -25.3,-6.3 -16.8,-4.6 -33.9,-8.9 -50.8,-14 -4.3,-1.2 -8.5,-2.5 -12.8,-3.7 -2.1,-0.6 -4.3,-1.3 -6.4,-1.9 -2.1,-0.7 -4.3,-1.3 -6.4,-2 -8.5,-2.7 -17.1,-5.3 -25.6,-8 -8.5,-2.8 -17.1,-5.7 -25.6,-8.5 -4.3,-1.5 -8.6,-2.8 -12.9,-4.3 -4.3,-1.5 -8.6,-3 -12.8,-4.5 -4.3,-1.5 -8.6,-3 -12.8,-4.5 -2.1,-0.8 -4.3,-1.5 -6.4,-2.3 -2.1,-0.8 -4.2,-1.6 -6.3,-2.4 -8.4,-3.2 -16.9,-6.3 -25.2,-9.4 -16.6,-6.6 -33.2,-12.9 -49.3,-19.8 -16.3,-6.6 -32.2,-13.7 -48,-20.6 -7.8,-3.6 -15.6,-7.1 -23.4,-10.7 -1.9,-0.9 -3.9,-1.8 -5.8,-2.7 -1.9,-0.9 -3.8,-1.8 -5.8,-2.7 -3.8,-1.8 -7.7,-3.6 -11.5,-5.5 -3.8,-1.8 -7.6,-3.6 -11.4,-5.4 -3.8,-1.8 -7.5,-3.7 -11.3,-5.6 -7.5,-3.8 -14.9,-7.4 -22.3,-11.2 -7.3,-3.8 -14.6,-7.6 -21.9,-11.4 -3.6,-1.9 -7.2,-3.8 -10.8,-5.7 -3.6,-1.9 -7.1,-3.9 -10.7,-5.8 -28.4,-15.5 -55.8,-31.1 -81.9,-47.4 -52.4,-32.1 -99.7,-66.5 -140.7,-102.3 -41,-35.8 -75.6,-73.2 -103.6,-110.4 -28,-37 -49.2,-73.8 -65.1,-107.8 -2.1,-4.2 -3.9,-8.5 -5.7,-12.6 -1.8,-4.2 -3.6,-8.2 -5.3,-12.3 -1.6,-4.1 -3.2,-8.1 -4.7,-12 -0.8,-2 -1.5,-3.9 -2.3,-5.9 -0.7,-2 -1.4,-3.9 -2.1,-5.8 -1.4,-3.9 -2.7,-7.6 -4,-11.3 -0.3,-0.9 -0.6,-1.9 -1,-2.8 -0.3,-0.9 -0.6,-1.9 -0.9,-2.8 -0.6,-1.8 -1.1,-3.6 -1.7,-5.4 -1.1,-3.6 -2.2,-7.1 -3.3,-10.6 -1,-3.5 -1.9,-6.9 -2.8,-10.2 -5.8,-21.3 -9.7,-39.6 -12.3,-54.5 -0.7,-3.8 -1.2,-7.3 -1.7,-10.6 -0.4,-2.8 -0.8,-5.4 -1.2,-7.8 12.9,-12.3 24.6,-25.3 16.6,-42.8 -6,-13 -4.4,-36.6 9.3,-32.4 6.2,1.9 8.5,9.2 10.1,15.4 32.2,120.8 143.5,201.2 251.6,262.7 38.7,22 78,43 117.8,62.8 72.1,35.9 146,68.2 221.9,94.9 58.2,20.5 117.5,37.6 176.8,54.7 54.4,15.7 108.9,31.5 163.3,47.2 52.8,15.3 108.7,30.6 161.8,16.5 23.7,-6.3 45.6,-18.2 69.2,-24.7 47.9,-13.3 98.9,-3.5 147.7,6.3 75.6,15.2 151.2,30.4 225.8,49.6 27.9,7.1 56.3,14.9 85,12.5 14,-1.2 27.9,-4.7 41.8,-6.7 1.6,1.8 3.1,3.5 4.5,5.2 4.9,5.9 8.6,11.4 11.2,16.1 0.7,1.2 1.2,2.3 1.8,3.4 0.5,1.1 1.1,2 1.4,3 0.4,1 0.8,1.8 1.1,2.7 0.3,0.8 0.6,1.5 0.8,2.2 0.3,1 0.6,1.8 0.8,2.4 1.8,-0.5 2.8,-0.8 3.1,-0.9 -0.3,0.1 -1.3,0.5 -3,1.1 0.2,0.7 0.4,1.2 0.4,1.4 -0.1,-0.2 -0.3,-0.7 -0.5,-1.4 -0.3,0.1 -0.5,0.2 -0.8,0.3 -1.3,0.5 -3,1 -4.9,1.7 -1,0.3 -2,0.7 -3.2,1 -1.1,0.3 -2.4,0.7 -3.6,1.1 -5.1,1.5 -11.5,3.2 -18.9,4.8 -7.5,1.5 -16.1,2.9 -25.7,3.7 -9.6,0.8 -20.2,0.9 -31.5,-0.1 -11.3,-1 -23.3,-3.1 -35.6,-6.4 -6.2,-1.7 -12.4,-3.6 -18.7,-5.6 -6.3,-2.1 -12.7,-4.4 -19.2,-6.8 -12.9,-4.8 -26.1,-10 -39.9,-14.2 -13.8,-4.2 -27.4,-7.1 -40.7,-7.5 -6.6,-0.2 -13.1,0.2 -19.3,1.1 -6.3,1 -12.2,2.5 -18,4.3 -1.4,0.5 -2.8,1 -4.2,1.5 -0.7,0.3 -1.4,0.5 -2.1,0.8 -0.7,0.3 -1.4,0.6 -2,0.9 -1.3,0.5 -2.5,1.1 -3.8,1.6 -1.5,0.6 -2.9,1.2 -4.3,1.9 -2.2,0.9 -4.4,1.8 -6.6,2.7 1,-0.1 2.2,-0.2 3.3,-0.3 2.9,-0.3 6.2,-0.4 9.9,-0.6 1.8,-0.1 3.7,-0.1 5.8,-0.1 2,0 4.1,-0.1 6.3,0 0.2,0 0.5,0 0.7,0 8.5,0.2 18.3,1 29,2.6 11,1.7 23,4.3 35.6,7.8 12.6,3.5 25.9,7.9 39.7,12.8 3.4,1.2 6.9,2.4 10.4,3.7 24.7,8.7 51,18.2 79,24 2,0.4 4,0.8 6,1.2 2,0.4 4,0.8 6,1.1 2,0.3 4,0.6 5.9,1 2,0.3 3.9,0.5 5.9,0.8 1,0.1 2,0.3 2.9,0.4 1,0.1 2,0.1 3,0.2 2,0.1 3.9,0.3 5.9,0.4 3.9,0.3 7.8,0.5 11.6,0.8 1.9,0.2 3.8,0.2 5.8,0.3 1.9,0.1 3.8,0.2 5.7,0.2 3.8,0.1 7.6,0.3 11.3,0.5 7.4,0.3 14.7,0.3 21.9,0.5 7.1,0.2 14.1,0.2 20.8,0.3 2.1,0 4.2,0.1 6.3,0.1 h 1.1 c 0,0 0.1,0 0.1,0 v 0.1 0.3 l 0.1,0.5 0.4,2.1 c 0.2,1 0.4,2 0.6,2.9 0.1,0.9 0.2,1.7 0.2,2.6 -0.2,0.4 -0.1,1.3 -0.2,2.1 z"/><path id="path67" fill="#3a5fa3" d="m 1955.8,975.4 c -0.1,1.7 0,3.4 -0.3,5.1 -0.1,0.8 -0.2,1.7 -0.4,2.5 -0.2,0.8 -0.4,1.6 -0.6,2.4 -0.1,0.4 -0.2,0.8 -0.3,1.2 l -0.4,1.2 c -0.3,0.8 -0.6,1.5 -0.8,2.3 -1.4,2.9 -2.9,5.7 -4.8,8.1 -1.5,1.9 -3,3.7 -4.7,5.3 -1.1,1.1 -2.1,2.1 -3.3,3 0.1,-0.1 0.3,-0.1 0.4,-0.2 -0.1,0.1 -0.3,0.1 -0.4,0.2 -1.5,1.3 -3,2.5 -4.6,3.6 -8.9,6.4 -17.9,10.5 -25.7,14.1 -4.6,2 -8.9,3.8 -12.7,5.4 -1.5,0.8 -3.1,1.6 -4.7,2.4 -2.5,1.2 -5,2.5 -7.7,3.8 -2.6,1.3 -5.4,2.7 -8.2,4.1 -2.8,1.4 -5.8,2.8 -8.8,4.2 -3,1.4 -6.1,2.9 -9.3,4.4 -3.2,1.4 -6.5,2.9 -9.9,4.4 -6.7,3.1 -13.9,6 -21.3,9.2 -3.7,1.6 -7.6,3.1 -11.5,4.6 -3.9,1.5 -7.9,3.1 -12.1,4.7 -4.1,1.5 -8.3,3 -12.6,4.5 -0.7,0.2 -1.3,0.5 -2,0.7 -143.3,-23.1 -288.3,-35.5 -433.4,-37 -74.4,-0.8 -149.2,1.3 -222.8,-9.1 C 1047.5,1018.5 965.4,990 885.2,958.2 784.7,918.3 686.3,873 590.7,822.5 520.7,785.5 451,744.9 397,687.1 344.8,631.3 314,560.7 277.1,494.9 c -18.9,-33.7 -39.2,-66.3 -64.5,-95.6 -2.8,-3.3 -7.1,-7.2 -11.8,-11.5 -0.7,-3.8 -1.2,-7.3 -1.7,-10.6 -0.6,-3.9 -1.2,-7.5 -1.7,-10.7 0,-0.2 -0.1,-0.4 -0.1,-0.6 -0.4,-3.4 -0.8,-6.5 -1.1,-9.2 -0.6,-5.4 -1.1,-9.4 -1.4,-11.8 0,-0.2 -0.1,-0.4 -0.1,-0.6 -1.8,-1.5 -3.7,-3.1 -5.8,-4.7 -1.5,-1.2 -3,-2.3 -4.6,-3.5 4.4,-2 10.2,-0.1 16.2,8.7 36.7,53.1 84.8,112.9 133.6,155.8 31.7,27.8 71,45.2 104.8,70.4 31.6,23.6 58,53.8 90.1,76.7 34.5,24.5 74.5,39.9 114.4,53.9 99.2,34.7 203.3,63.5 287.1,126.9 0.1,0 17.1,-7.7 19.2,-8.6 8.5,-3.4 17,-6.9 26.3,-7.5 2.5,-0.2 5.1,-0.1 7.6,-0.8 20.2,-5.5 0,-32.8 -2.2,-44.5 -0.1,-0.4 -0.1,-0.8 0.1,-1.1 0.2,-0.2 0.4,-0.3 0.7,-0.4 2.4,-0.9 5,-1.2 7.5,-1 4.3,0.4 8.6,2.3 11.6,5.5 6,6.5 13,11.6 21.8,13.8 7.1,1.7 14.6,0.6 21.9,-0.2 11.2,-1.3 23,-2.1 33.4,2.2 9.3,3.8 17.1,11.4 26.9,13.4 14.3,3 27.9,-6.5 41.5,-11.8 2.1,-0.8 4.3,-1.5 6.5,-1.5 2.8,0.1 5.5,1.6 7.9,3 9.1,5.4 17.3,11.8 26.1,17.2 2.5,1.5 5.2,2.6 7.9,3.5 20.1,6.6 40.1,-1.7 60.5,-2.1 3.1,-0.1 6.2,0 9.3,0.3 19.2,1.4 37.9,8.3 53.7,19.4 8.1,5.8 19.1,14.1 23.4,23.4 4.6,9.8 7.3,21.5 11.5,31.8 8.2,-10.5 24.8,-12.8 37,-15.4 43.5,-9.4 89.5,1.1 131.9,11 9,2.1 17.9,4.2 26.9,6.3 25.3,5.9 50.5,11.8 75.7,17.8 5,1.2 10,2.3 15,3.5 38.2,9 76.5,17.9 114.7,26.9 24.7,8.7 51,18.2 79,24 2,0.4 4,0.8 6,1.2 2,0.4 4,0.8 6,1.1 2,0.3 4,0.6 5.9,1 2,0.3 3.9,0.5 5.9,0.8 1,0.1 2,0.3 2.9,0.4 1,0.1 2,0.1 3,0.2 2,0.1 3.9,0.3 5.9,0.4 3.9,0.3 7.8,0.5 11.6,0.8 1.9,0.2 3.8,0.2 5.8,0.3 1.9,0.1 3.8,0.2 5.7,0.2 3.8,0.1 7.6,0.3 11.3,0.5 7.4,0.3 14.7,0.3 21.9,0.5 7.1,0.2 14.1,0.2 20.8,0.3 2.1,0 4.2,0.1 6.3,0.1 h 1.1 c 0,0 0.1,0 0.1,0 v 0.1 0.3 l 0.1,0.5 0.4,2.1 c 0.2,1 0.4,2 0.6,2.9 0.1,0.9 0.2,1.7 0.2,2.6 0.5,0.8 0.6,1.7 0.5,2.5 z"/><path id="path69" fill="#97c4e8" d="m 1940.4,1006.5 c 0.1,-0.1 0.3,-0.1 0.4,-0.2 -0.2,0 -0.3,0.1 -0.4,0.2 -1.5,1.3 -3.1,2.5 -4.6,3.6 -8.9,6.4 -17.9,10.5 -25.7,14.1 -4.6,2 -8.9,3.8 -12.7,5.4 -1.5,0.8 -3.1,1.6 -4.7,2.4 -2.5,1.2 -5,2.5 -7.7,3.8 -2.6,1.3 -5.4,2.7 -8.2,4.1 -2.8,1.4 -5.8,2.8 -8.8,4.2 -3,1.4 -6.1,2.9 -9.3,4.4 -3.2,1.4 -6.5,2.9 -9.9,4.4 -6.7,3.1 -13.9,6 -21.3,9.2 -3.7,1.6 -7.6,3.1 -11.5,4.6 -3.9,1.5 -7.9,3.1 -12.1,4.7 -4.1,1.5 -8.3,3 -12.6,4.5 -2.2,0.8 -4.3,1.6 -6.5,2.3 -2.2,0.7 -4.4,1.4 -6.7,2.2 -4.5,1.5 -9.1,3 -13.7,4.5 -4.7,1.4 -9.5,2.8 -14.3,4.2 -4.8,1.5 -9.8,2.8 -14.8,4.1 -2.5,0.7 -5.1,1.3 -7.6,2 -2.5,0.7 -5.1,1.4 -7.7,1.9 -5.2,1.2 -10.5,2.5 -15.9,3.7 -1.3,0.3 -2.7,0.6 -4,0.9 -1.4,0.3 -2.7,0.6 -4.1,0.8 -2.7,0.6 -5.5,1.1 -8.3,1.7 -11.1,2.4 -22.6,4.3 -34.3,6.4 -2.9,0.5 -5.9,0.9 -8.9,1.4 -3,0.5 -6,0.9 -9,1.4 -6,0.9 -12.1,1.9 -18.3,2.5 -6.2,0.8 -12.5,1.5 -18.8,2.3 -3.2,0.4 -6.3,0.8 -9.5,1.2 -3.2,0.4 -6.4,0.6 -9.7,0.9 -6.5,0.6 -13,1.1 -19.6,1.7 -3.3,0.3 -6.6,0.6 -10,0.9 -3.3,0.2 -6.7,0.4 -10.1,0.6 -6.8,0.4 -13.6,0.8 -20.4,1.2 -1.7,0.1 -3.4,0.2 -5.2,0.3 -1.7,0.1 -3.5,0.1 -5.2,0.2 -3.5,0.1 -7,0.2 -10.5,0.3 -7,0.2 -14.1,0.4 -21.2,0.6 -7.1,0 -14.3,0 -21.5,0 -3.6,0 -7.3,0 -10.9,0 -1.8,0 -3.7,0 -5.5,0 -1.8,-0.1 -3.7,-0.1 -5.5,-0.2 -7.3,-0.2 -14.8,-0.4 -22.2,-0.7 -3.7,-0.1 -7.5,-0.2 -11.2,-0.4 -3.8,-0.2 -7.5,-0.4 -11.3,-0.6 -7.6,-0.4 -15.2,-0.9 -22.8,-1.3 -7.6,-0.6 -15.3,-1.3 -23.1,-1.9 -3.9,-0.3 -7.8,-0.6 -11.7,-1 -2,-0.2 -3.9,-0.3 -5.9,-0.6 -1.9,-0.2 -3.9,-0.4 -5.9,-0.6 -7.8,-0.8 -15.7,-1.7 -23.6,-2.6 -4,-0.4 -7.9,-0.9 -11.9,-1.5 -4,-0.5 -8,-1.1 -12,-1.6 -4,-0.5 -8,-1.1 -12,-1.6 -2,-0.3 -4,-0.5 -6,-0.8 -2,-0.3 -4,-0.6 -6,-1 -8.1,-1.3 -16.2,-2.5 -24.3,-3.8 -32.5,-5.5 -65.6,-11.8 -99,-19.5 -4.2,-0.9 -8.4,-1.9 -12.6,-2.8 -4.2,-1 -8.4,-2.1 -12.6,-3.1 -8.4,-2.1 -16.8,-4.2 -25.3,-6.3 -16.8,-4.6 -33.9,-8.9 -50.8,-14 -4.3,-1.2 -8.5,-2.5 -12.8,-3.7 -2.1,-0.6 -4.3,-1.3 -6.4,-1.9 -2.1,-0.7 -4.3,-1.3 -6.4,-2 -8.5,-2.7 -17.1,-5.3 -25.6,-8 -8.5,-2.8 -17.1,-5.7 -25.6,-8.5 -4.3,-1.5 -8.6,-2.8 -12.9,-4.3 -4.3,-1.5 -8.6,-3 -12.8,-4.5 -4.3,-1.5 -8.6,-3 -12.8,-4.5 -2.1,-0.8 -4.3,-1.5 -6.4,-2.3 -2.1,-0.8 -4.2,-1.6 -6.3,-2.4 -8.4,-3.2 -16.9,-6.3 -25.2,-9.4 -16.6,-6.6 -33.2,-12.9 -49.3,-19.8 -16.3,-6.6 -32.2,-13.7 -48,-20.6 -7.8,-3.6 -15.6,-7.1 -23.4,-10.7 -1.9,-0.9 -3.9,-1.8 -5.8,-2.7 -1.9,-0.9 -3.8,-1.8 -5.8,-2.7 -3.8,-1.8 -7.7,-3.6 -11.5,-5.5 -3.8,-1.8 -7.6,-3.6 -11.4,-5.4 -3.8,-1.8 -7.5,-3.7 -11.3,-5.6 -7.5,-3.8 -14.9,-7.4 -22.3,-11.2 -7.3,-3.8 -14.6,-7.6 -21.9,-11.4 -3.6,-1.9 -7.2,-3.8 -10.8,-5.7 -3.6,-1.9 -7.1,-3.9 -10.7,-5.8 -28.4,-15.5 -55.8,-31.1 -81.9,-47.4 -52.4,-32.1 -99.7,-66.5 -140.7,-102.3 -41,-35.8 -75.6,-73.2 -103.6,-110.4 -28,-37 -49.2,-73.8 -65.1,-107.8 -2.1,-4.2 -3.9,-8.5 -5.7,-12.6 -1.8,-4.2 -3.6,-8.2 -5.3,-12.3 -1.6,-4.1 -3.2,-8.1 -4.7,-12 -0.8,-2 -1.5,-3.9 -2.3,-5.9 -0.7,-2 -1.4,-3.9 -2.1,-5.8 -1.4,-3.9 -2.7,-7.6 -4,-11.3 -0.3,-0.9 -0.6,-1.9 -1,-2.8 -0.3,-0.9 -0.6,-1.9 -0.9,-2.8 -0.6,-1.8 -1.1,-3.6 -1.7,-5.4 -1.1,-3.6 -2.2,-7.1 -3.3,-10.6 -1,-3.5 -1.9,-6.9 -2.8,-10.2 -7.3,-26.6 -11.5,-48.6 -14,-65.1 -0.6,-3.9 -1.2,-7.5 -1.7,-10.7 5.4,4.4 11,9.9 17.1,16.3 41.7,44 55.5,105.8 93.6,150.5 30.2,35.4 60.5,73.9 108.9,83.1 6.8,1.3 13.6,2.1 20.3,3.8 6.5,1.7 12.7,4.3 18.4,7.8 10.5,6.4 19.2,15.3 27.7,24.2 22.8,23.7 48.7,42.7 75.4,61.7 29.1,20.7 45.2,14.1 76.3,25.5 16.6,6.1 23,29 40.1,33.6 12.2,3.2 28.3,-3.3 36,6.7 18.9,24.4 52.3,37.2 80.6,53.3 35.1,20 61.5,51.7 96.3,70.8 26.6,14.5 61.5,18.8 90.9,28.3 23.3,7.5 46.8,14.6 70.3,21.4 22.9,6.5 47.3,15.7 71.3,15.4 -3.2,-2.5 -0.9,-8.2 2.9,-9.4 3.8,-1.3 8,0.3 11.7,1.8 16.4,6.8 32.8,13.5 49.2,20.3 3.8,-5.2 -7.4,-12.8 -3.3,-17.8 1.8,-2.2 5.2,-1.7 8,-1.1 25.5,6 49.1,15 73.6,23.1 10.1,3.3 20.9,2.7 31.5,3.4 6.7,0.4 13.4,1.5 19.9,3 2.6,0.6 5.3,1.3 7.9,1 2.7,-0.3 5.4,-1.9 6.1,-4.4 1.2,-4.1 -2.8,-7.7 -6.4,-10 -8.8,-5.4 -18.3,-9.6 -28.2,-12.5 -2.4,-0.7 -5.1,-1.5 -6.5,-3.6 -9,-12.8 5.8,-18.7 14.9,-18.4 17.2,0.5 34.6,2.8 51.7,4.6 2.1,0.2 4.3,0.4 6.4,-0.1 2.1,-0.5 4.1,-1.9 4.7,-3.9 1.2,-3.8 -2.5,-7.2 -5.9,-9.2 -3.4,-2.1 -7.3,-4.7 -7.1,-8.7 0.2,-3.6 3.8,-5.9 6.9,-7.6 5.7,-3.1 8.2,-8.7 12.6,-13.2 7.6,-7.9 19.8,-15.7 30.3,-18.7 35,-10 66.7,-2 98,14.4 27.3,14.3 57.3,33.9 88.6,42.8 34.7,9.9 68.4,7.8 103.7,18.1 81.2,23.6 164.6,45.6 249.9,40.8 0.5,0 1.1,-0.1 1.6,-0.1 -0.6,1.3 -1.6,2.3 -2.7,3.3 z"/><path id="path71" fill="#4078b5" d="m 1462.3,718.2 c -88.6,-42.3 -182.4,-73.5 -278.5,-93 -58.8,-12 -181.3,-48.7 -233.5,-7.6 77.4,27.9 169.3,39.6 250.3,60.7 44.4,11.6 89.1,22.7 134.5,30.1 34.5,5.7 98,-4.1 127.2,9.8 z"/><path id="path73" fill="#4b99c4" d="m 1812.5,821.3 c -7.2,-0.9 -14.4,-2.1 -21.5,-3.8 -28.2,-6.6 -54.7,-19 -82,-28.6 -54.3,-19.1 -112.1,-27.7 -165.2,-50 -29.8,-12.5 -57.6,-29 -86.4,-43.5 -62.6,-31.5 -129.7,-53.1 -197.8,-69.4 -121.7,-29.1 -246.8,-41.4 -371.3,-53.5 -31.5,-3.1 -63.4,-6.2 -94.8,-2.2 -13.9,1.7 -27.8,4.9 -41.8,3.2 -13.3,-1.6 -25.6,-7.3 -37.6,-13 -24.5,-11.5 -48.9,-23.1 -73.4,-34.7 -9.3,-4.4 -15.1,-9 -18.3,-13.9 h 2 c 1.5,0 3.1,0 4.7,0.1 3.2,0.2 6.4,0.3 9.8,0.6 13.4,1.1 27.9,3.8 42.8,7.9 14.9,4.2 28.4,9.2 40.4,14.2 11.6,4.8 21.8,9.5 30.4,13.6 1.1,0 2.3,0 3.4,0.1 3.1,0 6.2,0.1 9.4,0.1 3.1,0.1 6.3,0.2 9.4,0.2 50.2,1.1 101.9,3.1 154.2,7.3 52.4,4.1 103.3,10.5 152.1,18.3 48.9,7.8 95.7,17 140.2,26.5 11.1,2.4 22.1,4.8 32.9,7.1 5.4,1.1 10.8,2.5 16.1,3.7 2.7,0.6 5.3,1.3 8,1.9 1.3,0.3 2.6,0.6 4,0.9 1.3,0.3 2.6,0.7 3.9,1 5.2,1.3 10.4,2.7 15.5,4 1.3,0.3 2.6,0.7 3.8,1 1.3,0.4 2.5,0.7 3.8,1.1 2.5,0.7 5.1,1.4 7.6,2.1 2.5,0.7 5,1.4 7.5,2.1 2.5,0.7 5,1.4 7.4,2.2 4.9,1.5 9.8,3 14.6,4.5 38.7,11.9 74,25.2 105.8,38.4 31.8,13.3 59.8,26.8 84,39.4 3,1.6 6,3.1 8.9,4.7 1.5,0.8 2.9,1.5 4.3,2.3 1.4,0.8 2.8,1.6 4.2,2.3 1.6,0.9 3.2,1.8 4.8,2.7 7.2,2.4 26.4,9 53.2,18.1 18.6,6.4 40.9,13.9 65.4,22.7 24.5,8.8 51.1,18.7 78,30.4 20.6,8.8 39.9,18.2 57.6,27.9 z"/><path id="path75" fill="#4078b5" d="m 184.6,336.2 c 0,0 -0.1,-0.1 0,0 -6.7,-5 -14.3,-10 -22.9,-15.1 -10.6,-6.4 -22.5,-12.9 -35.4,-19.9 -12.8,-7 -26.6,-14.5 -40.4,-23.6 C 79,273 72.2,268 65.6,262.4 59,256.8 52.7,250.5 47.2,243.3 c -2.8,-3.6 -5.3,-7.4 -7.7,-11.3 -1.2,-2 -2.2,-4 -3.3,-6.1 -1,-2.1 -2,-4.2 -2.8,-6.4 -1.8,-4.3 -3.3,-8.8 -4.4,-13.4 -1.1,-4.6 -2,-9.2 -2.5,-13.9 -0.3,-2.4 -0.4,-4.7 -0.6,-7 0,-1.2 -0.1,-2.3 -0.1,-3.5 v -1 c 17.8,3.4 27.6,23.4 39.9,37.5 17.9,20.4 45.1,30 71.4,36.9 17.5,4.6 36.9,9.6 47.1,24.6 13.1,19.3 10.9,40 0.4,56.5 z"/><path id="path77" fill="#4078b5" d="m 373,230.6 -0.1,2.4 c -0.2,6.4 -2,12.5 -4.4,18 -1.2,2.8 -2.6,5.4 -4.1,7.9 -0.8,1.2 -1.5,2.4 -2.3,3.6 -0.8,1.2 -1.6,2.4 -2.5,3.5 -3.5,4.5 -7.4,8.3 -11.3,11.8 -7.9,6.9 -15.7,12.4 -22.2,18.1 -3.3,2.9 -6.2,5.7 -8.7,8.7 -1.2,1.4 -2.3,2.8 -3.2,4.2 -1.1,-7.7 -2.4,-15.3 -5.6,-19.6 -1.7,-2.3 -3.8,-4.5 -4.9,-7.2 -2.5,-6.5 1.4,-13.6 5.9,-18.9 9.1,-10.8 21,-19.1 28.8,-30.9 8.4,-12.7 11.1,-28.2 10.2,-43.6 3.3,2.7 6.5,5.6 9.4,8.6 2.3,2.5 4.5,5.1 6.3,7.8 1.9,2.8 3.5,5.7 4.9,8.8 0.3,0.8 0.6,1.5 1,2.3 0.3,0.8 0.5,1.6 0.8,2.4 l 0.4,1.2 0.3,1.2 c 0.2,0.8 0.4,1.6 0.6,2.4 0.2,1.6 0.6,3.2 0.6,4.9 0,0.8 0.1,1.6 0.1,2.4 z"/><path id="path79" fill="#3a51a3" d="m 1069.1,886.5 c 6.9,2.9 14,5.1 20.8,8 7.6,3.3 14.8,7.4 22.5,10.7 18.9,8.3 39.6,11.2 60.1,13.7 23.6,2.9 48.5,5.2 70.1,-4.6 -5.3,-2.9 -11.8,-0.4 -17.9,0.5 -7.5,1.1 -15.1,-0.4 -22.5,-1.9 -38,-7.7 -74.8,-20 -110.5,-35.1 -7.2,-3.1 -11.4,-7 -17.2,-11.8 -5.5,-4.4 -12.8,-7.4 -18.9,-11.2 -13.4,-8.2 -26.2,-17.5 -37.6,-28.4 -7.3,-6.9 -19.2,-16.8 -23,-26.2 10.4,36.4 37.3,71 74.1,86.3 z"/><path id="path81" fill="#3a68a3" d="m 1338,857.8 c -1.1,3.1 -3.6,5.5 -6.2,7.6 -20,15.8 -47.4,16.5 -72.3,21.8 -15.7,3.4 -31,8.9 -46.9,11.3 -27.1,4 -55.3,-1.6 -79.5,-14.6 -16.3,-8.8 -30.8,-20.7 -46.5,-30.4 -17,-10.5 -35.4,-18.5 -52.4,-29.1 -18.2,-11.3 -41.1,-29.5 -44.7,-52.2 -0.4,-2.5 -0.3,-5 0.3,-7.4 4.3,0.4 8.6,2.3 11.6,5.5 0.1,0.1 0.2,0.3 0.3,0.4 0,0 0,0 0.1,0.1 0.6,0.7 1.3,1.3 1.9,1.9 5.5,5.4 11.8,9.5 19.5,11.4 3.4,0.8 6.9,1 10.4,0.9 3.8,-0.1 7.7,-0.7 11.5,-1.1 11.2,-1.3 23,-2.1 33.4,2.2 9.3,3.8 17.1,11.4 26.9,13.4 14.3,3 27.9,-6.5 41.5,-11.8 2.1,-0.8 4.3,-1.5 6.5,-1.5 2.8,0.1 5.5,1.6 7.9,3 9.1,5.4 17.3,11.8 26.1,17.2 2.5,1.5 5.2,2.6 7.9,3.5 20.1,6.6 40.1,-1.7 60.5,-2.1 3.1,-0.1 6.2,0 9.3,0.3 2.4,0.8 4.8,1.5 7.2,2.2 8.6,2.4 17.5,3.9 25.8,7.4 1.4,0.6 2.7,1.2 4.1,1.9 7.8,3.9 14.8,9.3 21.6,14.8 1,0.8 2.1,1.7 3.1,2.5 6.7,5.3 13.9,12.9 11.1,20.9 z"/><path id="path83" fill="#3a71a3" d="m 1324,834.3 c -6.2,6.8 -13.6,12.7 -21.6,17.4 -18.5,11 -39.6,16.4 -60.6,21.3 -18,4.1 -36.2,7.9 -54.6,7.8 -18.4,-0.2 -37.3,-4.6 -52.1,-15.6 -11.7,-8.7 -20.3,-21.1 -32.2,-29.5 -14.5,-10.2 -32.5,-13.7 -49.6,-18.3 -17.1,-4.6 -34.9,-11.3 -45.6,-25.4 -4.2,-5.5 -7.1,-12.5 -6.3,-19.2 -0.1,0 -0.2,0 -0.2,0 0.1,-0.4 0.3,-0.9 0.4,-1.3 0,-0.3 0.1,-0.5 0.2,-0.8 0,0 0,0 0.1,0.1 0.6,0.7 1.3,1.3 1.9,1.9 5.5,5.4 11.8,9.5 19.5,11.4 3.4,0.8 6.9,1 10.4,0.9 3.8,-0.1 7.7,-0.7 11.5,-1.1 11.2,-1.3 23,-2.1 33.4,2.2 9.3,3.8 17.1,11.4 26.9,13.4 14.3,3 27.9,-6.5 41.5,-11.8 2.1,-0.8 4.3,-1.5 6.5,-1.5 2.8,0.1 5.5,1.6 7.9,3 9.1,5.4 17.3,11.8 26.1,17.2 2.5,1.5 5.2,2.6 7.9,3.5 20.1,6.6 40.1,-1.7 60.5,-2.1 3.1,-0.1 6.2,0 9.3,0.3 2.4,0.8 4.8,1.5 7.2,2.2 8.6,2.4 17.5,3.9 25.8,7.4 1.4,0.6 2.7,1.2 4.1,1.9 7.9,3.8 14.9,9.2 21.7,14.7 z"/><path id="path85" fill="#3a7aa3" d="m 1302.4,819.5 c -1.5,1.3 -3.1,2.5 -4.6,3.7 -33.4,25.8 -75.8,39.8 -118,39 -4.4,-0.1 -9,-0.4 -13.1,-2.1 -4.2,-1.8 -7.5,-5.1 -10.7,-8.4 -5.9,-5.9 -11.8,-11.9 -17.7,-17.8 -5.8,-5.8 -11.8,-11.8 -19.2,-15.3 -14.5,-7 -31.8,-3.8 -47.6,-7 -15.5,-3.5 -29.3,-13.3 -37.8,-26.7 3.8,-0.1 7.7,-0.7 11.5,-1.1 11.2,-1.3 23,-2.1 33.4,2.2 9.3,3.8 17.1,11.4 26.9,13.4 14.3,3 27.9,-6.5 41.5,-11.8 2.1,-0.8 4.3,-1.5 6.5,-1.5 2.8,0.1 5.5,1.6 7.9,3 9.1,5.4 17.3,11.8 26.1,17.2 2.5,1.5 5.2,2.6 7.9,3.5 20.1,6.6 40.1,-1.7 60.5,-2.1 3.1,-0.1 6.2,0 9.3,0.3 2.4,0.8 4.8,1.5 7.2,2.2 8.6,2.4 17.5,3.9 25.8,7.4 1.5,0.6 2.8,1.2 4.2,1.9 z"/></g></g><g id="Layer_1_1_" transform="matrix(0.2459954,-0.04456751,0.04456751,0.2459954,-13.816546,-26.767527)"><g id="g212"><path id="path90" fill="#262424" d="m 1941,1006.1 c -0.2,0.1 -0.4,0.2 -0.7,0.4 -2.3,1.2 -8.3,4.5 -17.7,9.7 -6.2,3.3 -13.8,7.5 -22.9,12.1 -0.8,0.4 -1.6,0.8 -2.4,1.2 -1.5,0.8 -3.1,1.6 -4.7,2.4 -2.5,1.2 -5,2.5 -7.7,3.8 -2.6,1.3 -5.4,2.7 -8.2,4.1 -2.8,1.4 -5.8,2.8 -8.8,4.2 -3,1.4 -6.1,2.9 -9.3,4.4 -3.2,1.4 -6.5,2.9 -9.9,4.4 -6.7,3.1 -13.9,6 -21.3,9.2 -3.7,1.6 -7.6,3.1 -11.5,4.6 -3.9,1.5 -7.9,3.1 -12.1,4.7 -4.1,1.5 -8.3,3 -12.6,4.5 -2.2,0.8 -4.3,1.6 -6.5,2.3 -2.2,0.7 -4.4,1.4 -6.7,2.2 -4.5,1.5 -9.1,3 -13.7,4.5 -4.7,1.4 -9.5,2.8 -14.3,4.2 -4.8,1.5 -9.8,2.8 -14.8,4.1 -2.5,0.7 -5.1,1.3 -7.6,2 -2.5,0.7 -5.1,1.4 -7.7,1.9 -5.2,1.2 -10.5,2.5 -15.9,3.7 -1.3,0.3 -2.7,0.6 -4,0.9 -1.4,0.3 -2.7,0.6 -4.1,0.8 -2.7,0.6 -5.5,1.1 -8.3,1.7 -11.1,2.4 -22.6,4.3 -34.3,6.4 -2.9,0.5 -5.9,0.9 -8.9,1.4 -3,0.5 -6,0.9 -9,1.4 -6,0.9 -12.1,1.9 -18.3,2.5 -6.2,0.8 -12.5,1.5 -18.8,2.3 -3.2,0.4 -6.3,0.8 -9.5,1.2 -3.2,0.4 -6.4,0.6 -9.7,0.9 -6.5,0.6 -13,1.1 -19.6,1.7 -3.3,0.3 -6.6,0.6 -10,0.9 -3.3,0.2 -6.7,0.4 -10.1,0.6 -6.8,0.4 -13.6,0.8 -20.4,1.2 -1.7,0.1 -3.4,0.2 -5.2,0.3 -1.7,0.1 -3.5,0.1 -5.2,0.2 -3.5,0.1 -7,0.2 -10.5,0.3 -7,0.2 -14.1,0.4 -21.2,0.6 -7.1,0 -14.3,0 -21.5,0 -3.6,0 -7.3,0 -10.9,0 -1.8,0 -3.7,0 -5.5,0 -1.8,-0.1 -3.7,-0.1 -5.5,-0.2 -7.3,-0.2 -14.8,-0.4 -22.2,-0.7 -3.7,-0.1 -7.5,-0.2 -11.2,-0.4 -3.8,-0.2 -7.5,-0.4 -11.3,-0.6 -7.6,-0.4 -15.2,-0.9 -22.8,-1.3 -7.6,-0.6 -15.3,-1.3 -23.1,-1.9 -3.9,-0.3 -7.8,-0.6 -11.7,-1 -2,-0.2 -3.9,-0.3 -5.9,-0.6 -1.9,-0.2 -3.9,-0.4 -5.9,-0.6 -7.8,-0.8 -15.7,-1.7 -23.6,-2.6 -4,-0.4 -7.9,-0.9 -11.9,-1.5 -4,-0.5 -8,-1.1 -12,-1.6 -4,-0.5 -8,-1.1 -12,-1.6 -2,-0.3 -4,-0.5 -6,-0.8 -2,-0.3 -4,-0.6 -6,-1 -8.1,-1.3 -16.2,-2.5 -24.3,-3.8 -32.5,-5.5 -65.6,-11.8 -99,-19.5 -4.2,-0.9 -8.4,-1.9 -12.6,-2.8 -4.2,-1 -8.4,-2.1 -12.6,-3.1 -8.4,-2.1 -16.8,-4.2 -25.3,-6.3 -16.8,-4.6 -33.9,-8.9 -50.8,-14 -4.3,-1.2 -8.5,-2.5 -12.8,-3.7 -2.1,-0.6 -4.3,-1.3 -6.4,-1.9 -2.1,-0.7 -4.3,-1.3 -6.4,-2 -8.5,-2.7 -17.1,-5.3 -25.6,-8 -8.5,-2.8 -17.1,-5.7 -25.6,-8.5 -4.3,-1.5 -8.6,-2.8 -12.9,-4.3 -4.3,-1.5 -8.6,-3 -12.8,-4.5 -4.3,-1.5 -8.6,-3 -12.8,-4.5 -2.1,-0.8 -4.3,-1.5 -6.4,-2.3 -2.1,-0.8 -4.2,-1.6 -6.3,-2.4 -8.4,-3.2 -16.9,-6.3 -25.2,-9.4 -16.6,-6.6 -33.2,-12.9 -49.3,-19.8 -16.3,-6.6 -32.2,-13.7 -48,-20.6 -7.8,-3.6 -15.6,-7.1 -23.4,-10.7 -1.9,-0.9 -3.9,-1.8 -5.8,-2.7 -1.9,-0.9 -3.8,-1.8 -5.8,-2.7 -3.8,-1.8 -7.7,-3.6 -11.5,-5.5 -3.8,-1.8 -7.6,-3.6 -11.4,-5.4 -3.8,-1.8 -7.5,-3.7 -11.3,-5.6 -7.5,-3.8 -14.9,-7.4 -22.3,-11.2 -7.3,-3.8 -14.6,-7.6 -21.9,-11.4 -3.6,-1.9 -7.2,-3.8 -10.8,-5.7 -3.6,-1.9 -7.1,-3.9 -10.7,-5.8 C 609.5,886 582.1,870.4 556,854.1 503.6,822 456.3,787.6 415.3,751.8 374.3,716 339.7,678.6 311.7,641.4 c -28,-37 -49.2,-73.8 -65.1,-107.8 -2.1,-4.2 -3.9,-8.5 -5.7,-12.6 -1.8,-4.2 -3.6,-8.2 -5.3,-12.3 -1.6,-4.1 -3.2,-8.1 -4.7,-12 -0.8,-2 -1.5,-3.9 -2.3,-5.9 -0.7,-2 -1.4,-3.9 -2.1,-5.8 -1.4,-3.9 -2.7,-7.6 -4,-11.3 -0.3,-0.9 -0.6,-1.9 -1,-2.8 -0.3,-0.9 -0.6,-1.9 -0.9,-2.8 -0.6,-1.8 -1.1,-3.6 -1.7,-5.4 -1.1,-3.6 -2.2,-7.1 -3.3,-10.6 -1,-3.5 -1.9,-6.9 -2.8,-10.2 -7.3,-26.6 -11.5,-48.6 -14,-65.1 -0.7,-4.1 -1.2,-7.9 -1.8,-11.3 -0.4,-3.4 -0.8,-6.5 -1.1,-9.2 -0.6,-5.4 -1.1,-9.4 -1.4,-11.8 0,-0.2 -0.1,-0.4 -0.1,-0.6 -0.1,-1 -0.2,-1.5 -0.2,-1.5 0,0.1 0.1,0.6 0.2,1.6 0.3,1.9 0.7,5.4 1.4,10.5 0.4,2.8 0.8,6.1 1.3,9.8 0.6,3.7 1.3,7.9 2.1,12.5 0.4,2.3 0.8,4.7 1.2,7.3 0.2,1.3 0.4,2.6 0.7,3.9 0.3,1.3 0.6,2.6 0.8,4 1.1,5.5 2.3,11.3 3.6,17.6 1.5,6.2 3.1,12.9 4.8,19.9 1.9,7 4,14.3 6.2,22 4.9,15.3 10.3,32.1 17.7,49.7 0.9,2.2 1.8,4.4 2.7,6.7 l 0.7,1.7 0.8,1.7 c 0.5,1.1 1,2.2 1.5,3.4 2,4.5 4.1,9.1 6.1,13.8 2.2,4.6 4.5,9.3 6.8,14 0.6,1.2 1.2,2.4 1.8,3.6 0.6,1.2 1.3,2.4 1.9,3.6 1.3,2.4 2.5,4.8 3.8,7.2 10.3,19.2 22.3,39.1 36.1,59.1 13.8,20 29.6,40.2 47.2,60.2 17.6,20 37.1,39.7 58.4,59.1 21.3,19.3 44.2,38.1 68.7,56.4 24.5,18.2 50.6,35.8 77.9,52.8 27.4,16.9 55.9,33.4 85.3,49.5 7.4,4 14.8,8 22.3,12 7.5,3.9 15.1,7.8 22.7,11.7 7.6,4 15.3,7.7 23,11.5 3.9,1.9 7.7,3.8 11.6,5.7 3.9,1.9 7.8,3.7 11.7,5.6 3.9,1.9 7.8,3.7 11.8,5.6 3.9,1.8 7.8,3.8 11.8,5.5 8,3.6 15.9,7.2 23.9,10.9 8,3.6 16.2,7 24.3,10.6 4.1,1.7 8.1,3.6 12.2,5.2 4.1,1.7 8.2,3.4 12.3,5.1 16.4,6.9 33.1,13.4 49.8,19.9 8.4,3.1 16.8,6.3 25.3,9.5 l 6.3,2.4 c 2.1,0.8 4.3,1.5 6.4,2.3 4.3,1.5 8.5,3 12.8,4.5 4.3,1.5 8.5,3 12.8,4.5 4.3,1.5 8.6,2.9 12.8,4.3 8.5,2.8 17,5.7 25.6,8.5 8.5,2.7 17.1,5.3 25.5,8 2.1,0.7 4.2,1.3 6.4,2 2.1,0.6 4.3,1.3 6.4,1.9 4.3,1.3 8.5,2.5 12.7,3.7 16.9,5.1 33.9,9.5 50.6,14.1 8.4,2.1 16.8,4.2 25.2,6.3 4.2,1 8.3,2.1 12.5,3.1 4.2,1 8.4,1.9 12.5,2.9 33.3,7.8 66.3,14.1 98.6,19.8 8.1,1.3 16.2,2.6 24.2,3.9 2,0.3 4,0.7 6,1 2,0.3 4,0.6 6,0.8 4,0.5 8,1.1 12,1.6 4,0.6 7.9,1.1 11.9,1.6 4,0.5 7.9,1.1 11.9,1.5 7.9,0.9 15.8,1.8 23.6,2.7 1.9,0.2 3.9,0.4 5.8,0.7 1.9,0.2 3.9,0.4 5.8,0.6 3.9,0.3 7.8,0.7 11.6,1 7.7,0.7 15.4,1.3 23,2 7.6,0.5 15.2,0.9 22.8,1.4 3.8,0.2 7.5,0.5 11.3,0.7 3.7,0.3 7.5,0.3 11.2,0.4 7.4,0.3 14.8,0.5 22.1,0.8 1.8,0.1 3.7,0.1 5.5,0.2 1.8,0 3.7,0 5.5,0 3.6,0 7.3,0 10.9,0.1 7.2,0.1 14.4,0.1 21.5,0.1 7.1,-0.2 14.1,-0.3 21.1,-0.4 3.5,-0.1 7,-0.2 10.4,-0.2 1.7,0 3.4,-0.1 5.2,-0.1 1.7,-0.1 3.4,-0.2 5.1,-0.3 6.9,-0.3 13.6,-0.7 20.4,-1 3.4,-0.2 6.7,-0.3 10.1,-0.5 3.3,-0.2 6.6,-0.5 9.9,-0.8 6.6,-0.5 13.1,-1.1 19.6,-1.6 3.2,-0.3 6.4,-0.5 9.6,-0.8 3.2,-0.4 6.4,-0.7 9.5,-1.1 6.3,-0.7 12.6,-1.4 18.7,-2.1 6.2,-0.6 12.3,-1.6 18.3,-2.4 3,-0.4 6,-0.9 9,-1.3 3,-0.4 5.9,-0.8 8.9,-1.3 11.7,-2 23.2,-3.8 34.2,-6.1 2.8,-0.5 5.5,-1.1 8.3,-1.6 1.4,-0.3 2.7,-0.5 4.1,-0.8 1.4,-0.3 2.7,-0.6 4,-0.9 5.4,-1.2 10.7,-2.4 15.9,-3.6 2.6,-0.6 5.2,-1.2 7.7,-1.9 2.5,-0.7 5.1,-1.3 7.6,-1.9 5,-1.3 10,-2.5 14.8,-4 4.8,-1.4 9.6,-2.8 14.3,-4.1 4.7,-1.4 9.2,-2.9 13.7,-4.3 2.3,-0.7 4.5,-1.4 6.7,-2.1 2.2,-0.7 4.4,-1.5 6.5,-2.2 4.3,-1.5 8.5,-3 12.7,-4.4 4.1,-1.5 8.1,-3.1 12.1,-4.6 3.9,-1.5 7.8,-2.9 11.5,-4.5 7.5,-3.1 14.7,-5.9 21.4,-9 3.4,-1.5 6.7,-2.9 9.9,-4.3 3.2,-1.5 6.3,-2.9 9.3,-4.3 2.5,-1.1 4.9,-2.3 7.2,-3.3 0.3,-0.2 0.7,-0.3 1,-0.5 0,0 0,0 0,0 0.2,-0.1 0.4,-0.2 0.6,-0.3 2.8,-1.4 5.6,-2.7 8.2,-4 1.7,-0.8 3.4,-1.6 5,-2.4 0,0 0.1,0 0.1,-0.1 0.9,-0.4 1.7,-0.8 2.6,-1.3 2.5,-1.2 4.8,-2.4 7.1,-3.6 9.2,-4.6 16.8,-8.7 23,-11.9 9.6,-5.1 15.7,-8.3 17.9,-9.5 1.1,-0.5 1.4,-0.6 1.5,-0.7 z"/><path id="path92" fill="#262424" d="m 981.5,766.5 c 0,0 0.2,-0.1 0.7,-0.2 0.5,-0.1 1.2,-0.3 2.2,-0.5 0.5,-0.1 1,-0.2 1.6,-0.3 0.6,-0.1 1.3,-0.1 2,-0.2 1.5,0 3.2,0 5.1,0.6 1.9,0.5 3.9,1.6 5.8,3.1 1.9,1.5 3.8,3.4 5.8,5.4 2,2 4.3,4 7,5.7 1.4,0.8 2.8,1.6 4.4,2.2 1.6,0.6 3.3,1.1 5,1.6 v 0 h 0.1 c 4.2,1.3 9,1.6 14.2,0.9 5.2,-0.7 10.6,-2.2 16.9,-2.9 0.8,-0.1 1.6,-0.2 2.4,-0.2 0.8,0 1.6,0 2.4,-0.1 0.8,0 1.6,0.1 2.5,0.1 0.8,0 1.7,0.2 2.5,0.3 0.4,0.1 0.8,0.1 1.3,0.2 l 1.2,0.3 1.2,0.3 c 0.2,0 0.6,0.1 0.3,0.1 l 0.6,0.1 c 0.8,0.2 1.7,0.3 2.6,0.5 0.8,0.3 1.7,0.5 2.5,0.8 6.7,2.4 12.6,6.6 18.6,10.3 3,1.8 6.2,3.6 9.4,4.7 0.8,0.3 1.7,0.5 2.5,0.7 0.8,0.2 1.7,0.3 2.5,0.5 0.9,0.1 1.7,0.1 2.6,0.2 0.9,0 1.8,-0.1 2.7,-0.1 3.6,-0.3 7.1,-1.3 10.6,-2.8 3.5,-1.5 6.9,-3.4 10.5,-5.4 3.6,-2 7.4,-4 11.6,-5.5 l 1.6,-0.5 c 0.5,-0.2 1.1,-0.3 1.6,-0.4 l 1.6,-0.4 c 0.5,-0.1 1.1,-0.2 1.7,-0.3 1.1,-0.2 2.3,-0.4 3.4,-0.4 l 1.7,-0.1 h 0.5 c 0.2,0 0.5,0 0.7,0.1 l 0.9,0.2 c 4.6,0.8 9,2.6 12.9,4.9 4,2.3 7.6,5 11.1,7.7 5.9,4.6 11.5,9 17.6,11.7 0.8,0.3 1.5,0.7 2.3,1 0.8,0.3 1.6,0.5 2.3,0.8 l 0.2,0.1 h 0.1 l 0.6,0.1 1.2,0.2 c 0.8,0.1 1.6,0.1 2.5,0.2 3.3,0.1 6.6,-0.1 9.9,-0.5 6.6,-0.9 13.2,-2.6 19.8,-3.7 3.3,-0.6 6.7,-1 10,-1.1 0.8,0 1.7,0 2.5,-0.1 0.8,0 1.6,0 2.5,0.1 1.6,0 3.2,0.2 4.8,0.3 12.8,1 24.6,4 35.2,7.9 10.6,4 19.9,9 27.7,14.6 3.9,2.8 7.4,5.8 10.6,8.8 0.8,0.8 1.5,1.5 2.3,2.3 0.4,0.4 0.7,0.8 1.1,1.1 0.3,0.4 0.7,0.8 1,1.2 0.7,0.8 1.4,1.5 2,2.3 0.6,0.8 1.2,1.6 1.8,2.3 4.7,6.1 7.8,12.3 9.7,17.6 2,5.3 2.9,9.9 3.3,13.3 0.1,0.8 0.2,1.6 0.3,2.3 0.1,0.7 0.1,1.3 0.1,1.9 0.1,1.1 0.1,1.9 0.2,2.4 0.1,1 -0.1,0.3 -0.4,-2 -0.1,-0.6 -0.2,-1.2 -0.3,-2 -0.1,-0.8 -0.3,-1.6 -0.5,-2.5 -0.3,-1.9 -0.9,-4.1 -1.6,-6.6 -1.5,-5 -4.1,-11.1 -8.4,-17.5 -0.5,-0.8 -1.1,-1.6 -1.7,-2.4 -0.6,-0.8 -1.2,-1.6 -1.8,-2.4 -1.4,-1.6 -2.7,-3.2 -4.2,-4.8 -3,-3.2 -6.5,-6.3 -10.4,-9.3 -7.8,-5.9 -17.4,-11.3 -28.2,-15.4 -10.8,-4.1 -23,-7.1 -35.9,-8.1 -1.6,-0.2 -3.2,-0.2 -4.9,-0.3 -1.6,0 -3.3,-0.1 -4.9,0 -3.2,0 -6.5,0.5 -9.8,1 -6.6,1.1 -13.4,3 -20.6,4.1 -3.6,0.6 -7.4,0.9 -11.2,0.8 -1,-0.1 -1.9,-0.1 -2.9,-0.2 l -1.4,-0.2 -0.7,-0.1 c -0.2,0 -0.5,0 -1,-0.2 l -2.9,-0.9 c -0.9,-0.3 -1.8,-0.7 -2.7,-1.1 -3.6,-1.6 -6.9,-3.5 -10,-5.7 -3.1,-2.2 -6.1,-4.5 -9,-6.7 -3.5,-2.7 -6.9,-5.2 -10.4,-7.3 -3.5,-2.1 -7.3,-3.6 -11.1,-4.2 l -0.7,-0.1 c -0.1,0 -0.1,0 -0.1,0 h -0.3 l -1.5,0.1 c -1,0 -1.9,0.2 -2.9,0.3 -0.5,0.1 -1,0.1 -1.4,0.2 l -1.4,0.4 c -0.5,0.1 -0.9,0.2 -1.4,0.4 l -1.4,0.5 c -3.7,1.3 -7.3,3.1 -10.9,5 -3.6,1.9 -7.2,3.9 -11.1,5.5 -3.9,1.6 -8,2.7 -12.2,3 -1,0 -2.1,0.1 -3.1,0.1 -1.1,-0.1 -2.1,-0.1 -3.2,-0.3 -1,-0.2 -2.1,-0.4 -3.1,-0.6 -1,-0.3 -2,-0.6 -2.9,-0.9 -3.8,-1.4 -7.1,-3.4 -10.2,-5.4 -6.2,-4 -11.7,-8.1 -17.6,-10.4 -0.7,-0.3 -1.5,-0.5 -2.2,-0.8 -0.7,-0.2 -1.5,-0.4 -2.2,-0.5 l -0.6,-0.1 c -0.6,-0.1 -0.6,-0.2 -0.8,-0.2 l -1.1,-0.3 -1.1,-0.3 c -0.4,-0.1 -0.7,-0.1 -1.1,-0.2 -0.7,-0.1 -1.5,-0.3 -2.2,-0.4 -0.7,-0.1 -1.5,-0.1 -2.2,-0.2 -0.7,0 -1.5,0 -2.2,0 -0.7,0 -1.5,0.1 -2.2,0.1 -5.8,0.4 -11.4,1.8 -16.8,2.2 -5.4,0.5 -10.7,0 -15.1,-1.6 0,0 0.1,0 0.1,0 -1.8,-0.5 -3.6,-1.1 -5.3,-1.9 -1.6,-0.8 -3.2,-1.6 -4.6,-2.5 -2.8,-1.9 -5.1,-4.1 -7,-6.2 -2,-2.1 -3.7,-4 -5.5,-5.6 -1.8,-1.5 -3.6,-2.6 -5.4,-3.2 -3.6,-1.2 -6.6,-0.8 -8.6,-0.6 -1,0.1 -1.7,0.3 -2.2,0.4 0.3,-0.3 0,-0.2 0,-0.2 z"/><path id="path94" fill="#262424" d="m 1315.7,898 c 0,0 -1.3,0.3 -3.9,0.8 -1.3,0.3 -2.9,0.6 -4.7,1 -1.9,0.4 -4,0.9 -6.4,1.5 -4.8,1.1 -10.7,2.6 -17.6,4.4 -6.8,1.7 -14.6,3.8 -23.3,5.7 -8.7,1.9 -18.4,3.7 -28.9,4.5 -1.3,0.1 -2.7,0.2 -4,0.3 -1.3,0.1 -2.7,0.1 -4.1,0.1 -1.4,0 -2.8,0.1 -4.1,0 -1.4,0 -2.8,-0.1 -4.2,-0.1 -5.6,-0.1 -11.4,-0.5 -17.3,-1.3 -11.8,-1.5 -24,-4.1 -36.4,-7.5 -12.4,-3.4 -25.1,-7.7 -37.8,-12.8 -50.7,-20.3 -90.8,-48.1 -113.9,-74.4 -11.6,-13.1 -18.8,-25.7 -22.6,-35.3 -3.8,-9.7 -4.5,-16.1 -4.8,-17.9 -0.2,-0.9 0,-0.2 0.5,1.8 0.5,2.1 1.4,5.5 3.1,9.9 1.7,4.5 4.2,9.9 7.9,16 3.7,6 8.5,12.6 14.5,19.4 12,13.5 28.8,27.5 48.9,40.4 20.1,12.9 43.5,24.8 68.5,34.8 12.5,5 24.9,9.3 37.1,12.8 12.2,3.5 24.1,6.3 35.6,8 5.8,0.9 11.3,1.4 16.9,1.7 1.4,0.1 2.7,0.2 4.1,0.3 1.4,0.1 2.7,0.1 4,0.1 1.3,0 2.6,0.1 4,0 1.3,0 2.6,-0.1 3.9,-0.1 10.3,-0.4 19.9,-1.9 28.6,-3.4 8.7,-1.6 16.6,-3.2 23.5,-4.6 6.9,-1.4 12.9,-2.6 17.8,-3.5 2.4,-0.5 4.6,-0.8 6.5,-1.1 1.9,-0.3 3.5,-0.5 4.8,-0.7 2.5,-0.6 3.8,-0.8 3.8,-0.8 z"/><path id="path96" fill="#262424" d="m 1920.9,919.1 c -0.3,0.1 -1.3,0.5 -3,1.1 0,0 -0.1,0 -0.1,0 -0.3,0.1 -0.5,0.2 -0.8,0.3 -1.3,0.5 -3,1 -4.9,1.7 -1,0.3 -2,0.7 -3.2,1 -1.1,0.3 -2.4,0.7 -3.6,1.1 -5.1,1.5 -11.5,3.2 -18.9,4.8 -7.5,1.5 -16.1,2.9 -25.7,3.7 -9.6,0.8 -20.2,0.9 -31.5,-0.1 -11.3,-1 -23.3,-3.1 -35.6,-6.4 -6.2,-1.7 -12.4,-3.6 -18.7,-5.6 -6.3,-2.1 -12.7,-4.4 -19.2,-6.8 -12.9,-4.8 -26.1,-10 -39.9,-14.2 -13.8,-4.2 -27.4,-7.1 -40.7,-7.5 -6.6,-0.2 -13.1,0.2 -19.3,1.1 -6.3,1 -12.2,2.5 -18,4.3 -1.4,0.5 -2.8,1 -4.2,1.5 -0.7,0.3 -1.4,0.5 -2.1,0.8 -0.7,0.3 -1.4,0.6 -2,0.9 -2.8,1.2 -5.4,2.4 -8.1,3.5 -2.2,0.9 -4.4,1.8 -6.6,2.7 -0.7,0.3 -1.4,0.6 -2.2,0.8 -2.4,0.9 -4.8,1.8 -7.2,2.6 -5.3,1.7 -10.5,3.1 -15.6,3.9 -5.1,0.8 -10.2,1 -15,0.2 -4.8,-0.7 -9.2,-2.3 -13,-4.3 -3.8,-2 -7.1,-4.4 -10.1,-6.8 -5.9,-4.8 -10.4,-9.6 -14.2,-13.7 -7.5,-8.1 -12,-13.4 -13.4,-14.8 -1.3,-1.5 2.2,2 9.5,9.3 3.7,3.6 8.3,8.2 14,13.2 2.9,2.5 6.1,5 9.7,7.3 3.6,2.3 7.7,4.4 12.3,5.6 4.5,1.3 9.5,1.6 14.7,1.1 5.2,-0.5 10.5,-1.8 15.9,-3.5 5.4,-1.8 10.9,-3.9 16.5,-6.4 1.4,-0.6 2.8,-1.2 4.2,-1.9 1.4,-0.7 2.8,-1.3 4.3,-2 1.5,-0.7 2.9,-1.3 4.4,-2 1.5,-0.6 3,-1.2 4.6,-1.8 12.3,-4.8 26.2,-7.3 40.5,-7.1 14.3,0.2 28.8,3.3 42.9,7.6 14.1,4.3 27.4,9.7 40.2,14.5 6.4,2.5 12.7,4.8 18.9,7 6.2,2.2 12.3,4.1 18.3,5.9 12,3.4 23.7,5.8 34.8,7.2 11,1.3 21.4,1.6 30.9,1.1 9.5,-0.4 18,-1.4 25.5,-2.6 7.5,-1.2 13.9,-2.6 19,-3.8 1.3,-0.3 2.5,-0.6 3.7,-0.9 1.1,-0.3 2.2,-0.6 3.2,-0.9 2,-0.5 3.7,-1 5,-1.4 0.3,-0.1 0.6,-0.2 0.8,-0.3 0,0 0.1,0 0.1,0 1.6,-0.6 2.7,-0.9 2.9,-1 z"/><path id="path98" fill="#262424" d="m 1955.8,975.4 c -0.1,1.7 0,3.4 -0.3,5.1 -0.1,0.8 -0.2,1.7 -0.4,2.5 -0.2,0.8 -0.4,1.6 -0.6,2.4 -0.1,0.4 -0.2,0.8 -0.3,1.2 l -0.4,1.2 c -0.3,0.8 -0.6,1.5 -0.8,2.3 -1.4,2.9 -2.9,5.7 -4.8,8.1 -2.4,3.2 -5.1,5.9 -7.9,8.3 0,0 0,0 0,0 -1.5,1.3 -3,2.5 -4.6,3.6 -8.9,6.4 -17.9,10.5 -25.7,14.1 -4.6,2 -8.9,3.8 -12.7,5.4 -2.7,1.1 -5.3,2.2 -7.6,3.2 0,0 -0.1,0 -0.1,0.1 -5.5,2.3 -9.7,4.4 -12.4,5.9 -0.5,0.3 -1,0.6 -1.4,0.8 0,0 0,0 0,0 -0.1,0.1 -0.3,0.2 -0.4,0.2 -0.5,0.3 -0.9,0.6 -1.3,0.8 -0.4,0.3 -0.7,0.5 -0.9,0.6 0.2,-0.1 0.4,-0.3 0.8,-0.6 0.2,-0.2 0.5,-0.3 0.7,-0.5 0.2,-0.1 0.3,-0.2 0.5,-0.4 0.5,-0.3 1.1,-0.7 1.8,-1.1 2.7,-1.7 6.8,-3.9 12.3,-6.6 5.4,-2.6 12.2,-5.7 19.9,-9.4 7.6,-3.8 16.3,-8.3 24.8,-14.7 4.2,-3.2 8.2,-7.1 11.5,-11.7 1.7,-2.3 3,-4.9 4.1,-7.5 0.2,-0.7 0.5,-1.4 0.7,-2.1 l 0.3,-1 c 0.1,-0.3 0.2,-0.7 0.3,-1.1 0.2,-0.7 0.3,-1.4 0.5,-2.2 0.1,-0.7 0.2,-1.5 0.3,-2.2 0.2,-1.5 0.1,-3 0.1,-4.5 0,-0.8 -0.1,-1.5 -0.2,-2.3 -0.1,-0.8 -0.2,-1.5 -0.3,-2.3 -0.1,-0.6 -0.3,-1.3 -0.4,-1.9 l -0.1,-0.3 c 0,0 0,-0.1 -0.1,-0.1 h -0.2 c 0,0 -2.3,0 -3.8,0 -6.8,0 -13.7,0.2 -20.9,0.1 -7.1,0 -14.5,0 -22,-0.1 -3.7,-0.1 -7.5,-0.2 -11.3,-0.3 -1.9,0 -3.8,-0.1 -5.8,-0.2 -1.9,-0.1 -3.9,-0.1 -5.8,-0.3 -3.9,-0.2 -7.8,-0.5 -11.8,-0.7 -2,-0.1 -4,-0.3 -6,-0.4 -1,-0.1 -2,-0.1 -3,-0.2 -1,-0.1 -2,-0.2 -3,-0.4 -2,-0.3 -4,-0.5 -6.1,-0.8 -2,-0.3 -4,-0.6 -6.1,-1 -2,-0.3 -4.1,-0.7 -6.1,-1.1 -2,-0.4 -4.1,-0.8 -6.1,-1.2 -8.1,-1.7 -16,-3.7 -23.8,-5.8 -7.7,-2.2 -15.2,-4.5 -22.5,-7 -14.6,-4.9 -28.3,-10.1 -41.3,-14.9 -13,-4.8 -25.4,-9.3 -37.1,-13 -11.7,-3.7 -22.7,-6.7 -32.9,-8.9 -20.4,-4.4 -37.6,-5.5 -50.1,-5.4 -1.6,0 -3,0 -4.5,0 -1.4,0 -2.7,0.1 -4,0.2 -1.7,0.1 -3.2,0.1 -4.6,0.2 -0.7,0 -1.4,0.1 -2,0.2 -3.8,0.3 -6.3,0.6 -7.4,0.7 -1.1,0.1 -0.3,0 2.2,-0.4 1.3,-0.2 3,-0.4 5.1,-0.7 1.3,-0.2 2.7,-0.3 4.2,-0.5 1,-0.1 2.2,-0.2 3.3,-0.3 2.9,-0.3 6.2,-0.4 9.9,-0.6 1.8,-0.1 3.7,-0.1 5.8,-0.1 2,0 4.1,-0.1 6.3,0 8.7,0.1 18.7,1 29.7,2.6 11,1.7 23,4.3 35.6,7.8 12.6,3.5 25.9,7.9 39.7,12.8 27.6,9.6 57.4,21 89.4,27.6 2,0.4 4,0.8 6,1.2 2,0.4 4,0.8 6,1.1 2,0.3 4,0.6 5.9,1 2,0.3 3.9,0.5 5.9,0.8 1,0.1 2,0.3 2.9,0.4 1,0.1 2,0.1 3,0.2 2,0.1 3.9,0.3 5.9,0.4 3.9,0.3 7.8,0.5 11.6,0.8 1.9,0.2 3.8,0.2 5.8,0.3 1.9,0.1 3.8,0.2 5.7,0.2 3.8,0.1 7.6,0.3 11.3,0.5 7.4,0.3 14.7,0.3 21.9,0.5 7.1,0.2 14.1,0.2 20.8,0.3 2.1,0 4.2,0.1 6.3,0.1 h 1.1 c 0,0 0.1,0 0.1,0 v 0.1 0.3 l 0.1,0.5 0.4,2.1 c 0.2,1 0.4,2 0.6,2.9 0.1,0.9 0.2,1.7 0.2,2.6 0.6,0.8 0.7,1.7 0.6,2.5 z"/><path id="path100" fill="#262424" d="m 1907.8,1005.9 c 0,0 -22.4,0.7 -58.7,1.4 -4.5,0.1 -9.3,0.2 -14.2,0.3 -1.2,0 -2.5,0 -3.7,0.1 -0.6,0 -1.3,0 -1.9,0 h -0.2 c -0.1,0 -0.3,0 -0.4,0 h -0.5 l -1,-0.1 c -2.6,-0.2 -5.2,-0.4 -7.9,-0.7 -1.3,-0.2 -2.7,-0.3 -4,-0.5 -1.4,-0.2 -2.7,-0.4 -4.1,-0.6 -0.7,-0.1 -1.4,-0.2 -2.1,-0.3 -0.7,-0.1 -1.4,-0.3 -2.1,-0.4 -1.4,-0.3 -2.8,-0.6 -4.2,-0.8 -5.6,-1.3 -11.3,-2.7 -17.1,-4.5 -11.6,-3.6 -23.4,-8.3 -35.3,-13.6 -12,-5.3 -24.1,-11.1 -36.8,-16.5 -6.3,-2.7 -12.6,-5.2 -18.8,-7.4 -6.2,-2.2 -12.4,-4.1 -18.5,-5.8 -6.1,-1.7 -12.2,-2.9 -18.2,-3.9 -3,-0.4 -6,-0.9 -8.9,-1.2 -2.9,-0.4 -5.9,-0.5 -8.8,-0.7 -11.7,-0.8 -22.7,-1.5 -33.1,-2.5 -10.3,-1 -20,-2.3 -28.7,-4.2 -8.7,-1.9 -16.5,-4.3 -23.2,-6.9 -1.6,-0.7 -3.2,-1.4 -4.8,-2.1 -0.8,-0.3 -1.5,-0.7 -2.3,-1 -0.7,-0.4 -1.4,-0.8 -2.1,-1.1 -1.4,-0.7 -2.7,-1.4 -4,-2.1 -1.2,-0.7 -2.4,-1.5 -3.5,-2.2 -1.1,-0.7 -2.2,-1.4 -3.2,-2 -1,-0.7 -1.9,-1.4 -2.7,-2 -0.8,-0.6 -1.6,-1.2 -2.4,-1.8 -0.4,-0.3 -0.7,-0.6 -1.1,-0.8 -0.3,-0.3 -0.6,-0.6 -0.9,-0.8 -2.4,-2.1 -3.9,-3.5 -4.6,-4.2 -0.7,-0.6 -0.1,-0.2 1.6,1.1 0.8,0.7 2,1.6 3.4,2.6 0.4,0.3 0.7,0.6 1.1,0.9 0.4,0.3 0.8,0.6 1.3,0.8 0.9,0.6 1.8,1.2 2.8,1.9 4,2.7 9.5,5.6 16,8.5 6.7,2.8 14.6,5.3 23.6,7.1 9,1.9 19.1,3.1 30,3.9 10.9,0.8 22.6,1.2 34.8,1.9 12.3,0.3 25.5,2 38.4,5.2 6.5,1.6 13,3.6 19.5,5.9 6.5,2.3 12.9,4.8 19.3,7.6 12.8,5.5 25,11.4 36.8,16.8 11.8,5.4 23.3,10.3 34.6,14 5.6,1.9 11.2,3.5 16.6,4.9 1.4,0.3 2.7,0.6 4.1,0.9 0.7,0.2 1.3,0.3 2,0.5 0.7,0.1 1.3,0.3 2,0.4 1.3,0.3 2.7,0.5 4,0.8 1.3,0.2 2.6,0.4 3.9,0.6 2.6,0.4 5.2,0.7 7.7,1 l 0.9,0.1 0.5,0.1 c 0.1,0 0.1,0 0.1,0 h 0.2 c 0.6,0 1.3,0 1.9,0 1.3,0 2.5,0 3.7,0.1 4.9,0.1 9.7,0.2 14.2,0.3 36.6,0.3 59,1 59,1 z"/><path id="path102" fill="#262424" d="m 1918.3,921.6 c -0.1,-0.2 -0.3,-0.7 -0.5,-1.4 0,-0.1 0,-0.1 -0.1,-0.2 -0.2,-0.6 -0.5,-1.4 -0.9,-2.3 -0.2,-0.7 -0.6,-1.4 -1,-2.2 -0.4,-0.8 -0.8,-1.6 -1.2,-2.6 -0.4,-1 -1,-1.9 -1.6,-2.9 -0.6,-1 -1.2,-2.2 -1.9,-3.3 -2.8,-4.6 -6.7,-9.8 -11.8,-15.4 -5.1,-5.6 -11.3,-11.6 -18.5,-17.9 -3.6,-3.2 -7.4,-6.4 -11.4,-9.8 -2,-1.7 -4.1,-3.4 -6.1,-5.1 l -0.8,-0.7 -0.4,-0.3 -0.2,-0.2 c 0,0 0,0 -0.1,-0.1 -0.6,-0.4 -1.1,-0.8 -1.7,-1.1 -1.1,-0.8 -2.3,-1.6 -3.5,-2.3 -2.3,-1.6 -4.7,-3.2 -7.1,-4.8 -1.2,-0.8 -2.4,-1.7 -3.6,-2.4 -1.3,-0.8 -2.5,-1.5 -3.8,-2.3 -2.5,-1.6 -5.1,-3.1 -7.7,-4.8 -1.3,-0.8 -2.6,-1.6 -4,-2.4 -1.4,-0.8 -2.7,-1.5 -4.1,-2.3 -21.9,-12.6 -46.9,-24.7 -73.7,-36.2 -26.8,-11.6 -52.3,-21.4 -75.4,-30.3 -23.1,-8.8 -43.8,-16.6 -61.2,-23.2 -17.5,-6.7 -31.7,-12.2 -42,-16.3 -5.9,-2.4 -10.6,-4.3 -13.8,-5.5 -2.4,-1 -4,-1.6 -4.7,-1.9 -1,-0.4 0,-0.1 2.8,0.8 7.2,2.4 26.4,9 53.2,18.1 18.6,6.4 40.9,13.9 65.4,22.7 24.5,8.8 51.1,18.7 78,30.4 26.9,11.6 52,24.2 73.8,37.3 1.4,0.8 2.7,1.6 4.1,2.4 1.3,0.8 2.6,1.7 3.9,2.5 2.6,1.7 5.2,3.4 7.7,5 1.3,0.8 2.5,1.6 3.8,2.4 1.3,0.8 2.4,1.7 3.6,2.5 2.4,1.7 4.7,3.4 7,5 1.1,0.8 2.3,1.7 3.4,2.5 0.6,0.4 1.1,0.8 1.7,1.2 0.1,0 0.2,0.2 0.3,0.3 l 0.2,0.2 0.4,0.4 0.8,0.7 c 2,1.8 4,3.6 5.9,5.3 3.9,3.5 7.6,6.9 11.1,10.2 7,6.6 13.1,12.9 17.9,18.8 4.9,5.9 8.6,11.4 11.2,16.1 0.7,1.2 1.2,2.3 1.8,3.4 0.5,1.1 1.1,2 1.4,3 0.4,1 0.8,1.8 1.1,2.7 0.3,0.8 0.6,1.5 0.8,2.2 0.3,1 0.6,1.8 0.8,2.4 0,0.1 0,0.1 0.1,0.2 0.4,0.8 0.5,1.3 0.6,1.5 z"/><path id="path104" fill="#262424" d="m 231.5,274.3 c 0,-0.2 -0.1,-0.6 -0.2,-1.3 -0.1,-0.5 -0.2,-1.2 -0.3,-2.1 -0.1,-0.6 -0.2,-1.2 -0.3,-1.9 -0.2,-0.9 -0.4,-1.9 -0.6,-3 -0.8,-3.2 -1.9,-7.2 -3.9,-11.8 -1.4,-3 -3.2,-6.3 -5.6,-9.6 -2.4,-3.3 -5.4,-6.5 -9.1,-9.4 -7.4,-5.9 -17.4,-10.4 -29,-13.3 -11.6,-3 -24.7,-4.6 -38.8,-6.2 -7,-0.8 -14.3,-1.3 -21.9,-2 -7.6,-0.7 -15.4,-1.6 -23.4,-3.3 -4,-0.9 -8,-2 -12,-3.5 -1,-0.4 -2,-0.8 -3,-1.2 -1,-0.5 -1.9,-1 -2.9,-1.5 -0.5,-0.3 -1,-0.5 -1.5,-0.8 l -1.4,-0.8 c -0.9,-0.6 -1.9,-1.1 -2.7,-1.7 -7.2,-4.8 -13.5,-10.9 -20.1,-16.1 -3.3,-2.6 -6.8,-5.1 -10.5,-7.1 -3.7,-2 -7.7,-3.5 -11.8,-4.7 l -0.8,-0.2 c 0,0 -0.1,0 -0.1,0 0,0 0,0 0,0 0,0.3 -0.1,1.5 -0.1,2.2 0,1.1 0,2.2 0,3.3 v 1.7 l 0.1,1.7 c 0,1.1 0.1,2.2 0.1,3.3 0.2,2.2 0.3,4.5 0.6,6.7 1,8.9 3.1,17.6 6.3,25.6 1.6,4 3.5,7.9 5.6,11.6 1,1.9 2.2,3.6 3.3,5.4 1.2,1.7 2.4,3.5 3.6,5.1 2.5,3.4 5.2,6.5 8,9.5 2.8,3 5.7,5.8 8.7,8.5 6,5.4 12.3,10.2 18.6,14.6 12.7,8.8 25.4,16.2 37.3,23.1 12,6.9 23.2,13.3 33.2,19.5 10,6.2 18.9,12.3 26.5,18.1 7.6,5.8 13.8,11.4 18.7,16.4 9.8,10.1 14.6,17.5 16,19.5 0.7,1 0.1,0.3 -1.6,-2 -1.8,-2.3 -4.7,-6 -9.2,-10.8 -3.3,-3.4 -7.3,-7.4 -12.3,-11.5 0,0 0,0 -0.1,-0.1 -1.8,-1.5 -3.7,-3.1 -5.8,-4.7 -7.6,-6 -16.8,-12.2 -27.4,-18.6 C 151.1,314.5 139.2,308 126.3,301 113.5,294 99.7,286.5 85.9,277.4 79,273 72.2,268 65.6,262.4 59,256.8 52.7,250.5 47.2,243.3 c -2.8,-3.6 -5.3,-7.4 -7.7,-11.3 -1.2,-2 -2.2,-4 -3.3,-6.1 -1,-2.1 -2,-4.2 -2.8,-6.4 -1.8,-4.3 -3.3,-8.8 -4.4,-13.4 -1.1,-4.6 -2,-9.2 -2.5,-13.9 -0.3,-2.4 -0.4,-4.7 -0.6,-7 0,-1.2 -0.1,-2.3 -0.1,-3.5 v -1.8 -1.8 c 0,-1.2 0,-2.3 0,-3.5 0.1,-1.5 0.1,-3.1 0.2,-4.6 l 0.2,-3.4 v -0.8 c 0,-0.1 0,-0.3 0,-0.4 l 0.4,0.1 1.6,0.4 c 1.9,0.4 3.8,0.9 5.7,1.4 4.5,1.3 8.9,3.1 13,5.3 4,2.3 7.8,4.9 11.2,7.7 3.5,2.8 6.7,5.7 9.9,8.5 3.2,2.7 6.4,5.4 9.7,7.6 0.8,0.6 1.7,1.1 2.5,1.6 l 1.3,0.8 1.3,0.7 c 0.9,0.5 1.7,1 2.6,1.4 0.9,0.4 1.8,0.7 2.7,1.1 3.7,1.4 7.5,2.5 11.3,3.5 7.6,1.8 15.3,2.8 22.8,3.7 7.5,0.8 14.8,1.5 21.9,2.5 14.1,2 27.3,4 39.1,7.4 11.8,3.3 22,8.3 29.4,14.6 3.7,3.2 6.7,6.6 9.1,10.1 2.3,3.5 4,6.9 5.3,10 1.5,4 2.5,7.5 3.1,10.5 0.4,1.7 0.6,3.3 0.8,4.6 0.1,0.3 0.1,0.6 0.1,0.9 0.2,1.3 0.3,2.4 0.4,3.1 0,0.8 0.1,1.2 0.1,1.4 z"/><path id="path106" fill="#262424" d="m 373,230.6 -0.1,2.4 c -0.2,6.4 -2,12.5 -4.4,18 -1.2,2.8 -2.6,5.4 -4.1,7.9 -0.8,1.2 -1.5,2.4 -2.3,3.6 -0.8,1.2 -1.6,2.4 -2.5,3.5 -3.5,4.5 -7.4,8.3 -11.3,11.8 -7.9,6.9 -15.7,12.4 -22.2,18.1 -3.3,2.9 -6.2,5.7 -8.7,8.7 -2.5,2.9 -4.5,6 -6,9 -1.5,3 -2.5,6.1 -3,8.9 -0.1,0.3 -0.1,0.7 -0.2,1.1 0,0.4 -0.1,0.7 -0.1,1.1 -0.1,0.7 -0.2,1.4 -0.2,2 0,1.3 -0.1,2.6 -0.1,3.8 0.1,1.2 0.1,2.4 0.2,3.4 0.1,1.1 0.3,2.1 0.4,3 0.3,1.6 0.6,3 0.9,4.2 v 0 c 0,0.2 0.1,0.3 0.1,0.5 0.3,1.2 0.6,2.1 0.8,2.7 0.1,0.5 0.3,0.9 0.3,1 -0.1,-0.1 -0.2,-0.6 -0.4,-1.2 -0.2,-0.6 -0.5,-1.4 -0.9,-2.5 -0.1,-0.3 -0.2,-0.7 -0.3,-1.1 -0.3,-1 -0.6,-2.2 -0.9,-3.5 -0.2,-0.9 -0.4,-1.9 -0.6,-3 -0.2,-1.1 -0.3,-2.3 -0.4,-3.5 -0.1,-1.2 -0.1,-2.5 -0.1,-3.9 0,-0.7 0.1,-1.4 0.1,-2.1 0,-0.4 0.1,-0.7 0.1,-1.1 0,-0.4 0.1,-0.7 0.2,-1.1 0.4,-3 1.3,-6.2 2.7,-9.5 1.4,-3.3 3.4,-6.5 5.8,-9.7 2.5,-3.2 5.4,-6.3 8.6,-9.3 6.4,-6.1 14,-12 21.5,-18.9 3.7,-3.5 7.3,-7.2 10.4,-11.5 0.8,-1 1.5,-2.2 2.2,-3.3 0.7,-1.2 1.4,-2.3 2.1,-3.5 1.3,-2.4 2.6,-4.8 3.6,-7.4 2.1,-5.1 3.6,-10.6 3.6,-16.3 0,-0.7 0,-1.4 0,-2.1 0,-0.7 -0.1,-1.4 -0.1,-2.1 -0.1,-1.4 -0.4,-2.8 -0.6,-4.3 -0.2,-0.7 -0.4,-1.4 -0.5,-2.1 l -0.3,-1.1 -0.4,-1 c -0.3,-0.7 -0.5,-1.4 -0.7,-2.1 l -0.9,-2 c -1.2,-2.7 -2.7,-5.3 -4.5,-7.8 -1.7,-2.5 -3.7,-4.9 -5.9,-7.2 -4.3,-4.5 -9.3,-8.7 -14.6,-12.4 -5.3,-3.8 -10.8,-7.1 -16.4,-10.2 -2.8,-1.5 -5.6,-3 -8.4,-4.4 l -0.9,-0.4 v 0 h -0.1 v 0 0 0.1 0 1.1 c 0,0.8 0,1.6 0,2.4 -0.1,0.8 -0.2,1.6 -0.2,2.4 -0.1,0.8 -0.1,1.6 -0.3,2.4 -0.2,0.8 -0.3,1.6 -0.5,2.4 -0.2,0.8 -0.5,1.6 -0.7,2.4 -0.1,0.4 -0.2,0.8 -0.4,1.2 l -0.5,1.1 -0.5,1.1 -0.4,0.7 -0.3,0.5 c -1.5,2.9 -3.7,5.4 -6.1,7.5 -2.4,2.1 -5,3.7 -7.6,5.1 -5.3,2.7 -10.7,4.3 -15.8,5.8 -5.2,1.5 -10.1,2.8 -14.8,4.3 -4.7,1.5 -9,3.3 -12.8,5.6 -3.8,2.3 -7.1,5.1 -9.4,8.4 -2.3,3.4 -4.1,7 -5.6,10.4 -1.5,3.5 -2.6,6.9 -3.4,10.2 -1.7,6.6 -2.5,12.5 -2.9,17.6 -0.1,1.2 -0.1,2.4 -0.2,3.6 0,0.4 0,0.7 0,1 -0.2,7.4 0.4,12.1 0.5,13.6 0.1,0.9 -0.1,0.3 -0.4,-1.8 -0.4,-2 -0.8,-5.5 -1,-10.3 -0.1,-1.9 -0.1,-4.1 -0.1,-6.4 0,-0.5 0,-1.1 0.1,-1.6 0.1,-3 0.4,-6.2 0.8,-9.8 0.5,-3.5 1.2,-7.3 2.3,-11.2 1.1,-3.9 2.6,-8 4.6,-12.2 0.5,-1 1,-2.1 1.7,-3.1 0.6,-1 1.2,-2.1 2,-3.1 0.4,-0.5 0.8,-1 1.1,-1.5 0.4,-0.5 0.9,-0.9 1.3,-1.4 0.8,-1 1.8,-1.8 2.8,-2.6 3.9,-3.4 8.7,-5.8 13.7,-7.9 5,-2 10.3,-3.6 15.7,-5.3 5.4,-1.7 10.8,-3.4 15.9,-5.8 2.5,-1.3 5,-2.7 7.1,-4.4 2.1,-1.8 4,-3.8 5.4,-6.2 l 0.5,-0.9 c 0.2,-0.3 0.4,-0.6 0.5,-0.9 l 0.8,-1.9 c 0.4,-1.4 0.9,-2.7 1.1,-4.1 0.1,-0.7 0.3,-1.4 0.3,-2.1 l 0.2,-2.2 c 0.1,-0.7 0,-1.5 0.1,-2.2 v -2.1 -0.3 -0.6 c -0.1,-1.6 -0.2,-3.1 -0.3,-4.7 l -0.2,-2.4 V 165 c 0,-0.2 -0.1,-0.5 0.2,-0.3 l 1.1,0.5 c 1.4,0.7 2.9,1.4 4.3,2 l 2.1,1 1.6,0.8 c 2.9,1.4 5.9,2.9 8.8,4.5 5.9,3.1 11.6,6.6 17.2,10.6 5.6,3.9 10.8,8.3 15.4,13.2 2.3,2.5 4.5,5.1 6.3,7.8 1.9,2.8 3.5,5.7 4.9,8.8 0.3,0.8 0.6,1.5 1,2.3 0.3,0.8 0.5,1.6 0.8,2.4 l 0.4,1.2 0.3,1.2 c 0.2,0.8 0.4,1.6 0.6,2.4 0.2,1.6 0.6,3.2 0.6,4.9 -0.3,0.7 -0.2,1.5 -0.2,2.3 z"/><path id="path108" fill="#262424" d="m 617.3,543.7 -0.7,-0.1 c -0.3,0 -0.5,-0.1 -0.8,-0.2 -1.1,-0.2 -2.1,-0.4 -3.2,-0.6 -2.7,-0.5 -5.4,-1 -8,-1.5 -1.3,-0.3 -2.7,-0.5 -4,-0.8 -1.3,-0.2 -2.7,-0.5 -4,-0.8 -2.6,-0.6 -5.2,-1.2 -7.8,-1.8 -5.2,-1.2 -10.4,-2.3 -15.4,-3.8 -5.1,-1.4 -10.1,-2.8 -15.1,-4.2 -4.9,-1.6 -9.8,-3.2 -14.6,-4.8 -1.2,-0.4 -2.4,-0.8 -3.6,-1.2 -1.2,-0.4 -2.4,-0.9 -3.6,-1.3 -2.4,-0.9 -4.7,-1.8 -7,-2.7 -4.7,-1.8 -9.4,-3.5 -13.8,-5.6 -4.5,-2 -9,-4 -13.4,-5.9 -4.3,-2.1 -8.6,-4.3 -12.9,-6.5 -2.1,-1.1 -4.2,-2.1 -6.3,-3.2 -2.1,-1.2 -4.1,-2.3 -6.1,-3.5 -4,-2.3 -8.1,-4.6 -12,-6.9 -3.9,-2.4 -7.7,-4.9 -11.5,-7.3 -3.8,-2.4 -7.6,-4.7 -11.1,-7.3 -3.6,-2.5 -7.1,-5.1 -10.6,-7.5 -0.9,-0.6 -1.8,-1.2 -2.6,-1.9 l -1.3,-0.9 -1.3,-1 c -1.7,-1.3 -3.3,-2.6 -5,-3.9 -3.3,-2.6 -6.6,-5.1 -9.8,-7.7 -1.6,-1.2 -3.2,-2.5 -4.8,-3.8 -1.6,-1.3 -3.1,-2.6 -4.7,-3.9 -3.1,-2.5 -6.1,-5.1 -9.1,-7.6 -3,-2.6 -5.7,-5.2 -8.6,-7.8 -2.8,-2.6 -5.6,-5.1 -8.3,-7.6 -2.7,-2.6 -5.2,-5.2 -7.7,-7.7 -2.5,-2.5 -5,-5.1 -7.5,-7.5 -2.4,-2.5 -4.7,-5.1 -7,-7.6 -17.8,-19.4 -32.3,-37.4 -44,-53.1 -0.1,-0.1 -0.1,-0.1 -0.1,-0.2 -0.3,-0.4 -0.6,-0.8 -0.9,-1.1 -11.9,-15.9 -21.3,-29.1 -28,-39.1 -6.6,-10.1 -10.2,-17.3 -12,-20.3 -1.8,-3.1 -0.4,-0.8 3.8,6.2 1,1.8 2.2,3.8 3.7,6.1 1.4,2.3 3,4.9 5,7.7 1,1.4 2,2.8 3,4.4 1.1,1.5 2.2,3.1 3.4,4.7 2.4,3.3 4.9,6.8 7.7,10.5 2.8,3.7 5.7,7.7 8.8,11.9 1.4,1.8 2.8,3.7 4.3,5.6 0.1,0.2 0.3,0.4 0.5,0.6 v 0 c 1.8,2.2 3.5,4.5 5.4,6.9 1.8,2.3 3.6,4.7 5.5,7 1.9,2.4 3.9,4.8 5.9,7.2 2,2.5 4.1,5 6.2,7.5 2.1,2.5 4.4,5 6.6,7.6 18.1,20.8 40.2,43.6 67.7,65.5 1.7,1.4 3.4,2.8 5.1,4.2 1.8,1.4 3.5,2.7 5.3,4.1 3.6,2.7 7.2,5.5 10.9,8.3 1.8,1.4 3.7,2.7 5.6,4.1 1.9,1.3 3.8,2.7 5.8,4 1.9,1.4 3.9,2.7 5.8,4 1,0.7 2,1.4 2.9,2 1,0.6 2,1.3 3,1.9 4.1,2.5 8.2,5.1 12.3,7.7 1,0.7 2.1,1.3 3.1,1.9 1.1,0.6 2.1,1.2 3.2,1.8 2.2,1.2 4.3,2.4 6.5,3.6 2.2,1.2 4.4,2.4 6.6,3.7 l 1.6,0.9 c 0.6,0.3 1.1,0.6 1.7,0.8 1.1,0.6 2.3,1.1 3.4,1.7 4.6,2.3 9.1,4.5 13.8,6.8 18.8,8.6 38.9,16.1 60,22.2 5.3,1.4 10.6,2.9 16,4.3 5.5,1.2 10.9,2.5 16.4,3.7 1.4,0.3 2.8,0.7 4.2,0.9 1.4,0.3 2.8,0.5 4.2,0.8 2.8,0.5 5.6,1 8.4,1.5 0.8,0.2 1.7,0.3 2.5,0.5 0.6,0.1 1.2,0.2 1.7,0.3 0.1,0 0.1,0 0.2,0 0,0.3 0,0.6 0,0.9 0.5,1.6 0.5,3 0.5,4.2 z"/><path id="path110" fill="#262424" d="m 1646.9,776.7 c -1.3,-0.8 -5.6,-3.6 -12.5,-8.1 -2.1,-1.4 -4.5,-2.9 -7.1,-4.6 -1.3,-0.8 -2.7,-1.7 -4.1,-2.7 -1.5,-0.9 -3,-1.8 -4.5,-2.8 -6.3,-3.8 -13.6,-8.3 -21.8,-13.2 -4.2,-2.4 -8.6,-4.9 -13.2,-7.5 -4.6,-2.6 -9.4,-5.5 -14.6,-8.2 -5.1,-2.8 -10.5,-5.7 -16.1,-8.7 -1.4,-0.8 -2.8,-1.5 -4.2,-2.3 -1.4,-0.7 -2.9,-1.5 -4.4,-2.2 -2.9,-1.5 -5.9,-3 -9,-4.5 -24.4,-12.3 -52.5,-25.5 -84.3,-38.4 -31.8,-12.9 -67.1,-25.8 -105.8,-37.3 -4.8,-1.4 -9.7,-2.9 -14.6,-4.3 -2.4,-0.8 -4.9,-1.4 -7.4,-2.1 -2.5,-0.7 -5,-1.4 -7.5,-2 -2.5,-0.7 -5,-1.4 -7.6,-2.1 -1.3,-0.4 -2.5,-0.7 -3.8,-1 -1.3,-0.3 -2.6,-0.6 -3.8,-1 -5.1,-1.3 -10.3,-2.6 -15.5,-3.9 -1.3,-0.3 -2.6,-0.7 -3.9,-1 -1.3,-0.3 -2.6,-0.6 -3.9,-0.9 -2.6,-0.6 -5.3,-1.2 -7.9,-1.8 -5.3,-1.2 -10.6,-2.5 -16.1,-3.6 -10.8,-2.3 -21.8,-4.6 -32.9,-6.9 -44.5,-9.2 -91.3,-18.2 -140.1,-25.8 -48.8,-7.6 -99.5,-13.9 -151.7,-18 -52.2,-4.1 -102.9,-6.2 -151.5,-7.4 -4.2,-0.1 -8.4,-0.2 -12.6,-0.3 -2.1,0 -4.3,-0.1 -6.4,-0.1 -0.9,-0.3 -1.8,-0.7 -2.8,-1.1 -3.6,-1.4 -7.5,-2.9 -11.6,-4.6 3,0 6,0.1 9,0.1 1.1,0 2.3,0 3.4,0.1 3.1,0 6.2,0.1 9.4,0.1 3.1,0.1 6.3,0.2 9.4,0.2 50.2,1.1 101.9,3.1 154.2,7.3 52.4,4.1 103.3,10.5 152.1,18.3 48.9,7.8 95.7,17 140.2,26.5 11.1,2.4 22.1,4.8 32.9,7.1 5.4,1.1 10.8,2.5 16.1,3.7 2.7,0.6 5.3,1.3 8,1.9 1.3,0.3 2.6,0.6 4,0.9 1.3,0.3 2.6,0.7 3.9,1 5.2,1.3 10.4,2.7 15.5,4 1.3,0.3 2.6,0.7 3.8,1 1.3,0.4 2.5,0.7 3.8,1.1 2.5,0.7 5.1,1.4 7.6,2.1 2.5,0.7 5,1.4 7.5,2.1 2.5,0.7 5,1.4 7.4,2.2 4.9,1.5 9.8,3 14.6,4.5 38.7,11.9 74,25.2 105.8,38.4 31.8,13.3 59.8,26.8 84,39.4 3,1.6 6,3.1 8.9,4.7 1.5,0.8 2.9,1.5 4.3,2.3 1.4,0.8 2.8,1.6 4.2,2.3 1.6,0.9 3.2,1.8 4.8,2.7 0.7,0.4 1.3,0.7 2,1.1 3.1,1.7 6.2,3.5 9.2,5.1 5.2,2.8 9.9,5.7 14.5,8.4 4.6,2.7 9,5.3 13.1,7.7 8.2,5 15.4,9.6 21.7,13.5 1.6,1 3.1,1.9 4.5,2.9 1.4,1 2.8,1.9 4.1,2.7 2.6,1.7 5,3.3 7.1,4.7 6.7,4.6 10.9,7.4 12.2,8.3 z"/><path id="path112" fill="#262424" d="m 757.8,553.9 c -0.9,-0.3 -1.8,-0.7 -2.8,-1.1 -3.6,-1.4 -7.5,-2.9 -11.6,-4.6 -6.8,-2.7 -14.2,-5.5 -22.1,-8.5 -12.7,-4.7 -26.6,-9.6 -41.2,-13.6 -14.6,-4.1 -28.8,-7 -41.8,-8.6 -3.3,-0.3 -6.5,-0.7 -9.5,-1 -1.5,-0.2 -3.1,-0.3 -4.6,-0.3 -1.5,-0.1 -3,-0.2 -4.5,-0.2 l -1.1,-0.1 h -0.4 -0.4 c -0.1,0 -0.3,-0.1 -0.3,0.1 0,0.3 0,0.5 -0.1,0.8 v 0.2 0.5 c 0,0.3 0,0.7 0,1 -0.1,2.7 -0.2,5.4 -0.2,7.9 0,2.5 0,4.9 -0.1,7.1 0,1.1 0,2.2 0,3.3 0,0.8 0,1.5 0.1,2.2 0,0.3 0,0.6 0,0.9 0,1.4 0.1,2.8 0.1,4 0,2.3 0.1,4.4 0.3,6.1 0.5,5.6 0.7,8.7 0.7,8.7 0,0 -0.6,-3.1 -1.6,-8.6 -0.4,-1.9 -0.7,-4.1 -0.9,-6.5 -0.1,-1.1 -0.3,-2.4 -0.4,-3.6 0,-0.5 -0.1,-0.9 -0.2,-1.4 -0.1,-0.6 -0.1,-1.2 -0.2,-1.7 -0.1,-1.1 -0.2,-2.2 -0.2,-3.3 -0.1,-2.3 -0.3,-4.7 -0.4,-7.2 -0.2,-2.5 -0.2,-5.1 -0.3,-7.9 0,-0.8 0,-1.6 -0.1,-2.4 0,-1.2 0,-2.3 -0.1,-3.5 v -0.4 -0.1 c 0,0 0.1,0 0.1,0 h 0.2 0.9 c 0.6,0 1.2,0 1.8,0 1,0 2,0 2.9,0 h 4.5 c 1.5,0 3.1,0 4.7,0.1 3.2,0.2 6.4,0.3 9.8,0.6 13.4,1.1 27.9,3.8 42.8,7.9 14.9,4.2 28.4,9.2 40.4,14.2 11.6,4.8 21.8,9.5 30.4,13.6 0.3,0.1 0.6,0.3 0.9,0.4 4,1.9 7.6,3.7 10.9,5.2 4,2 7.5,3.7 10.3,5.1 5.2,2.6 8.5,4.2 9.4,4.6 1.8,0.8 -8.7,-3 -26.1,-9.9 z"/><path id="path114" fill="#262424" d="m 1530.8,853.1 c 0,0 1.1,-0.5 3.2,-1.4 2.1,-0.9 5.1,-2.1 9,-3.3 3.9,-1.3 8.5,-2.5 13.9,-3.5 2.7,-0.5 5.5,-0.8 8.5,-1 3,-0.2 6.1,-0.2 9.3,0.2 3.2,0.4 6.3,1 9.2,2.1 2.9,1.1 5.5,2.6 7.8,4.4 0.5,0.5 1.1,0.9 1.6,1.4 0.5,0.5 0.9,1 1.4,1.5 0.4,0.5 0.8,1.1 1.2,1.6 0.2,0.3 0.4,0.5 0.6,0.8 0.2,0.3 0.3,0.6 0.5,0.8 0.3,0.5 0.6,1.1 0.9,1.6 0.2,0.6 0.5,1.1 0.7,1.6 0.5,1 0.7,2.1 1,3.1 0.5,2 0.7,3.9 0.8,5.5 0.2,1.6 0,3 0,4.2 -0.2,2.4 -0.5,3.8 -0.5,4.2 0,0.4 -0.3,-0.6 -0.5,-2.8 -0.1,-1.1 -0.4,-2.4 -0.7,-3.9 -0.2,-0.8 -0.4,-1.6 -0.6,-2.4 -0.1,-0.4 -0.2,-0.9 -0.4,-1.3 -0.2,-0.4 -0.3,-0.9 -0.5,-1.4 -1.4,-3.7 -3.9,-7.6 -7.9,-10.4 -2,-1.4 -4.3,-2.5 -6.8,-3.3 -2.6,-0.8 -5.3,-1.3 -8.2,-1.7 -2.9,-0.3 -5.7,-0.4 -8.5,-0.4 -2.8,0 -5.5,0.1 -8.1,0.3 -5.2,0.4 -9.9,0.9 -13.8,1.5 -4,0.5 -7.2,1 -9.4,1.4 -2.4,0.4 -3.7,0.6 -3.7,0.6 z"/><path id="path116" fill="#262424" d="m 1599.8,861.8 c 0,0 0.1,0.4 0.2,1 0.1,0.7 0.3,1.7 0.5,3 0.2,2.6 0.3,6.5 -1.5,11.1 -0.2,0.6 -0.4,1.1 -0.7,1.7 -0.3,0.6 -0.6,1.1 -1,1.7 -0.2,0.3 -0.3,0.6 -0.5,0.9 -0.2,0.3 -0.4,0.5 -0.6,0.8 -0.4,0.5 -0.8,1.1 -1.3,1.7 -1.9,2.1 -4.3,4.1 -7.2,5.7 -2.9,1.5 -6.1,2.7 -9.6,3.3 -3.5,0.6 -7.2,0.7 -10.9,0 -3.7,-0.7 -7.2,-2.1 -10.2,-4 -2.9,-2 -5.4,-4.5 -7,-7.3 -1.6,-2.8 -2.6,-5.7 -3,-8.5 -0.1,-0.7 -0.2,-1.4 -0.3,-2 0,-0.7 0,-1.3 0,-2 0,-0.6 -0.1,-1.3 0,-1.9 0.1,-0.6 0.1,-1.2 0.2,-1.8 0.1,-0.6 0.1,-1.1 0.2,-1.7 0.1,-0.5 0.2,-1.1 0.3,-1.6 0.2,-1 0.5,-2 0.7,-2.9 0.6,-1.8 1.1,-3.3 1.6,-4.5 1.1,-2.4 1.8,-4 2,-4.4 0.2,-0.4 -0.1,0.7 -0.7,3.1 -0.1,0.6 -0.4,1.3 -0.5,2 -0.1,0.8 -0.3,1.6 -0.5,2.5 -0.1,0.4 -0.2,0.9 -0.3,1.4 -0.1,0.5 -0.1,1 -0.2,1.5 -0.1,1 -0.3,2.1 -0.3,3.3 -0.2,4.6 0.5,10.1 3.6,15 1.6,2.4 3.7,4.5 6.3,6.1 2.6,1.6 5.6,2.8 8.8,3.3 3.2,0.6 6.5,0.6 9.5,0.2 3.1,-0.4 6,-1.3 8.6,-2.5 2.6,-1.2 4.8,-2.8 6.7,-4.5 0.4,-0.5 0.9,-0.9 1.3,-1.4 0.2,-0.2 0.4,-0.5 0.6,-0.7 0.2,-0.2 0.3,-0.5 0.5,-0.7 0.3,-0.5 0.7,-1 1,-1.4 0.3,-0.5 0.5,-1 0.8,-1.5 2.1,-3.9 2.5,-7.6 2.7,-10.2 0.1,-1.3 0,-2.3 0,-3 0.2,-0.4 0.2,-0.8 0.2,-0.8 z"/><path id="path118" fill="#262424" d="m 1594.1,861.9 c 0,0 -0.1,1.1 -0.2,2.9 -0.1,0.9 -0.4,2.1 -0.6,3.4 -0.4,1.3 -0.8,2.8 -1.6,4.4 -0.7,1.6 -1.8,3.3 -3.1,4.9 -1.4,1.6 -3.1,3.2 -5.3,4.3 -4.3,2.3 -10.2,3 -15.6,1.2 -5.4,-1.8 -9.6,-5.5 -12,-9.6 -1.2,-2 -2,-4.1 -2.4,-6.2 -0.5,-2 -0.5,-3.9 -0.4,-5.7 0.1,-1.7 0.4,-3.3 0.8,-4.6 0.3,-1.3 0.8,-2.4 1.1,-3.3 0.8,-1.8 1.4,-2.9 1.6,-3.2 0.2,-0.3 0,0.6 -0.5,2.3 -0.2,0.9 -0.4,2 -0.6,3.3 0,0.7 -0.1,1.4 -0.2,2.1 -0.1,0.7 0,1.5 0,2.4 0.1,3.3 1.2,7.1 3.5,10.6 2.4,3.4 6.1,6.3 10.4,7.8 4.4,1.5 9,1.2 12.6,-0.3 1.9,-0.7 3.4,-1.9 4.8,-3.1 1.3,-1.3 2.5,-2.6 3.3,-3.9 0.9,-1.3 1.5,-2.7 2.2,-3.8 0.5,-1.2 1,-2.3 1.3,-3.1 0.6,-1.8 0.9,-2.8 0.9,-2.8 z"/><path id="path120" fill="#262424" d="m 1396.8,877.1 c 0,0 1.2,0.4 3.3,1.1 1.1,0.4 2.4,0.8 3.9,1.3 1.5,0.5 3.3,1.1 5.2,1.6 1.9,0.6 4.1,1.2 6.4,1.8 1.1,0.3 2.3,0.6 3.5,0.9 1.2,0.3 2.5,0.6 3.8,0.9 5.2,1.1 10.9,2.2 17,3 6.1,0.8 11.8,1.2 16.9,1.4 2.6,0 5,0.1 7.3,0 1.1,0 2.3,0 3.3,-0.1 1.1,-0.1 2.1,-0.1 3.1,-0.2 7.8,-0.4 12.8,-1.2 13.6,-1.2 0.4,-0.1 -0.6,0.2 -2.7,0.8 -2.1,0.6 -5.4,1.2 -9.5,1.9 -2.1,0.3 -4.3,0.6 -6.8,0.8 -1.2,0.1 -2.5,0.2 -3.8,0.3 -1.3,0 -2.7,0.1 -4,0.1 -5.5,0.1 -11.6,-0.2 -17.8,-1 -6.2,-0.8 -12,-2.1 -17.2,-3.5 -1.3,-0.4 -2.6,-0.7 -3.8,-1.1 -1.2,-0.4 -2.4,-0.8 -3.5,-1.2 -2.3,-0.7 -4.4,-1.6 -6.3,-2.3 -1.9,-0.7 -3.6,-1.5 -5.1,-2.1 -1.5,-0.6 -2.7,-1.2 -3.8,-1.7 -1.9,-1 -3,-1.5 -3,-1.5 z"/><path id="path122" fill="#262424" d="m 1371.8,891 c 0,0 1.7,0.6 4.9,1.8 0.8,0.3 1.7,0.6 2.6,0.9 1,0.3 2,0.7 3.1,1 1.1,0.4 2.3,0.8 3.6,1.2 1.3,0.4 2.6,0.8 4.1,1.2 5.7,1.8 12.5,3.6 20.2,5.2 7.7,1.7 16.2,2.9 25.2,3.7 9,0.7 17.4,1 25.1,0.7 1,0 1.9,0 2.8,-0.1 0.9,0 1.8,-0.1 2.7,-0.2 1.8,-0.1 3.6,-0.2 5.2,-0.3 3.4,-0.2 6.5,-0.6 9.4,-0.9 11.5,-1.3 18.8,-2.7 20,-2.8 0.6,-0.1 -0.9,0.3 -4,1.1 -1.6,0.4 -3.5,0.9 -5.9,1.4 -2.4,0.5 -5.1,1 -8.1,1.6 -3,0.5 -6.4,1 -9.9,1.5 -1.8,0.2 -3.7,0.4 -5.6,0.6 -1,0.1 -1.9,0.2 -2.9,0.3 -1,0.1 -2,0.1 -3,0.2 -2,0.1 -4.1,0.2 -6.2,0.3 -2.1,0 -4.3,0 -6.5,0.1 -2.2,0.1 -4.4,-0.1 -6.7,-0.2 -1.1,0 -2.3,-0.1 -3.4,-0.1 -1.1,-0.1 -2.3,-0.2 -3.4,-0.3 -9.1,-0.8 -17.8,-2.3 -25.4,-4.2 -7.7,-1.9 -14.5,-4.1 -20.1,-6.2 -1.4,-0.5 -2.7,-1 -4,-1.5 -1.2,-0.5 -2.4,-1 -3.5,-1.5 -1.1,-0.5 -2.1,-0.9 -3,-1.3 -0.9,-0.4 -1.8,-0.8 -2.5,-1.1 -3.1,-1.3 -4.8,-2.1 -4.8,-2.1 z"/><path id="path124" fill="#262424" d="m 1334.2,908.3 c 0,0 2.4,0.4 6.7,1.2 2.1,0.4 4.8,0.9 7.8,1.5 3.1,0.6 6.5,1.2 10.4,1.9 3.8,0.7 8.1,1.4 12.6,2.2 2.3,0.4 4.6,0.8 7,1.2 2.4,0.4 4.9,0.8 7.5,1.2 1.3,0.2 2.6,0.4 3.9,0.6 1.3,0.2 2.6,0.4 4,0.5 2.7,0.4 5.4,0.7 8.2,1.1 2.8,0.3 5.6,0.6 8.5,1 2.9,0.4 5.8,0.5 8.8,0.8 11.8,1 22.9,1.3 33,1.1 10,-0.2 19,-1.2 26.5,-2 15.1,-1.9 24.6,-3.9 26.2,-4.1 0.8,-0.1 -1.1,0.4 -5.3,1.4 -2.1,0.5 -4.6,1.1 -7.7,1.8 -1.5,0.3 -3.2,0.7 -5,1 -1.8,0.3 -3.7,0.7 -5.6,1 -2,0.4 -4.1,0.7 -6.2,1 -2.2,0.3 -4.4,0.7 -6.8,1 -2.4,0.2 -4.8,0.5 -7.3,0.8 -2.5,0.2 -5.1,0.4 -7.8,0.5 -10.6,0.6 -22.3,0.4 -34.2,-0.6 -3,-0.3 -5.9,-0.5 -8.8,-0.9 -2.9,-0.4 -5.7,-0.7 -8.5,-1.1 -2.8,-0.4 -5.5,-0.9 -8.2,-1.3 -1.3,-0.2 -2.7,-0.4 -4,-0.6 -1.3,-0.2 -2.6,-0.5 -3.9,-0.7 -2.5,-0.5 -5,-0.9 -7.4,-1.4 -2.4,-0.5 -4.7,-1 -7,-1.4 -4.5,-0.9 -8.7,-1.8 -12.5,-2.7 -3.8,-0.9 -7.3,-1.7 -10.3,-2.4 -3,-0.8 -5.6,-1.4 -7.7,-1.9 -4.5,-1.1 -6.9,-1.7 -6.9,-1.7 z"/><path id="path126" fill="#262424" d="m 1294.2,920.1 c 0,0 3.2,0.7 8.9,2 2.9,0.6 6.4,1.5 10.5,2.3 4.1,0.9 8.8,1.8 13.9,2.9 5.2,1 10.8,2 16.9,3.2 3.1,0.5 6.2,1 9.5,1.6 1.6,0.3 3.3,0.6 4.9,0.8 1.7,0.2 3.4,0.5 5.1,0.7 3.4,0.5 7,1 10.6,1.5 3.6,0.4 7.3,0.9 11.1,1.3 3.8,0.5 7.6,0.7 11.5,1.1 1.9,0.2 3.9,0.4 5.9,0.5 2,0.1 4,0.2 6,0.4 16,1 31,1.2 44.6,0.5 1.7,-0.1 3.4,-0.1 5,-0.2 1.6,-0.1 3.3,-0.2 4.9,-0.4 3.2,-0.3 6.3,-0.4 9.3,-0.7 6,-0.7 11.5,-1.1 16.6,-1.9 2.5,-0.4 5,-0.7 7.3,-1 2.3,-0.3 4.5,-0.8 6.5,-1.1 2,-0.4 4,-0.7 5.7,-1 0.9,-0.2 1.7,-0.3 2.6,-0.5 0.8,-0.2 1.6,-0.3 2.3,-0.5 6,-1.2 9.7,-2 10.8,-2.2 1.1,-0.2 -1.5,0.5 -7.1,1.9 -2.8,0.7 -6.2,1.6 -10.4,2.5 -4.1,0.9 -8.9,2 -14.3,2.9 -2.7,0.5 -5.5,0.9 -8.4,1.4 -2.9,0.4 -6,0.8 -9.2,1.2 -1.6,0.2 -3.2,0.5 -4.8,0.6 -1.6,0.2 -3.3,0.3 -5,0.5 -3.4,0.3 -6.9,0.7 -10.5,0.9 -14.3,1 -30,1 -46.1,-0.1 -2,-0.1 -4,-0.3 -6,-0.4 -2,-0.2 -4,-0.4 -5.9,-0.6 -3.9,-0.4 -7.8,-0.7 -11.5,-1.2 -3.8,-0.5 -7.5,-1 -11.1,-1.5 -3.6,-0.6 -7.1,-1.2 -10.6,-1.7 -1.7,-0.3 -3.4,-0.6 -5.1,-0.8 -1.7,-0.3 -3.3,-0.6 -4.9,-1 -3.2,-0.6 -6.4,-1.2 -9.5,-1.8 -6.1,-1.3 -11.7,-2.6 -16.9,-3.7 -5.1,-1.3 -9.8,-2.4 -13.8,-3.4 -4.1,-1 -7.5,-2 -10.4,-2.8 -5.7,-1.3 -8.9,-2.2 -8.9,-2.2 z"/><path id="path128" fill="#262424" d="m 1541.3,940.1 c 0,0 -1,0.4 -2.8,1 -1.8,0.7 -4.6,1.7 -8.1,3 -7,2.5 -17.3,6.1 -30.3,9.3 -26,6.8 -63.3,9.6 -104,6.8 -20.4,-1.4 -39.3,-4.1 -56.3,-7.3 -2.1,-0.4 -4.2,-0.8 -6.3,-1.2 -2.1,-0.4 -4.1,-0.9 -6.1,-1.3 -4,-0.9 -7.9,-1.7 -11.6,-2.6 -7.4,-1.9 -14.3,-3.5 -20.5,-5.5 -3.1,-0.9 -6.1,-1.8 -8.9,-2.6 -2.8,-0.8 -5.5,-1.8 -8,-2.6 -2.5,-0.8 -4.8,-1.6 -7,-2.3 -1.1,-0.4 -2.1,-0.7 -3.1,-1.1 -1,-0.4 -1.9,-0.7 -2.8,-1.1 -7.2,-2.7 -11.7,-4.4 -13,-4.9 -1.3,-0.5 2,0.6 8.8,2.8 3.4,1.1 7.7,2.7 12.9,4.1 5.1,1.5 11,3.4 17.6,5.1 26.4,7.2 64,14.8 104.5,17.5 40.5,2.8 77.5,0.6 103.5,-5.4 13,-2.9 23.3,-6.1 30.4,-8.3 3.6,-1.1 6.3,-2 8.2,-2.6 1.9,-0.5 2.9,-0.8 2.9,-0.8 z"/><path id="path130" fill="#262424" d="m 1574.3,949.1 c 0,0 -0.3,0.2 -0.8,0.7 -0.5,0.4 -1.2,1.1 -2.2,1.9 -2,1.6 -5.1,3.9 -9.4,6.4 -8.5,5 -21.8,10.6 -38.9,15 -34.2,9 -83.3,13.6 -137.1,10.2 -26.9,-1.7 -51.9,-5.2 -74.2,-9.7 -22.3,-4.5 -41.9,-10 -58.2,-15.7 -16.2,-5.6 -29.1,-11.3 -38.3,-15.8 -2.3,-1.2 -4.4,-2.2 -6.2,-3.1 -1.8,-1 -3.4,-1.8 -4.8,-2.5 -2.7,-1.5 -4.5,-2.5 -5.3,-3 -0.8,-0.4 -0.2,-0.2 1.7,0.8 0.9,0.5 2.2,1.1 3.7,1.9 1.6,0.8 3.4,1.7 5.5,2.7 8.6,4.1 21.8,10 38.9,15.8 17.1,5.8 38,11.6 61.3,16.1 23.4,4.6 49.2,7.9 76,9.6 53.5,3.4 102.4,-0.5 136.6,-8.7 17.1,-4 30.4,-9.3 39.1,-14 4.3,-2.4 7.5,-4.5 9.5,-6.1 1,-0.8 1.8,-1.4 2.3,-1.8 0.5,-0.5 0.8,-0.7 0.8,-0.7 z"/><path id="path132" fill="#262424" d="m 1605.8,961.1 c 0,0 -1.5,0.8 -4.3,2.3 -2.9,1.4 -7.2,3.4 -12.8,5.7 -2.8,1.1 -6,2.3 -9.5,3.6 -3.5,1.2 -7.3,2.6 -11.4,3.9 -8.2,2.7 -17.7,5.4 -28.3,8 -10.6,2.6 -22.3,5 -34.9,7.3 -12.7,2.2 -26.3,4 -40.6,5.5 -14.4,1.3 -29.5,2.3 -45.2,2.7 -3.9,0.1 -7.9,0.1 -11.9,0.1 -2,0 -4,0 -6,0 -2,0 -4,-0.1 -6.1,-0.1 -4.1,-0.1 -8.1,-0.1 -12.3,-0.3 -4.1,-0.2 -8.2,-0.4 -12.4,-0.6 -16.6,-1.1 -32.7,-2.6 -48,-4.9 -1.9,-0.3 -3.8,-0.5 -5.7,-0.8 -1.9,-0.3 -3.8,-0.5 -5.6,-0.9 -3.7,-0.7 -7.4,-1.3 -11.1,-1.9 -1.8,-0.3 -3.6,-0.6 -5.4,-1 -1.8,-0.4 -3.6,-0.7 -5.3,-1.1 -3.5,-0.7 -7,-1.5 -10.5,-2.2 -27.5,-6 -51.6,-13.4 -71.6,-20.6 -2.5,-0.9 -5,-1.8 -7.3,-2.6 -2.4,-0.8 -4.7,-1.8 -6.9,-2.7 -4.5,-1.8 -8.7,-3.4 -12.7,-5 -2,-0.8 -3.9,-1.6 -5.7,-2.4 -1.8,-0.8 -3.6,-1.6 -5.3,-2.3 -3.4,-1.5 -6.6,-2.9 -9.5,-4.1 -11.4,-5.4 -18.5,-8.9 -20.5,-9.8 -2,-1 3.1,1.3 13.8,6.2 10.7,4.9 27.3,11.7 48.3,19.2 5.3,1.8 10.8,3.6 16.6,5.6 5.8,1.8 11.9,3.6 18.2,5.5 1.6,0.5 3.2,0.9 4.8,1.3 1.6,0.4 3.2,0.9 4.9,1.3 3.3,0.9 6.6,1.8 10,2.7 3.4,0.9 6.9,1.6 10.4,2.4 3.5,0.8 7,1.6 10.6,2.5 3.6,0.7 7.3,1.4 11,2.2 3.7,0.7 7.4,1.5 11.2,2.1 7.6,1.3 15.3,2.7 23.1,3.6 15.7,2.3 32,3.8 48.5,4.9 4.1,0.2 8.3,0.4 12.3,0.6 4.1,0.2 8.2,0.2 12.2,0.4 2,0.1 4,0.1 6,0.2 2,0 4,0 6,0 4,0 7.9,0 11.8,0 15.6,-0.3 30.7,-1.1 45,-2.3 14.3,-1.3 27.9,-3 40.5,-5 12.6,-2.1 24.3,-4.3 34.9,-6.7 10.6,-2.5 20.1,-4.9 28.4,-7.5 4.2,-1.2 8,-2.5 11.5,-3.7 3.5,-1.2 6.7,-2.4 9.5,-3.4 5.7,-2.2 10,-4.1 12.9,-5.4 2.9,-1.8 4.4,-2.5 4.4,-2.5 z"/><path id="path134" fill="#262424" d="m 1632.2,970.8 c 0,0 -1.8,0.9 -5.4,2.6 -1.8,0.8 -3.9,1.9 -6.5,3.1 -2.6,1.2 -5.6,2.5 -9,4 -13.6,5.9 -33.5,13.8 -59,21 -25.5,7.2 -56.5,13.5 -91.5,16.5 -17.5,1.5 -35.9,2.3 -54.9,2.1 -19.1,-0.2 -38.8,-1.3 -58.9,-3.4 -40.2,-4.2 -77.4,-11.8 -110.4,-20.5 -33,-8.7 -62,-18.6 -86,-27.8 -24.1,-9.2 -43.3,-17.8 -57.2,-24.3 -13.9,-6.5 -22.3,-10.9 -24.8,-12.1 -1.2,-0.6 -0.3,-0.2 2.6,1.1 2.8,1.3 7.6,3.6 14.1,6.6 13,6 32.9,14.8 58.2,24.4 25.4,9.6 56.2,20 90.8,29 34.6,9 73,16.6 113.1,20.8 20,2.1 39.7,3.2 58.7,3.5 19,0.2 37.3,-0.4 54.7,-1.8 34.8,-2.7 65.8,-8.7 91.3,-15.5 25.5,-6.8 45.6,-14.4 59.3,-20 3.4,-1.4 6.4,-2.7 9.1,-3.8 2.6,-1.2 4.8,-2.2 6.6,-3 3.3,-1.7 5.1,-2.5 5.1,-2.5 z"/><path id="path136" fill="#262424" d="m 1672.2,988.6 c 0,0 -2.2,0.9 -6.4,2.5 -2.1,0.8 -4.7,1.9 -7.8,3.1 -3.1,1.2 -6.7,2.5 -10.7,4 -2,0.7 -4.2,1.5 -6.4,2.3 -2.3,0.8 -4.6,1.6 -7.1,2.4 -2.5,0.8 -5.1,1.7 -7.8,2.6 -2.7,0.9 -5.5,1.7 -8.5,2.7 -11.7,3.7 -25.1,7.5 -40.1,11.2 -29.9,7.4 -66.2,14.1 -106.9,17.5 -40.7,3.5 -85.7,3.5 -132.6,-1.3 -46.9,-4.7 -90.2,-13.6 -128.6,-24 -38.4,-10.4 -71.9,-22.5 -99.8,-33.8 -27.8,-11.3 -50,-21.9 -66,-29.8 -8,-4 -14.4,-7.3 -19.2,-9.7 -4.8,-2.5 -8,-4.1 -9.5,-4.7 -1.4,-0.7 -0.3,-0.2 3,1.3 3.3,1.6 8.8,4.3 16.3,7.9 15,7.3 37.8,18.2 67.1,30.1 29.3,11.9 65,24.6 105.2,35.5 10.1,2.7 20.4,5.3 31,7.7 10.6,2.4 21.4,4.7 32.4,6.8 22.1,4.1 44.9,7.6 68.3,9.9 46.7,4.7 91.6,4.9 132.1,1.7 40.6,-3.1 76.8,-9.4 106.7,-16.5 15,-3.5 28.4,-7.1 40.2,-10.7 2.9,-0.9 5.8,-1.7 8.5,-2.5 2.7,-0.9 5.3,-1.7 7.8,-2.5 2.5,-0.8 4.9,-1.6 7.2,-2.3 2.3,-0.8 4.4,-1.5 6.4,-2.2 4.1,-1.4 7.7,-2.6 10.8,-3.8 3.1,-1.2 5.7,-2.1 7.9,-2.9 4.3,-1.7 6.5,-2.5 6.5,-2.5 z"/><path id="path138" fill="#262424" d="m 1715.7,1002.3 c 0,0 -2.6,1.2 -7.5,3.4 -2.5,1.1 -5.5,2.5 -9.2,4.1 -3.7,1.5 -7.9,3.3 -12.7,5.3 -2.4,1 -4.9,2 -7.6,3 -2.7,1 -5.5,2.1 -8.4,3.2 -2.9,1.2 -6,2.2 -9.2,3.4 -3.2,1.1 -6.6,2.3 -10,3.5 -13.9,4.6 -29.9,9.6 -47.8,14 -17.9,4.5 -37.8,8.6 -59.2,11.9 -21.5,3.3 -44.6,5.9 -69,7.3 -6.1,0.4 -12.3,0.6 -18.5,0.9 -3.1,0.2 -6.3,0.2 -9.4,0.2 -3.2,0.1 -6.3,0.1 -9.5,0.2 -3.2,0 -6.4,0 -9.6,0 -3.2,0 -6.5,0 -9.7,-0.1 -6.5,-0.2 -13.1,-0.2 -19.8,-0.5 -3.3,-0.1 -6.7,-0.3 -10,-0.4 -3.3,-0.2 -6.7,-0.4 -10.1,-0.6 -1.7,-0.1 -3.4,-0.2 -5.1,-0.3 -1.7,-0.1 -3.4,-0.3 -5.1,-0.4 -3.4,-0.3 -6.8,-0.5 -10.2,-0.8 -13.7,-1.2 -27.5,-2.6 -41.5,-4.5 -7,-0.8 -13.9,-2 -20.8,-2.9 -3.4,-0.5 -6.8,-1.1 -10.2,-1.6 -1.7,-0.3 -3.4,-0.5 -5.1,-0.8 -1.7,-0.3 -3.4,-0.6 -5,-0.9 -3.4,-0.6 -6.7,-1.2 -10,-1.8 -3.3,-0.6 -6.6,-1.3 -9.9,-1.9 -3.3,-0.6 -6.5,-1.3 -9.8,-2 -3.2,-0.7 -6.5,-1.3 -9.7,-2 -25.6,-5.5 -50,-11.7 -72.9,-18.2 -22.9,-6.6 -44.4,-13.4 -64.3,-20.4 -19.9,-6.9 -38.3,-13.9 -54.9,-20.7 -16.7,-6.7 -31.7,-13.2 -44.9,-19.3 -13.2,-6 -24.6,-11.5 -34.2,-16.3 C 945.8,936.7 934.3,930 931,928 c -3.2,-2 4.8,3.1 22.6,12.1 17.8,9 45.2,22 80.3,36.2 35.1,14.2 77.8,29.6 125.8,43.2 48,13.7 101.4,25.5 157.2,32.8 13.9,1.9 27.8,3.3 41.4,4.5 3.4,0.3 6.8,0.5 10.2,0.8 1.7,0.1 3.4,0.3 5.1,0.4 1.7,0.1 3.4,0.2 5.1,0.3 3.4,0.2 6.7,0.4 10.1,0.6 3.3,0.1 6.7,0.3 10,0.4 6.6,0.3 13.2,0.4 19.7,0.6 3.3,0.1 6.5,0.1 9.7,0.1 3.2,0 6.4,0 9.6,0 3.2,0 6.4,-0.1 9.5,-0.1 3.2,-0.1 6.3,-0.1 9.4,-0.2 6.2,-0.2 12.4,-0.4 18.5,-0.8 24.3,-1.3 47.4,-3.6 68.8,-6.8 21.4,-3.2 41.2,-7.1 59.2,-11.4 17.9,-4.3 33.9,-9.1 47.9,-13.5 3.5,-1.2 6.8,-2.3 10,-3.4 3.2,-1.1 6.3,-2.1 9.3,-3.2 2.9,-1.1 5.8,-2.1 8.4,-3.1 2.7,-1 5.2,-1.9 7.6,-2.9 4.8,-1.9 9,-3.6 12.7,-5.1 3.6,-1.6 6.7,-2.9 9.2,-4 4.8,-2 7.4,-3.2 7.4,-3.2 z"/><path id="path140" fill="#262424" d="m 1750.2,1022.4 c 0,0 -2.9,1.4 -8.5,4 -1.4,0.6 -3,1.4 -4.7,2.2 -1.7,0.8 -3.6,1.7 -5.7,2.6 -4.1,1.8 -8.9,3.8 -14.3,6.1 -5.4,2.1 -11.5,4.5 -18.1,7.1 -3.4,1.2 -6.9,2.4 -10.5,3.7 -1.8,0.6 -3.7,1.3 -5.6,2 -1.9,0.6 -3.9,1.3 -5.8,1.9 -4,1.3 -8.1,2.6 -12.3,4 -4.3,1.2 -8.7,2.5 -13.2,3.8 -4.5,1.4 -9.2,2.5 -14,3.8 -2.4,0.6 -4.9,1.3 -7.3,1.9 -2.5,0.6 -5,1.2 -7.6,1.8 -20.4,4.8 -42.9,9.1 -67.4,12.4 -24.4,3.3 -50.7,5.6 -78.3,6.6 -13.8,0.6 -28,0.7 -42.5,0.6 -3.6,-0.1 -7.3,-0.1 -10.9,-0.2 -3.7,-0.1 -7.3,-0.1 -11,-0.3 -7.4,-0.3 -14.9,-0.5 -22.4,-1 -15.1,-0.8 -30.3,-2.1 -45.8,-3.6 -3.9,-0.4 -7.8,-0.8 -11.6,-1.3 -1.9,-0.2 -3.9,-0.4 -5.9,-0.6 -2,-0.2 -3.9,-0.5 -5.9,-0.7 -3.9,-0.5 -7.8,-1 -11.8,-1.5 -3.9,-0.5 -7.9,-1.1 -11.8,-1.6 -63.3,-9.1 -121.7,-22.6 -173.6,-37.5 -26,-7.4 -50.3,-15.2 -72.9,-23 -22.6,-7.8 -43.4,-15.6 -62.4,-23.2 -37.9,-15.1 -68.1,-29.3 -89.6,-40.3 -10.8,-5.5 -19.4,-10.3 -25.7,-14.1 -6.3,-3.8 -10.3,-6.5 -12.1,-7.8 -1.8,-1.3 -0.5,-0.3 3.7,2.4 4.2,2.7 11.4,7 21.3,12.2 10,5.3 22.7,11.6 38,18.7 15.3,7 33,14.7 52.9,22.7 39.8,16 88.3,33.2 142.8,48.8 54.4,15.6 114.9,29.3 178,38.3 3.9,0.5 7.9,1.1 11.8,1.6 3.9,0.5 7.8,1 11.8,1.5 2,0.2 3.9,0.5 5.8,0.7 1.9,0.2 3.9,0.4 5.8,0.6 3.9,0.4 7.8,0.8 11.6,1.3 15.5,1.5 30.7,2.8 45.7,3.6 7.5,0.5 14.9,0.8 22.3,1.1 3.7,0.2 7.4,0.2 11,0.3 3.7,0.1 7.3,0.2 10.9,0.2 14.5,0.1 28.6,0.1 42.4,-0.4 27.6,-0.9 53.8,-3 78.2,-6.2 24.4,-3.1 46.9,-7.2 67.3,-11.8 2.5,-0.6 5.1,-1.1 7.6,-1.7 2.5,-0.6 4.9,-1.2 7.3,-1.8 4.8,-1.2 9.5,-2.3 14.1,-3.7 4.5,-1.3 8.9,-2.5 13.2,-3.7 4.2,-1.3 8.3,-2.6 12.3,-3.8 2,-0.6 3.9,-1.2 5.8,-1.8 1.9,-0.7 3.8,-1.3 5.6,-1.9 3.6,-1.3 7.2,-2.5 10.5,-3.6 6.7,-2.5 12.7,-4.8 18.2,-6.9 5.4,-2.2 10.2,-4.2 14.4,-5.9 2.1,-0.8 4,-1.7 5.7,-2.5 1.7,-0.8 3.3,-1.5 4.7,-2.1 5.6,-2.7 8.5,-4 8.5,-4 z"/><path id="path142" fill="#262424" d="m 1798.2,1034.9 c 0,0 -3.5,1.5 -10.1,4.4 -3.3,1.4 -7.4,3.3 -12.3,5.3 -4.9,2 -10.6,4.2 -16.9,6.7 -3.2,1.3 -6.6,2.5 -10.2,3.8 -3.6,1.3 -7.3,2.7 -11.3,4.1 -2,0.7 -4,1.4 -6,2.1 -2.1,0.7 -4.2,1.4 -6.3,2.1 -4.3,1.4 -8.8,2.9 -13.4,4.4 -18.6,5.7 -40.1,11.6 -64,16.9 -24,5.3 -50.5,9.9 -79.1,13.5 -28.6,3.6 -59.4,6 -91.9,6.9 -32.4,0.9 -66.5,0.1 -101.8,-2.2 -35.2,-2.3 -71.6,-6.5 -108.6,-12.2 -74,-11.6 -142.2,-28.5 -202.8,-46.8 -15.2,-4.5 -29.8,-9.3 -44,-13.9 -14.2,-4.8 -27.9,-9.4 -41.1,-14.2 -26.4,-9.5 -50.7,-18.9 -72.8,-28 -22.1,-9 -42,-17.7 -59.6,-25.7 -17.6,-8 -32.8,-15.2 -45.5,-21.5 -25.5,-12.5 -41,-21.1 -45.4,-23.5 -4.4,-2.5 6.6,3.7 30.3,15.5 23.7,11.7 60.2,29 106.7,48.1 46.5,19.1 103.1,40.1 166.6,59.3 63.5,19.2 134.1,36.3 208,47.9 36.9,5.7 73.2,9.9 108.4,12.3 35.2,2.4 69.2,3.3 101.5,2.5 32.4,-0.8 63.1,-3 91.7,-6.4 28.6,-3.4 55.1,-7.9 79,-13 23.9,-5.2 45.4,-10.8 64,-16.4 4.7,-1.4 9.1,-2.9 13.4,-4.2 2.2,-0.7 4.3,-1.4 6.3,-2 2.1,-0.7 4.1,-1.3 6.1,-2 3.9,-1.4 7.7,-2.7 11.3,-4 3.6,-1.3 7,-2.4 10.2,-3.7 6.4,-2.5 12.1,-4.7 17,-6.6 4.9,-2 9,-3.8 12.3,-5.1 6.9,-2.9 10.3,-4.4 10.3,-4.4 z"/><path id="path144" fill="#262424" d="m 1587.2,861.8 c 0,0 0,-0.3 -0.1,-0.8 0,-0.3 -0.1,-0.6 -0.2,-1 -0.1,-0.4 -0.2,-0.8 -0.4,-1.3 -0.6,-1.9 -2.1,-4.7 -5,-6.8 -1.5,-1 -3.3,-1.8 -5.3,-2.1 -2,-0.3 -4.3,-0.1 -6.4,0.7 -1.1,0.4 -2.1,1 -3,1.7 -0.9,0.7 -1.8,1.6 -2.5,2.6 -1.4,2 -2.2,4.4 -2.3,7 0,2.6 0.8,5 2.2,7 1.4,2 3.3,3.4 5.3,4.3 1,0.5 2.1,0.7 3.1,0.9 1,0.1 2.1,0.2 3.1,0 2,-0.2 3.8,-0.9 5.2,-1.8 1.5,-0.9 2.6,-2 3.5,-3.2 0.9,-1.1 1.4,-2.3 1.8,-3.3 0.2,-0.5 0.3,-1 0.4,-1.4 0.1,-0.4 0.2,-0.8 0.3,-1.1 0.3,-0.7 0.3,-1.1 0.3,-1.4 0,-0.1 0,0 0.1,0.5 0,0.2 0,0.5 0,0.9 0,0.4 -0.1,0.8 -0.1,1.3 -0.2,1 -0.4,2.3 -1.1,3.7 -0.7,1.4 -1.7,3 -3.2,4.3 -1.5,1.4 -3.5,2.5 -5.9,3.1 -2.4,0.6 -5.1,0.6 -7.8,-0.3 -1.3,-0.4 -2.6,-1.1 -3.8,-1.9 -1.2,-0.8 -2.3,-1.9 -3.2,-3.1 -1.9,-2.4 -2.9,-5.5 -2.9,-8.7 0,-3.2 1.1,-6.3 2.9,-8.6 0.9,-1.2 2,-2.2 3.1,-3 1.2,-0.8 2.4,-1.5 3.7,-1.9 2.6,-0.9 5.2,-0.9 7.5,-0.4 2.3,0.5 4.3,1.6 5.8,2.9 1.5,1.3 2.6,2.7 3.3,4.1 0.7,1.4 1.1,2.6 1.3,3.7 0.1,0.5 0.1,1 0.2,1.4 0,0.4 0,0.8 0,1 0.2,0.7 0.1,1 0.1,1 z"/><path id="path146" fill="#ffffff" d="m 1594.1,864.3 c 0,3.8 -3.1,6.8 -6.8,6.8 -3.7,0 -6.8,-3.1 -6.8,-6.8 0,-3.7 3.1,-6.8 6.8,-6.8 3.7,0 6.8,3 6.8,6.8 z"/><path id="path148" fill="none" stroke="#262424" stroke-miterlimit="10" stroke-width="2" d="m 1594.1,864.3 c 0,3.8 -3.1,6.8 -6.8,6.8 -3.7,0 -6.8,-3.1 -6.8,-6.8 0,-3.7 3.1,-6.8 6.8,-6.8 3.7,0 6.8,3 6.8,6.8 z"/><path id="path150" fill="#262424" d="m 476.2,716 c 0,0 0,-0.9 -0.1,-2.5 0,-1.6 -0.2,-4 -0.5,-6.8 -0.4,-2.9 -0.8,-6.2 -1.8,-9.9 -0.4,-1.8 -1.1,-3.7 -1.7,-5.6 -0.4,-0.9 -0.8,-1.9 -1.2,-2.9 l -0.3,-0.7 -0.4,-0.7 c -0.2,-0.5 -0.5,-0.9 -0.7,-1.4 -2,-3.8 -4.3,-7.1 -6.8,-9.7 -0.6,-0.7 -1.3,-1.2 -1.9,-1.8 -0.3,-0.3 -0.6,-0.6 -0.9,-0.9 -0.3,-0.3 -0.7,-0.5 -1,-0.7 -0.6,-0.5 -1.3,-0.9 -1.9,-1.4 -0.6,-0.4 -1.3,-0.8 -1.9,-1.1 -4.8,-2.8 -8.4,-3.5 -9,-3.8 -0.3,-0.1 0.5,0 2,0.2 1.6,0.2 3.9,0.7 6.8,1.8 0.7,0.3 1.4,0.6 2.2,1 0.4,0.2 0.8,0.4 1.1,0.6 0.4,0.2 0.8,0.5 1.1,0.7 1.6,0.9 3.1,2.1 4.7,3.4 3,2.7 5.8,6.3 7.9,10.4 0.3,0.5 0.5,1 0.8,1.5 l 0.4,0.8 0.3,0.8 c 0.4,1 0.8,2.1 1.2,3.1 0.6,2.1 1.2,4 1.5,6 0.8,3.9 0.9,7.4 0.9,10.3 -0.1,2.9 -0.2,5.3 -0.5,6.9 -0.1,1.5 -0.3,2.4 -0.3,2.4 z"/><path id="path152" fill="#262424" d="m 518.2,722 c 0,0 0.2,0.9 0.5,2.4 0.2,1.5 0.6,3.8 0.6,6.7 0,2.8 -0.4,6.3 -1.8,9.9 -1.4,3.6 -3.9,7.4 -7.8,9.9 -1.9,1.3 -4,2.1 -6.1,2.6 -2.1,0.5 -4.1,0.6 -6,0.5 -3.8,-0.3 -7,-1.4 -9.5,-2.6 -5,-2.5 -7.5,-5 -7.9,-5.4 -0.2,-0.2 0.4,0.1 1.7,0.9 0.6,0.4 1.5,0.8 2.5,1.3 1,0.4 2.2,1 3.5,1.5 2.6,1 5.9,1.8 9.5,1.9 3.6,0 7.5,-0.8 10.7,-3 3.3,-2.2 5.6,-5.3 7.1,-8.5 1.5,-3.2 2.2,-6.4 2.6,-9.1 0.4,-2.7 0.3,-5 0.4,-6.5 0.1,-1.6 0,-2.5 0,-2.5 z"/><path id="path154" fill="#262424" d="m 506.2,682 c 0,0 0.4,0.4 1.1,1.2 0.3,0.4 0.8,0.8 1.2,1.4 0.4,0.6 0.9,1.2 1.5,2 0.5,0.8 1,1.6 1.6,2.6 0.3,0.5 0.5,1 0.8,1.5 0.3,0.5 0.5,1.1 0.7,1.7 1,2.3 1.6,5.1 1.4,8.1 -0.2,3 -1.5,5.7 -3.2,7.6 -0.4,0.5 -0.8,0.9 -1.3,1.3 -0.5,0.4 -0.9,0.7 -1.3,1.1 -0.4,0.4 -0.9,0.6 -1.3,0.9 -0.4,0.2 -0.8,0.5 -1.2,0.7 -1.6,0.8 -3,1.3 -4,1.6 -1,0.3 -1.7,0.4 -1.8,0.5 -0.2,0.1 0.2,-0.2 1,-0.7 0.4,-0.2 0.9,-0.6 1.6,-0.9 0.6,-0.4 1.3,-0.9 2,-1.4 0.7,-0.5 1.5,-1.2 2.2,-1.9 0.7,-0.8 1.5,-1.5 2.1,-2.4 1.3,-1.8 2.2,-4.1 2.4,-6.5 0.2,-2.5 -0.2,-4.9 -0.8,-7.1 -0.1,-0.6 -0.3,-1.1 -0.5,-1.6 -0.2,-0.5 -0.3,-1 -0.5,-1.5 -0.4,-0.9 -0.7,-1.9 -1.1,-2.7 -0.4,-0.8 -0.7,-1.5 -1,-2.2 -0.3,-0.6 -0.6,-1.2 -0.8,-1.6 -0.5,-1.2 -0.8,-1.7 -0.8,-1.7 z"/><path id="path156" fill="#262424" d="m 544.2,762 c 0,0 0.4,-0.6 1.2,-1.8 0.8,-1.1 1.8,-2.8 3,-5 2.2,-4.3 4.8,-10.6 4.7,-17.7 -0.1,-3.6 -0.9,-6.8 -1.9,-9.7 -0.3,-0.7 -0.6,-1.4 -0.8,-2.1 -0.3,-0.6 -0.7,-1.3 -1,-1.9 -0.6,-1.2 -1.3,-2.3 -1.9,-3.3 -2.6,-3.9 -4.8,-6.1 -5.1,-6.5 -0.2,-0.2 0.4,0.2 1.4,1 0.5,0.4 1.2,0.9 2,1.6 0.7,0.7 1.6,1.5 2.5,2.4 1.7,2 3.7,4.4 5.1,7.6 1.5,3.1 2.6,6.9 2.7,10.9 0.1,4 -0.8,7.7 -2,10.8 -1.2,3.2 -2.9,5.7 -4.3,7.8 -1.5,2 -2.8,3.5 -3.8,4.5 -1.2,0.8 -1.8,1.4 -1.8,1.4 z"/><path id="path158" fill="#262424" d="m 560.2,790 c 0,0 -0.5,0.1 -1.3,0.4 -0.9,0.2 -2.1,0.6 -3.7,0.9 -3.2,0.6 -7.7,1 -12.7,0.1 -2.4,-0.5 -4.7,-1 -6.7,-1.9 -2,-0.7 -3.6,-1.6 -5,-2.4 -0.3,-0.2 -0.7,-0.4 -1,-0.6 -0.3,-0.2 -0.6,-0.4 -0.8,-0.6 -0.5,-0.4 -1,-0.7 -1.3,-1 -0.7,-0.6 -1.2,-0.9 -1.3,-1 -0.3,-0.2 1.6,0.5 4.7,1.6 3.1,1 7.4,2.2 12,3 4.7,0.8 8.9,1.1 12.1,1.3 1.6,0.1 2.9,0 3.8,0.1 0.7,0.1 1.2,0.1 1.2,0.1 z"/><path id="path160" fill="#262424" d="m 592.2,782 c 0,0 -0.1,-0.5 -0.3,-1.4 -0.1,-0.9 -0.4,-2.2 -0.6,-3.7 -0.5,-3.2 -1.3,-7.4 -2.3,-12.1 -0.6,-2.3 -1,-4.5 -1.6,-6.4 -0.5,-2 -1.1,-3.7 -1.5,-5.2 -0.1,-0.4 -0.2,-0.7 -0.3,-1.1 -0.1,-0.3 -0.2,-0.6 -0.4,-0.9 -0.2,-0.6 -0.4,-1.1 -0.6,-1.5 -0.3,-0.9 -0.5,-1.4 -0.6,-1.6 -0.1,-0.3 1.2,1.2 3,4 1.7,2.9 3.6,7.2 4.7,12.1 1,4.9 1.1,9.4 0.9,12.6 -0.1,1.6 -0.3,2.9 -0.4,3.8 0.1,0.9 0,1.4 0,1.4 z"/><path id="path162" fill="#262424" d="m 602.2,804 c 0,0 -0.3,0.2 -0.8,0.6 -0.5,0.4 -1.3,0.9 -2.3,1.5 -2,1.1 -5.1,2.3 -8.6,2.6 -3.6,0.2 -6.6,-0.4 -8.7,-1.2 -2.1,-0.7 -3.4,-1.4 -3.6,-1.5 -0.2,-0.1 1.2,-0.1 3.5,0 2.3,0 5.4,0 8.6,-0.2 3.2,-0.2 6.1,-0.7 8.3,-1.1 1.1,-0.2 2,-0.4 2.6,-0.6 0.7,0 1,-0.1 1,-0.1 z"/><path id="path164" fill="#262424" d="m 630.2,764 c 0,0 -0.3,-0.6 -0.8,-1.6 -0.2,-0.5 -0.5,-1.2 -0.9,-1.9 -0.3,-0.7 -0.7,-1.6 -1.2,-2.5 -1,-1.8 -2,-3.9 -3.5,-6.2 -0.3,-0.6 -0.7,-1.1 -1.1,-1.7 -0.2,-0.3 -0.4,-0.6 -0.5,-0.9 -0.2,-0.3 -0.4,-0.6 -0.6,-0.9 -0.8,-1.2 -1.7,-2.4 -2.5,-3.7 -1.9,-2.4 -3.5,-4.8 -5.3,-6.7 -0.4,-0.5 -0.8,-1 -1.2,-1.5 -0.2,-0.2 -0.4,-0.5 -0.6,-0.7 -0.2,-0.2 -0.4,-0.4 -0.6,-0.6 -0.8,-0.8 -1.5,-1.6 -2.2,-2.3 -0.3,-0.4 -0.7,-0.7 -1,-1 -0.3,-0.3 -0.6,-0.6 -0.9,-0.9 -0.6,-0.5 -1.1,-1 -1.5,-1.4 -0.9,-0.8 -1.4,-1.3 -1.6,-1.5 -0.2,-0.1 0.3,0.1 1.3,0.6 0.5,0.3 1.1,0.6 1.8,1.1 0.7,0.4 1.6,0.9 2.4,1.6 3.5,2.5 7.9,6.6 11.7,11.7 0.9,1.3 1.7,2.6 2.5,3.9 0.2,0.3 0.4,0.6 0.6,0.9 0.2,0.3 0.3,0.7 0.5,1 0.3,0.6 0.6,1.3 0.9,1.9 1.3,2.4 2,4.8 2.7,6.8 0.4,1 0.6,1.9 0.7,2.7 0.2,0.8 0.3,1.5 0.5,2.1 0.3,1.1 0.4,1.7 0.4,1.7 z"/><path id="path166" fill="#262424" d="m 610.2,852 c 0,0 -0.7,0 -1.9,-0.1 -1.2,-0.1 -2.9,-0.1 -5.1,-0.3 -1.1,-0.1 -2.2,-0.3 -3.5,-0.5 -0.6,-0.1 -1.3,-0.2 -1.9,-0.3 -0.7,-0.1 -1.3,-0.3 -2,-0.4 -1.4,-0.3 -2.9,-0.6 -4.4,-1.1 -1.5,-0.5 -3,-0.9 -4.6,-1.5 -1.6,-0.5 -3,-1.2 -4.4,-1.8 -0.7,-0.3 -1.4,-0.6 -2.1,-0.9 -0.7,-0.3 -1.3,-0.7 -1.9,-1 -1.2,-0.7 -2.4,-1.2 -3.5,-1.9 -1,-0.7 -2,-1.3 -2.9,-1.8 -1.8,-1.1 -3.1,-2.2 -4.1,-3 -1,-0.8 -1.6,-1.3 -1.8,-1.4 -0.2,-0.1 0.3,0.1 1.4,0.6 0.5,0.3 1.2,0.6 1.9,0.9 0.8,0.4 1.6,0.8 2.6,1.3 3.9,1.8 9.5,4.1 15.6,6.3 1.5,0.5 3,1 4.4,1.6 1.4,0.5 2.8,0.9 4.2,1.3 0.7,0.2 1.3,0.4 1.9,0.6 0.6,0.2 1.3,0.4 1.9,0.5 1.2,0.4 2.3,0.7 3.3,1 2,0.6 3.7,1 4.9,1.3 1.4,0.4 2,0.6 2,0.6 z"/><path id="path168" fill="#262424" d="m 648.2,836 c 0,0 -0.5,0.2 -1.4,0.6 -0.4,0.2 -1,0.5 -1.7,0.7 -0.7,0.2 -1.4,0.5 -2.3,0.8 -3.4,1 -8.3,1.8 -13.7,1.6 -5.4,-0.2 -10,-1.1 -13.3,-1.9 -3.3,-0.9 -5.3,-1.7 -5.7,-1.8 -0.7,-0.3 8.7,0.5 19.1,0.8 5.2,0.2 9.9,0.1 13.3,-0.2 0.9,0 1.6,-0.2 2.3,-0.2 0.7,-0.1 1.3,-0.1 1.8,-0.2 1.1,-0.1 1.6,-0.2 1.6,-0.2 z"/><path id="path170" fill="#262424" d="m 642.2,792 c 0,0 0.1,0.5 0.2,1.5 0.1,1 0.2,2.4 0.1,4.1 -0.1,0.9 -0.1,1.8 -0.4,2.8 -0.1,0.5 -0.2,1 -0.3,1.6 -0.2,0.5 -0.3,1.1 -0.5,1.6 -0.8,2.2 -1.9,4.6 -3.7,6.7 -1.8,2.1 -3.9,3.7 -5.9,4.8 -0.5,0.3 -1,0.5 -1.5,0.8 -0.5,0.2 -1,0.4 -1.5,0.6 -0.9,0.4 -1.9,0.6 -2.7,0.8 -3.3,0.8 -5.5,0.6 -5.8,0.6 -0.2,0 0.2,-0.2 1.1,-0.5 0.4,-0.2 1,-0.3 1.6,-0.6 0.6,-0.3 1.3,-0.5 2.1,-0.9 1.5,-0.7 3.4,-1.6 5.1,-2.9 1.8,-1.3 3.6,-2.8 5.1,-4.7 3.1,-3.7 4.8,-8 5.7,-11.2 0.4,-1.6 0.7,-2.9 0.9,-3.9 0.3,-0.7 0.4,-1.2 0.4,-1.2 z"/><path id="path172" fill="#262424" d="m 688.2,814 c 0,0 0.2,-1.3 0.8,-3.3 0.5,-2 1.3,-4.7 2,-7.6 0.6,-2.9 1,-5.5 1.1,-7.5 0.1,-2 0.1,-3.3 0.1,-3.5 0,-0.2 0.6,0.9 1.3,3 0.6,2.1 1,5.3 0.2,8.6 -0.2,0.8 -0.4,1.6 -0.7,2.3 -0.3,0.7 -0.6,1.4 -0.9,2 -0.6,1.3 -1.3,2.3 -1.9,3.2 -1.1,1.8 -2,2.8 -2,2.8 z"/><path id="path174" fill="#262424" d="m 676.2,846 c 0,0 -0.1,-0.5 -0.3,-1.3 -0.1,-0.4 -0.2,-0.9 -0.3,-1.5 -0.1,-0.3 -0.1,-0.6 -0.2,-0.9 -0.1,-0.3 -0.2,-0.7 -0.3,-1 -0.6,-2.9 -1.8,-6.8 -3,-11.2 -2.5,-8.7 -3.9,-15.4 -4,-16 -0.2,-0.6 4.3,6.3 6.8,15.3 1.2,4.5 1.7,8.7 1.6,11.8 0,0.4 0,0.7 0,1.1 0,0.3 -0.1,0.7 -0.1,1 -0.1,0.6 -0.1,1.1 -0.2,1.5 0.1,0.7 0,1.2 0,1.2 z"/><path id="path176" fill="#262424" d="m 682.2,862 c 0,0 0.4,-0.2 1,-0.5 0.7,-0.3 1.6,-0.7 2.8,-1.3 2.3,-1.1 5.3,-2.8 8.1,-5.2 5.7,-4.7 7.8,-10.5 8.1,-11 0.1,-0.1 0.1,0.2 0,0.9 0,0.7 -0.2,1.8 -0.5,3.2 -0.4,1.3 -0.9,2.9 -1.9,4.5 -1,1.6 -2.3,3.2 -3.9,4.6 -3.2,2.7 -6.9,3.9 -9.5,4.4 -1.3,0.2 -2.4,0.3 -3.1,0.4 -0.6,0 -1.1,0 -1.1,0 z"/><path id="path178" fill="#262424" d="m 658.2,852 c 0,0 -0.3,0.6 -0.9,1.6 -0.6,1 -1.5,2.4 -2.9,4.1 -0.3,0.4 -0.7,0.8 -1.1,1.2 -0.2,0.2 -0.4,0.4 -0.6,0.7 -0.2,0.2 -0.4,0.4 -0.7,0.6 -0.5,0.4 -0.9,0.9 -1.4,1.3 -0.5,0.4 -1.1,0.8 -1.6,1.3 -2.3,1.6 -5.1,3.1 -8.4,4 -3.2,0.8 -6.4,0.8 -9.1,0.5 -0.7,-0.1 -1.4,-0.2 -2,-0.3 -0.6,-0.2 -1.2,-0.3 -1.8,-0.5 -1.2,-0.3 -2.2,-0.7 -3.2,-1.1 -3.8,-1.6 -5.9,-3.1 -6.3,-3.3 -0.2,-0.1 0.3,0 1.4,0.4 0.5,0.2 1.2,0.4 2,0.6 0.8,0.2 1.7,0.5 2.7,0.7 4,0.9 9.8,1.6 15.6,0.2 2.9,-0.7 5.5,-1.9 7.8,-3.2 0.6,-0.3 1.1,-0.7 1.6,-1 0.5,-0.4 1,-0.7 1.5,-1.1 0.2,-0.2 0.5,-0.3 0.7,-0.5 0.2,-0.2 0.4,-0.4 0.6,-0.5 0.4,-0.3 0.8,-0.7 1.2,-1 1.5,-1.3 2.7,-2.5 3.5,-3.3 1,-1 1.4,-1.4 1.4,-1.4 z"/><path id="path180" fill="#262424" d="m 694.2,886 c 0,0 -0.3,0.3 -0.9,0.7 -0.6,0.4 -1.5,1 -2.7,1.7 -2.3,1.3 -5.9,2.7 -10,3.1 -4.2,0.4 -7.8,-0.5 -10.3,-1.4 -2.5,-1 -3.8,-1.9 -4.1,-2.1 -0.1,-0.1 0.2,0 0.9,0.1 0.7,0.1 1.8,0.3 3.1,0.5 2.6,0.3 6.2,0.5 10,0.1 3.8,-0.3 7.3,-1 9.8,-1.6 1.3,-0.3 2.3,-0.6 3,-0.7 0.8,-0.3 1.2,-0.4 1.2,-0.4 z"/><path id="path182" fill="#262424" d="m 726.2,860 c 0,0 0.2,-0.7 0.6,-1.9 0.2,-0.6 0.5,-1.3 0.7,-2.2 0.2,-0.9 0.6,-1.8 0.8,-2.9 0.2,-1.1 0.6,-2.3 0.7,-3.6 0.1,-0.6 0.2,-1.3 0.3,-2 0.1,-0.7 0.2,-1.4 0.2,-2.1 0.3,-2.9 0.4,-6.1 0.1,-9.4 -0.5,-6.7 -1.9,-12.4 -3.1,-16.6 -1.3,-4.2 -2.2,-6.8 -2.4,-7.3 -0.1,-0.2 0.3,0.3 0.9,1.3 0.7,1 1.6,2.7 2.6,4.8 2,4.2 4.4,10.5 4.9,17.6 0.2,3.5 -0.1,6.9 -0.6,10 -0.2,0.7 -0.3,1.5 -0.5,2.2 -0.2,0.7 -0.4,1.4 -0.6,2 -0.4,1.3 -0.9,2.5 -1.3,3.5 -0.4,1.1 -0.9,2 -1.3,2.8 -0.4,0.8 -0.8,1.5 -1.1,2 -0.5,1.2 -0.9,1.8 -0.9,1.8 z"/><path id="path184" fill="#262424" d="m 756.2,858 c 0,0 0.2,-0.4 0.5,-1.1 0.2,-0.4 0.4,-0.8 0.6,-1.3 0.2,-0.5 0.5,-1.1 0.7,-1.8 1,-2.6 2.1,-6.3 2.6,-10.4 0.5,-4.1 0.3,-7.8 0.1,-10.5 -0.2,-2.7 -0.5,-4.5 -0.5,-4.8 0,-0.1 0.2,0.2 0.5,0.9 0.2,0.4 0.4,0.8 0.6,1.3 0.2,0.6 0.5,1.2 0.7,1.9 1,2.8 1.9,7.1 1.4,11.6 -0.5,4.6 -2.4,8.4 -4.2,10.7 -0.4,0.6 -0.8,1.1 -1.2,1.6 -0.4,0.4 -0.7,0.8 -1,1.1 -0.4,0.5 -0.8,0.8 -0.8,0.8 z"/><path id="path186" fill="#262424" d="m 724.2,894 c 0,0 0.3,-0.4 0.9,-1 0.6,-0.6 1.4,-1.6 2.3,-2.8 1.9,-2.4 4.2,-5.9 6.1,-10 0.9,-2.1 1.7,-4.1 2.3,-5.9 0.6,-1.9 1,-3.5 1.3,-5 0.7,-2.9 1,-4.9 1,-5.2 0,-0.3 0.5,1.6 0.5,4.9 0,1.6 -0.1,3.6 -0.5,5.7 -0.4,2.1 -1.1,4.5 -2.1,6.7 -2.1,4.5 -5.2,7.8 -7.7,9.8 -1.3,1 -2.3,1.7 -3.1,2.2 -0.5,0.3 -1,0.6 -1,0.6 z"/><path id="path188" fill="#262424" d="m 468.2,752 c 0,0 -0.6,0.1 -1.7,0.4 -1.1,0.3 -2.8,0.5 -4.8,0.7 -1,0 -2.2,0.2 -3.4,0.1 -0.6,0 -1.2,0 -1.9,-0.1 -0.7,-0.1 -1.3,-0.1 -2,-0.2 -2.7,-0.4 -5.8,-1 -8.7,-2.3 -3,-1.2 -5.6,-2.8 -7.8,-4.3 -1.1,-0.8 -2.1,-1.6 -2.9,-2.4 -0.4,-0.4 -0.9,-0.8 -1.3,-1.2 -0.4,-0.4 -0.7,-0.8 -1.1,-1.2 -2.7,-3 -4,-5.2 -4.3,-5.5 -0.1,-0.2 0.3,0.2 1.1,0.9 0.8,0.7 2.1,1.8 3.7,3.1 1.6,1.3 3.6,2.7 5.9,4.1 2.3,1.4 4.9,2.7 7.7,3.8 2.8,1.1 5.5,1.9 8.1,2.5 0.6,0.1 1.3,0.3 1.9,0.4 0.6,0.1 1.2,0.2 1.8,0.3 1.2,0.2 2.2,0.3 3.2,0.4 2,0.2 3.6,0.3 4.8,0.3 1.1,0.2 1.7,0.2 1.7,0.2 z"/><path id="path190" fill="#262424" d="m 516.2,804 c 0,0 -0.7,-0.2 -1.8,-0.5 -1.2,-0.3 -2.9,-0.9 -4.9,-1.7 -4,-1.7 -9.5,-4.7 -14.2,-9.7 -2.3,-2.5 -4.1,-5.1 -5.5,-7.7 -1.3,-2.6 -2.2,-5 -2.7,-7.1 -1,-4.2 -0.9,-6.9 -0.9,-7.4 0,-0.2 0.2,0.3 0.5,1.4 0.3,1.1 0.8,2.8 1.7,4.8 0.4,1 0.9,2.1 1.5,3.2 0.5,1.2 1.3,2.3 2,3.5 1.5,2.4 3.4,4.8 5.6,7.2 4.3,4.7 9.1,8.1 12.7,10.3 1.8,1.1 3.3,2 4.4,2.6 1.1,0.8 1.6,1.1 1.6,1.1 z"/><path id="path192" fill="#262424" d="m 376.2,662 c 0,0 -0.9,-0.2 -2.4,-0.5 -1.6,-0.3 -3.8,-0.9 -6.5,-1.9 -1.3,-0.5 -2.8,-1 -4.3,-1.8 -0.8,-0.4 -1.5,-0.8 -2.3,-1.2 -0.8,-0.5 -1.6,-0.9 -2.4,-1.4 -3.2,-2 -6.6,-4.7 -9.5,-8 -2.9,-3.3 -5.1,-6.9 -6.7,-10.3 -0.7,-1.7 -1.4,-3.3 -1.9,-4.9 -0.2,-0.8 -0.5,-1.5 -0.7,-2.3 -0.2,-0.7 -0.3,-1.5 -0.5,-2.1 -1.1,-5.5 -0.9,-9 -1,-9.6 0,-0.3 0.2,0.4 0.5,1.9 0.3,1.5 0.9,3.7 1.7,6.4 0.5,1.3 0.9,2.8 1.6,4.4 0.3,0.8 0.6,1.6 1,2.4 0.4,0.8 0.8,1.6 1.2,2.4 1.8,3.3 4,6.6 6.8,9.8 5.5,6.3 12,10.4 16.9,13 2.5,1.2 4.5,2.2 6,2.8 1.7,0.6 2.5,0.9 2.5,0.9 z"/><path id="path194" fill="#262424" d="m 432.2,670 c 0,0 -0.3,-0.8 -1,-2.3 -0.3,-0.7 -0.7,-1.7 -1.2,-2.7 -0.3,-0.5 -0.5,-1.1 -0.8,-1.6 -0.1,-0.3 -0.3,-0.6 -0.4,-0.9 -0.2,-0.3 -0.4,-0.6 -0.5,-0.9 -0.8,-1.2 -1.5,-2.6 -2.5,-3.9 -0.5,-0.7 -1,-1.4 -1.5,-2.1 -0.6,-0.7 -1.1,-1.4 -1.7,-2.1 -2.5,-2.8 -5.4,-5.7 -8.9,-8.1 -3.5,-2.5 -7.1,-4.3 -10.4,-5.7 -1.7,-0.6 -3.3,-1.3 -4.9,-1.6 -0.8,-0.2 -1.5,-0.4 -2.3,-0.6 -0.7,-0.1 -1.4,-0.3 -2.1,-0.4 -5.5,-1 -9.1,-0.9 -9.7,-1 -0.3,0 0.4,-0.1 2,-0.4 1.6,-0.3 4,-0.4 7,-0.3 1.5,0.1 3.2,0.2 4.9,0.6 0.9,0.2 1.8,0.3 2.7,0.5 0.9,0.3 1.9,0.5 2.8,0.8 3.8,1.3 7.8,3.2 11.6,5.8 3.7,2.6 6.7,5.8 9.1,8.9 0.6,0.8 1.1,1.6 1.7,2.3 0.5,0.8 0.9,1.6 1.4,2.3 0.9,1.5 1.5,3 2.1,4.3 0.1,0.3 0.3,0.7 0.4,1 0.1,0.3 0.2,0.7 0.3,1 0.2,0.6 0.4,1.2 0.6,1.8 0.4,1.1 0.6,2.1 0.8,2.9 0.4,1.5 0.5,2.4 0.5,2.4 z"/><path id="path196" fill="#262424" d="m 420.2,690 c 0,0 -0.6,-0.2 -1.6,-0.5 -0.5,-0.2 -1.2,-0.4 -1.9,-0.7 -0.7,-0.3 -1.6,-0.6 -2.4,-1.1 -0.9,-0.5 -1.9,-1 -2.8,-1.6 -1,-0.6 -2,-1.4 -3,-2.2 -2,-1.7 -4.1,-3.9 -5.8,-6.5 -1.7,-2.6 -2.8,-5.3 -3.5,-7.8 -0.2,-0.6 -0.3,-1.2 -0.5,-1.8 -0.1,-0.6 -0.2,-1.2 -0.3,-1.8 -0.2,-1.1 -0.3,-2.2 -0.4,-3.2 -0.2,-3.9 0.2,-6.3 0.2,-6.7 0,-0.2 0.1,0.3 0.3,1.3 0.1,1 0.4,2.6 0.8,4.5 0.9,3.8 2.6,9 5.7,13.8 1.5,2.4 3.3,4.5 5,6.3 0.9,0.9 1.7,1.7 2.6,2.4 0.8,0.8 1.7,1.4 2.4,2 0.7,0.6 1.5,1.1 2.1,1.5 0.6,0.5 1.2,0.8 1.7,1.1 0.9,0.7 1.4,1 1.4,1 z"/><path id="path198" fill="#262424" d="m 450.2,710 c 0,0 -0.6,0.4 -1.6,1.2 -1,0.8 -2.5,1.8 -4.5,2.9 -2,1.1 -4.5,2.3 -7.4,3.2 -2.9,0.9 -6.3,1.5 -9.9,1.4 -3.6,-0.1 -6.9,-0.8 -9.7,-1.9 -0.7,-0.3 -1.4,-0.6 -2,-0.8 -0.7,-0.3 -1.2,-0.6 -1.8,-0.9 -1.2,-0.6 -2.2,-1.3 -3.1,-1.9 -3.7,-2.6 -5.5,-4.8 -5.8,-5.1 -0.2,-0.2 0.4,0.1 1.4,0.8 0.5,0.3 1.1,0.8 1.9,1.2 0.8,0.4 1.7,1 2.7,1.5 0.5,0.2 1,0.5 1.6,0.8 0.3,0.1 0.6,0.3 0.8,0.4 0.3,0.1 0.6,0.2 0.9,0.4 0.6,0.2 1.3,0.5 1.9,0.8 0.7,0.2 1.4,0.4 2.1,0.6 2.8,0.8 6,1.3 9.3,1.4 6.6,0.1 12.5,-1.5 16.7,-3 2.1,-0.8 3.8,-1.5 4.9,-2 1,-0.7 1.6,-1 1.6,-1 z"/><path id="path200" fill="#262424" d="m 784.2,846 c 0,0 0.1,0.8 0.4,2.3 0.1,0.7 0.3,1.7 0.3,2.7 0.1,1.1 0.2,2.3 0.2,3.6 0,1.4 0,2.8 -0.1,4.4 -0.1,1.6 -0.4,3.3 -0.7,5.1 -0.7,3.5 -2,7.4 -4,11.1 -2,3.7 -4.7,6.7 -7.4,9 -0.7,0.6 -1.4,1.1 -2,1.6 -0.7,0.5 -1.4,0.9 -2,1.3 -1.3,0.9 -2.6,1.4 -3.8,2 -4.9,2.1 -8.2,2.5 -8.7,2.7 -0.3,0.1 0.4,-0.2 1.7,-0.8 0.7,-0.3 1.5,-0.6 2.5,-1.1 0.9,-0.5 2,-1.1 3.2,-1.7 2.3,-1.5 5,-3.2 7.4,-5.7 2.5,-2.4 4.9,-5.4 6.8,-8.8 1.9,-3.4 3.2,-7 4.2,-10.3 0.4,-1.7 0.9,-3.2 1.1,-4.8 0.3,-1.5 0.5,-2.9 0.7,-4.2 0.2,-1.3 0.2,-2.5 0.3,-3.6 0.1,-1.1 0.1,-2 0.1,-2.7 -0.2,-1.3 -0.2,-2.1 -0.2,-2.1 z"/><path id="path202" fill="#262424" d="m 812.2,894 c 0,0 -0.3,0.6 -0.7,1.6 -0.5,1 -1.2,2.5 -2.3,4.3 -0.6,0.9 -1.1,1.8 -1.9,2.8 -0.4,0.5 -0.7,1 -1.1,1.5 -0.4,0.5 -0.9,1 -1.3,1.5 -1.9,2 -4.1,4 -6.8,5.7 -2.7,1.7 -5.5,2.8 -8,3.6 -1.3,0.3 -2.5,0.7 -3.7,0.8 -1.2,0.2 -2.2,0.3 -3.2,0.4 -4,0.3 -6.5,-0.2 -6.9,-0.2 -0.2,0 0.3,-0.1 1.4,-0.3 1.1,-0.1 2.7,-0.4 4.7,-0.9 1,-0.3 2.1,-0.5 3.2,-0.9 0.6,-0.2 1.1,-0.4 1.7,-0.5 0.6,-0.2 1.2,-0.4 1.8,-0.7 2.4,-1 5,-2.2 7.5,-3.8 5,-3.2 8.9,-7 11.5,-9.9 1.3,-1.5 2.4,-2.7 3,-3.6 0.8,-0.9 1.1,-1.4 1.1,-1.4 z"/><path id="path204" fill="#262424" d="m 368.2,632 c 0,0 0.3,-0.5 0.8,-1.3 0.3,-0.4 0.6,-0.9 1,-1.5 0.4,-0.5 0.9,-1.2 1.5,-1.8 0.6,-0.7 1.3,-1.4 2,-2.1 0.8,-0.7 1.6,-1.4 2.6,-2.1 1.9,-1.4 4.2,-2.7 6.8,-3.7 2.6,-1 5.1,-1.5 7.4,-1.7 2.3,-0.1 4.4,-0.1 6.1,0.3 3.4,0.6 5.3,1.8 5.7,1.9 0.2,0.1 -0.3,0 -1.2,-0.1 -0.9,-0.1 -2.3,-0.3 -4.1,-0.3 -0.9,0 -1.8,0 -2.8,0.1 -1,0 -2.1,0.3 -3.2,0.4 -2.2,0.4 -4.6,1.1 -6.9,2 -4.7,1.8 -8.7,4.3 -11.4,6.3 -0.7,0.5 -1.3,1 -1.8,1.4 -0.5,0.4 -1,0.8 -1.3,1.1 -0.7,0.7 -1.2,1.1 -1.2,1.1 z"/><path id="path206" fill="#262424" d="m 328.2,622 c 0,0 -0.3,-0.6 -0.8,-1.6 -0.5,-1.1 -1.1,-2.7 -1.8,-4.7 -0.1,-0.5 -0.3,-1.1 -0.4,-1.6 -0.1,-0.3 -0.1,-0.6 -0.2,-0.9 -0.1,-0.3 -0.1,-0.6 -0.2,-0.9 -0.1,-0.6 -0.2,-1.3 -0.3,-1.9 -0.1,-0.7 -0.1,-1.4 -0.2,-2.1 -0.2,-2.8 -0.1,-6 0.7,-9.3 0.7,-3.2 1.9,-6.1 3.3,-8.6 0.4,-0.6 0.7,-1.2 1.1,-1.7 0.2,-0.3 0.4,-0.5 0.5,-0.8 0.2,-0.3 0.4,-0.5 0.6,-0.7 0.4,-0.5 0.7,-0.9 1.1,-1.4 0.4,-0.4 0.8,-0.8 1.1,-1.2 2.9,-3 5.2,-4.3 5.5,-4.6 0.2,-0.1 -0.2,0.3 -0.9,1.2 -0.8,0.8 -1.8,2.2 -3.1,3.9 -0.6,0.9 -1.3,1.8 -1.9,2.9 -0.7,1 -1.2,2.2 -1.8,3.4 -1.1,2.5 -2.1,5.3 -2.8,8.3 -1.4,6 -1.2,11.6 -0.7,15.7 0.3,2 0.5,3.7 0.8,4.8 0.3,1.1 0.4,1.8 0.4,1.8 z"/><path id="path208" fill="#262424" d="m 1460.2,708 c 0,0 -7,-2.7 -19.6,-7.6 -3.1,-1.2 -6.6,-2.6 -10.5,-4.1 -3.9,-1.4 -8.1,-2.9 -12.6,-4.6 -9,-3.3 -19.2,-7.1 -30.7,-10.9 -5.7,-1.9 -11.7,-4 -17.9,-6.1 -6.3,-2 -12.8,-4.1 -19.6,-6.2 -13.5,-4.4 -28.1,-8.5 -43.4,-13 -30.7,-8.6 -64.7,-17.2 -100.7,-25 -36,-7.6 -70,-13.3 -100.8,-17.8 -7.7,-1 -15.2,-2 -22.5,-2.9 -3.6,-0.5 -7.2,-1 -10.8,-1.4 -3.5,-0.4 -7,-0.7 -10.5,-1.1 -6.9,-0.7 -13.5,-1.4 -19.8,-2.1 -6.4,-0.6 -12.5,-1 -18.4,-1.5 -5.9,-0.5 -11.5,-0.9 -16.8,-1.3 -5.3,-0.3 -10.4,-0.5 -15.1,-0.8 -9.5,-0.5 -17.8,-1 -24.7,-1.1 -14,-0.4 -22.7,-0.6 -25.2,-0.6 -2.5,-0.1 3.7,-0.1 16.8,0 6.5,0.1 14.8,-0.1 24.4,0.4 4.8,0.2 10.1,0.4 15.6,0.6 2.8,0.1 5.6,0.2 8.6,0.3 2.9,0.2 6,0.4 9,0.6 6.2,0.4 12.7,0.8 19.4,1.3 1.7,0.1 3.4,0.2 5.1,0.4 1.7,0.2 3.5,0.3 5.2,0.5 3.5,0.3 7.1,0.7 10.7,1 3.6,0.3 7.3,0.7 11.1,1 1.9,0.2 3.8,0.4 5.7,0.5 1.9,0.2 3.8,0.5 5.8,0.7 7.7,0.9 15.7,1.9 23.8,2.9 32.5,4.3 67.8,10.2 103.9,17.8 36.1,7.8 70.1,16.6 100.8,25.4 15.3,4.7 29.9,8.9 43.3,13.5 6.7,2.2 13.3,4.3 19.5,6.5 6.2,2.2 12.2,4.3 17.9,6.3 11.4,3.9 21.6,7.9 30.6,11.4 4.5,1.7 8.6,3.3 12.5,4.8 3.8,1.6 7.3,3 10.4,4.3 12.6,5 19.5,7.9 19.5,7.9 z"/><path id="path210" fill="#262424" d="m 746.2,910 c 0,0 -0.6,0.4 -1.7,1.1 -0.3,0.2 -0.6,0.4 -0.9,0.6 -0.4,0.2 -0.7,0.4 -1.1,0.6 -0.8,0.5 -1.8,1 -2.9,1.4 -2.1,1 -4.9,1.9 -7.9,2.7 -3.1,0.7 -6.5,1.2 -10.2,1.3 -3.6,0.1 -7,-0.3 -10,-0.7 -1.5,-0.3 -2.9,-0.5 -4.2,-0.9 -0.7,-0.2 -1.3,-0.3 -1.9,-0.5 -0.6,-0.2 -1.2,-0.4 -1.7,-0.5 -4.4,-1.4 -6.9,-2.8 -7.4,-3 -0.2,-0.1 0.4,0 1.6,0.3 1.2,0.3 3.1,0.7 5.4,1.1 4.7,0.8 11.2,1.6 18.2,1.4 3.5,-0.1 6.8,-0.4 9.8,-0.8 3,-0.5 5.7,-1 7.9,-1.6 1.1,-0.3 2.1,-0.6 3,-0.9 0.4,-0.1 0.8,-0.3 1.2,-0.4 0.4,-0.1 0.7,-0.3 1,-0.4 1.2,-0.6 1.8,-0.8 1.8,-0.8 z"/></g></g></svg>